<svg xmlns="http://www.w3.org/2000/svg" width="512" height="310.143" viewBox="0 0 135.467 82.059"><path d="m31.758 69.503-3.601 4.818-1.637-2.666ZM11.553 63.236l21.375-3.742 3.741 3.742-3.601 3.274zM18.615 51.777l-1.169 2.806 10.43 2.76z" style="fill:#000;fill-opacity:1;stroke:none;stroke-width:.264583px;stroke-linecap:butt;stroke-linejoin:miter;stroke-opacity:1" transform="matrix(3.0369 0 0 3.0369 -31.91 -151.793)"/><path d="m35.64 57.997 6.642-6.969.374 5.987L54.07 53.04 45.93 63.563l4.63 6.595-7.155-.795 1.356 6.595-8.887-7.53 6.642 3.741-1.777-5.332 4.303.14-2.994-3.46 4.397-5.099-5.8 1.31.28-5.426z" style="fill:#000;fill-opacity:1;stroke:none;stroke-width:.264583px;stroke-linecap:butt;stroke-linejoin:miter;stroke-opacity:1" transform="matrix(3.0369 0 0 3.0369 -31.91 -151.793)"/></svg>