<svg xmlns="http://www.w3.org/2000/svg" id="draw_on_this_one" data-name="draw on this one" version="1.1"><defs id="defs4"><style id="style2">.cls-1{fill:#241c1c}</style></defs><g id="g4055" style="fill:#000;fill-opacity:1" transform="matrix(1.44234 0 0 1.44234 -120.147 -106.215)"><path id="path70-2" d="M391.326 254.71v.123a80.169 80.169 0 0 0 6.825-39.313C388.337 75.604 260.788 82.006 260.788 82.006S133.239 75.604 123.424 215.52a80.346 80.346 0 0 0 6.826 39.313v-.123a81.182 81.182 0 0 1 2.648 7.74c12.285-22.591 23.205-40.746 23.205-40.746a105.449 105.449 0 0 1-21.595 47.312c.573 3.038.875 6.122.901 9.214 0 13.009-8.954 15.356-8.954 30.03 0 14.675 32.638 52.677 38.603 52.677 5.965 0 9.173-5.323 13.009-5.323a36.938 36.938 0 0 1 20.27 26.863s.205 1.024.547 2.43l.382.874a10.398 10.398 0 0 1 2.73-.45 9.897 9.897 0 0 1 9.187 4.873c1.9-.61 3.887-.905 5.883-.874h3.03a7.66 7.66 0 0 1 5.802 2.99 7.617 7.617 0 0 1 3.93-1.12 16.19 16.19 0 0 1 11.795 7.344 11.494 11.494 0 0 1 8.477-5.924 15.944 15.944 0 0 1 13.35 10.442 14.688 14.688 0 0 1 12.599-9.01c3.98.05 7.737 1.853 10.265 4.929a12.75 12.75 0 0 1 10.21-6.375 22.09 22.09 0 0 1 9.556 1.83 16.9 16.9 0 0 1 13.104-6.567 8.186 8.186 0 0 1 3.658.97c.265-2.12.392-4.253.383-6.389a36.965 36.965 0 0 1 20.257-26.864c3.85 0 7.043 5.324 13.022 5.324s38.603-37.962 38.603-52.677c0-14.715-8.968-17.063-8.968-30.03a66.887 66.887 0 0 1 5.187-23.493zm-200.92 70.695c-7.466 0-40.95.205-40.95-31.136 0-31.341 43.34-42.139 53.605-42.139 9.8 0 40.022 1.816 40.022 32.324 0 30.509-45.21 40.951-52.676 40.951zm84.756 50.97c-5.624 0-12.45-15.56-14.374-15.56 0 0-8.955 13.008-15.357 13.008-6.402 0-9.555-12.162-9.555-14.715 0-2.553 14.292-59.297 23.206-59.297 8.913 0 25.403 60.143 25.403 64.62 0 4.478-3.686 11.904-9.323 11.904zm62.068-50.97c-7.467 0-52.69-10.442-52.69-40.95 0-30.51 30.221-32.311 40.036-32.311 10.265 0 53.605 10.77 53.605 42.125s-33.553 31.136-40.951 31.136zm40.446-81.137c-15.903 0-17.35-48.978-17.35-48.978 0 20.066 11.89 35.163 19.11 35.163 7.222 0 14.088 13.774-1.815 13.774z" class="cls-1" style="fill:#000;fill-opacity:1;stroke-width:13.6503"/><path id="path50-6" d="M250.373 398.12s-5.884.328-5.884 11.672c0 11.343 16.299 14.032 16.299 5.46s-5.27-17.131-10.415-17.131z" class="cls-1" style="fill:#000;fill-opacity:1;stroke-width:13.6503"/><path id="path52-1" d="M241.595 410.338s1.284 6.743-8.19 6.743c-9.473 0-9.2-20.353-3.644-20.353 5.555 0 11.834 11.003 11.834 13.61z" class="cls-1" style="fill:#000;fill-opacity:1;stroke-width:13.6503"/><path id="path54-6" d="M221.202 412.904s-10.388-7.29-10.811-13.063c-.423-5.774 5.242-4.983 9.746-4.983 4.505 0 3.426 15.917 1.065 18.046z" class="cls-1" style="fill:#000;fill-opacity:1;stroke-width:13.6503"/><path id="path56-9" d="M207.442 398.134s-.163 6.826-6.825 1.939c-6.661-4.887-2.034-9.228 1.365-9.228 3.4 0 5.46 1.324 5.46 7.29z" class="cls-1" style="fill:#000;fill-opacity:1;stroke-width:13.6503"/><path id="path58-5" d="M265.852 410.734s-.246 6.347 9.555 6.347 9.064-6.73 9.064-9.391a9.091 9.091 0 0 0-8.422-8.109c-5.31 0-8.108 6.361-10.197 11.153z" class="cls-1" style="fill:#000;fill-opacity:1;stroke-width:13.6503"/><path id="path60-7" d="M288.484 409.11s.41 6.947 8.436 5.132a10.675 10.675 0 0 0 9.801-10.92c0-4.26-6.101-5.133-10.197-5.133-4.095 0-8.04 5.146-8.04 10.92z" class="cls-1" style="fill:#000;fill-opacity:1;stroke-width:13.6503"/><path id="path62-5" d="M310.257 398.967s0 4.764 7.617 2.17c7.617-2.593 4.259-7.74 1.365-7.74s-8.982 2.321-8.982 5.57z" class="cls-1" style="fill:#000;fill-opacity:1;stroke-width:13.6503"/></g></svg>