<svg xmlns="http://www.w3.org/2000/svg" viewBox="0 0 135.467 135.467"><path d="M38.52 130.667c-7.427-4.228-13.922-9.944-20.556-18.093-5.627-6.911-8.969-14.205-8.969-19.577 0-1.652 1.529-7.411 3.923-14.784 2.158-6.644 4.395-14.155 4.973-16.693 2.986-13.116 7.66-27.523 9.655-29.754.34-.382 2.465-3.452 4.72-6.823 4.262-6.37 9.61-11.524 14.936-14.391 16.86-9.077 21.441-9.458 34.772-2.893 9.414 4.637 15.05 9.295 19.945 16.484 2.134 3.135 4.093 5.847 4.354 6.028 1.707 1.182 6.822 16.18 9.774 28.658.591 11.482 9.551 23.567 10.424 34.274-.542 3.813-2.037 6.744-2.822 8.242-.607 3.478-12.454 18.988-16.8 21.994-.977.676-3.673 2.586-5.99 4.244-3.857 2.76-8.21 5.097-8.21 4.408 0-.156 3.12-3.412 6.93-7.236 7.903-7.929 10.94-11.49 14.462-16.953 4.492-6.968 6.662-17.364 5.058-24.223-1.64-7.006-9.314-24.337-12.117-27.361-2.827-3.051-7.526-11.732-9.117-16.844-2.78-8.934-7.707-15.911-13.266-18.787-9.297-4.81-28.926-4.135-36.596 1.259-4.636 3.26-9.777 11.328-11.371 17.843-.414 1.689-1.159 3.901-1.656 4.916C33.242 48.14 27.894 56.6 27.392 56.6c-.87 0-8.435 16.02-10.456 22.143-3.239 9.818-2.185 19.305 3.143 28.295 2.397 4.045 7.023 9.983 7.447 9.56.126-.126 1.683 1.624 3.46 3.888 1.776 2.265 5.024 5.633 7.217 7.484 5.34 4.507 5.472 5.632.317 2.697zM23.86 57.522c1.724-2.706 3.392-5.086 3.707-5.288 1.522-.975 5.621-8.81 7.048-13.473 2.02-6.603 4.283-11.102 7.687-15.287 4.93-6.061 11.775-8.357 24.822-8.326 13.938.033 20.594 2.225 25.29 8.329 3.043 3.954 6.366 10.752 7.621 15.592.834 3.215 4.357 10.115 6.007 11.765 1.154 1.155 7.514 10.588 7.542 11.187.01.232.451.976.98 1.652.904 1.16.94 1.091.633-1.23-1.032-7.798-7.214-28.006-8.935-29.205-.253-.176-1.219-1.696-2.147-3.378C98.54 19.764 92.642 14.41 80.348 8.29c-5.343-2.66-8.084-3.352-13.283-3.356-5.093-.003-9.615 1.38-15.566 4.762-2.233 1.27-4.336 2.418-4.675 2.551-2.027.802-11.38 9.046-11.38 10.032 0 .263-.986 1.772-2.192 3.352-1.206 1.58-2.903 4.282-3.771 6.003-.869 1.721-1.803 3.274-2.077 3.45-1.085.7-6.94 20.417-7.942 26.744-.564 3.56-.693 3.686 4.397-4.306zm37.968 71.387c-7.635-4.308-14.08-10.146-14.08-12.754 0-.616-.234-1.12-.52-1.12-.719 0-2.964-7.953-3.82-13.533-.39-2.537-1.296-5.858-2.014-7.38-2.736-5.798-1.193-16.47 3.123-21.598 1.579-1.877 1.643-1.893 6.718-1.682 5.863.243 6.4-.331 3.514-3.76-2.654-3.154-4.782-3.93-9.422-3.437-2.22.236-4.654.438-5.408.448-1.205.018-1.287.179-.677 1.338.38.725 1.349 2.107 2.15 3.071 1.459 1.752 1.459 1.754.286 3.69-.645 1.066-1.797 3.674-2.56 5.795-1.157 3.22-1.33 4.663-1.052 8.733.324 4.715.295 4.851-.865 4.14-2.168-1.331-4.736-7.691-5.5-13.62-.995-7.73.397-17.381 2.906-20.14 1.235-1.359 3.398-7.084 6.464-17.108 1.975-6.461 6.304-10.362 8.526-7.685.423.51 2.049 1.3 3.612 1.754l2.843.826.4 3.321c.22 1.827.428 4.722.462 6.433.058 2.977.207 3.238 3.403 5.998 3.19 2.755 3.51 2.885 7.087 2.885 3.689 0 3.794-.048 7.114-3.264l3.37-3.264v-11.83l2.307-.738c1.269-.405 3.332-1.301 4.585-1.99l2.278-1.252 2.797 2.29c1.538 1.261 2.796 2.627 2.796 3.037 0 2.16 5.742 18.392 7.06 19.96 1.003 1.19 1.907 3.623 2.7 7.263 2.075 9.53.175 21.753-4.079 26.233-.883.93-1.79 1.692-2.017 1.692-.226 0-.132-1.416.21-3.146.812-4.105-.168-9.448-2.66-14.51l-1.878-3.816 1.87-2.581c2.237-3.089 2.264-3.283.485-3.448a547.09 547.09 0 0 1-5.123-.527c-4.852-.519-8.26 1.047-10.092 4.637-.681 1.336-1.239 2.51-1.239 2.61 0 .102 2.181.085 4.846-.036 2.875-.13 5.377.064 6.152.479 1.11.593 4.38 5.942 4.38 7.162 0 .22-.9.263-2 .098-1.099-.165-4.074.242-6.611.903-4.656 1.214-5.23 1.183-10.368-.558-.556-.189-.187.454.822 1.428 1.718 1.659 2.153 1.77 6.895 1.77 6.655 0 7.31.572 6.388 5.565-.364 1.97-.654 4.29-.643 5.16.03 2.493.933.353 1.856-4.398.623-3.204.64-4.487.079-5.719-.398-.873-.724-1.852-.724-2.174 0-1.071 2.246-.606 3.856.798 2.848 2.483 2.761 5.8-.397 15.224-.51 1.522-1.235 4.567-1.611 6.766-1.024 5.986-3.618 14.118-4.964 15.563-.654.702-1.19 1.449-1.19 1.66 0 .21-2.807 2.3-6.239 4.643-6.128 4.185-6.317 4.264-10.61 4.43-2.985.117-4.88-.117-5.977-.735zm10.803-15.818c.862-.393 1.59-.877 1.617-1.077.438-3.18.263-3.808-.951-3.429-4.979 1.556-8.063 1.541-12.23-.058-.498-.19-.744.383-.73 1.707.016 1.5.403 2.19 1.559 2.774 1.932.978 8.655 1.03 10.735.083zm-2.622-7.746c.243-2.939 1.699-3.237 6.773-1.386 3.563 1.299 5.412 1.307 5.412.023 0-.349-.375-.634-.833-.634-.458 0-1.6-.712-2.538-1.58-4.235-3.926-5.745-4.481-11.7-4.302-3.044.092-5.756.208-6.025.257-.27.049-1.754 1.334-3.298 2.857-1.545 1.522-3.33 2.768-3.97 2.768-.638 0-1.161.285-1.161.634 0 1.253 1.744 1.258 5.434.016 5.38-1.812 6.25-1.71 6.262.734.013 2.429.527 3.31 2.144 3.666 2.097.462 3.295-.583 3.5-3.052zm-.094-14.635c.434-.523 1.09-.838 1.46-.7.368.139 1.362.443 2.208.676l1.537.425-1.452-1.263c-1.83-1.592-3.278-1.602-4.699-.033-.612.677-1.442 1.23-1.845 1.23s-1.233-.553-1.845-1.23c-1.402-1.549-2.258-1.548-4.084.003l-1.452 1.234 1.778-.636c1.37-.49 2.075-.428 3.075.272 1.712 1.198 4.334 1.209 5.32.022zm-6.202-21.5c.042-4.417-3.684-8.823-8.737-10.33-4.536-1.352-9.073-1.896-9.073-1.088 0 .36 1.116.653 2.48.653 3.482 0 6.378 1.373 9.788 4.64 3.433 3.29 4.627 6.36 3.715 9.542-.91 3.173-.69 3.596.625 1.196.648-1.184 1.189-3.26 1.202-4.614zm9.134 3.822c-.523-1.706-.515-2.867.034-4.7 1.388-4.633 7.966-9.771 12.696-9.917 1.015-.031 2.4-.313 3.076-.626 1.845-.855-4.86-.065-8.824 1.039-5.94 1.654-10.135 7.554-8.766 12.329.643 2.24 1.908 4.712 2.242 4.379.13-.131-.075-1.258-.458-2.504zm-14.294-3.765c.643-2.56-2.012-5.64-5.884-6.826-.846-.26-1.741-.78-1.99-1.157-.319-.484-.454-.462-.461.074-.005.419.913 1.146 2.04 1.617 2.628 1.098 4.717 3.76 4.717 6.01 0 2.141 1.064 2.331 1.578.282zm21.745-5.25c.978-.696 2.128-1.266 2.555-1.266.427 0 .613-.164.413-.364-1.366-1.366-7.223 3.387-7.223 5.86 0 2.81.823 2.707 1.673-.207.511-1.753 1.45-3.218 2.582-4.023zm-35.062-5.964c.577-.502-4.015-.16-4.837.36-.576.364.075.44 1.845.213 1.505-.193 2.851-.45 2.992-.573zm47.863.02c-.204-.204-.734-.226-1.178-.048-.491.196-.345.342.371.371.649.027 1.012-.118.807-.323zm-3.158 55.732c.242-.846.642-2.43.89-3.518.249-1.09 1.565-3.246 2.927-4.792 1.967-2.234 2.56-3.47 2.886-6.017.58-4.52 1.46-7.693 2.272-8.195.483-.299.562.021.26 1.05-.24.815-.838 3.695-1.33 6.401-.983 5.401-3.537 11.117-6.46 14.456-1.697 1.938-1.84 2-1.445.615zm-47.802-2c-2.766-3.754-4.168-7.176-5.164-12.609-.48-2.622-1.06-5.46-1.285-6.305-.306-1.142-.23-1.37.296-.883.39.36 1.115 2.974 1.614 5.81.77 4.385 1.218 5.481 2.994 7.341 1.148 1.203 2.36 2.74 2.695 3.417.743 1.507 1.565 5.844 1.108 5.844-.183 0-1.199-1.177-2.258-2.614zm50.3-11.015c.26-2.37.788-3.715 1.897-4.823l1.538-1.538-.416 1.845c-1.046 4.649-1.65 6.37-2.482 7.059-.772.64-.846.29-.537-2.543zm-51.254 1.888c-.396-.481-.88-1.634-1.076-2.563-.197-.928-.501-2.38-.677-3.226-.443-2.136.703-1.925 1.877.345 1.153 2.23 1.048 6.87-.124 5.444zm23.273-50.923c-1.045-.663.42-1.306 2.974-1.306.96 0 2.205.176 2.769.393 1.53.587-.104 1.433-2.77 1.433-1.184 0-2.522-.234-2.973-.52zm-4.57-3.357c-1.58-1.294-1.727-1.812-2.092-7.36l-.392-5.967h1.875c1.82 0 1.895.114 2.537 3.844.364 2.115.846 5.436 1.07 7.382.467 4.039-.124 4.453-2.998 2.1zm11.664.974c-.143-.254.187-3.506.732-7.227l.991-6.767h3.651l-.183 5.536c-.165 4.994-.34 5.702-1.787 7.228-1.576 1.663-2.895 2.14-3.404 1.23zm-6.857-1.538c-.165-.76-.602-3.598-.972-6.304-.37-2.707-.812-5.406-.984-5.998-.277-.958.202-1.076 4.344-1.076 3.32 0 4.65.22 4.642.769-.007.423-.413 3.537-.903 6.92-.49 3.383-.9 6.358-.91 6.612-.011.254-1.122.461-2.469.461-2.04 0-2.498-.23-2.748-1.384z" /></svg>