<svg xmlns="http://www.w3.org/2000/svg" xml:space="preserve"  viewBox="0 0 135.467 135.467"><g style="stroke:none"><path d="M109.686 109.535c-4.823.34-9.66-.458-11.16 2.212-2.344-1.157-4.394.238-6.51 1.07-4.182 1.735-5.023 1.9-4.851 7.884-2.061 2.202-3.224 4.378-2.662 12.335 1.395.023 3.432-.152 3.483 1.37v1.611l-3.433-.197v.355c1.844.17 4.608-.632 3.657 2.495h-3.722v1.334c.975.586 1.82 1.253 3.227 1.57l-.947 3.334c-.94-.467-1.806-1.2-2.258-2.043-.817-1.528-1.428-1.288-1.527.408-.843 4.281-1.1 8.408 1.548 11.766 1.928 2.001 2.377 2.741 2.71 5.356 1.327 7.132 1.671 11.37 4.582 13.636 1.185.962 2.046-.753 1.742 3.12.008 1.304.597 4.207 1.248 3.333.392-.628 1.031-1.195.903.344-.107 1.896 2.724 5.605 3.355 4.109.59-1.468 1.368.808 2.065 1.484 1.7 1.24 11.421 1.169 12.648 0 1.594-1.517 1.212-3.174 2.84-.732 1.578-.917 2.6-2.223 2.946-4 .08-.754-.165-2.193.796-1.076 1.314 1.958 1.15-3.775 1.355-5.807 5.704-2.336 5.074-10.647 6.646-15.831.55-3.925 6.605-3.343 4.109-15.487-.192-.972-.212-2.624-1.442-.451a8.31 8.31 0 0 1-2.086 2.043l-1.204-3.398c1.062-.373 2.12-.768 3.097-1.506-.444-6.155 1.572-16.824-1.764-17.38.516-4.87-.985-7.03-4.075-8.423-1.386-.515-1.749 1.396-1.48-1.16.5-.703-7.474-4.03-10.864-3.558-.912.156-.93 1.243-2.01.218-.291-.157-.473-.331-.962-.338zm4.298.966c2.691-.01 6.52 1.856 8.619 3.24l-.688 3.743 2.107-1.721c.534-.924 5.536 1.146 3.872 7.399 1.253.563 2.66.558 2.194 7.442-3.416-8.116-8.578-6.917-14.497-5.678-1.575.41-3.673 1.269-3.183-.086-.567.515-3.335 2.976-3.184.903-.284.505-.484 1.037-1.29 1.377-.841-.383-1.393-.91-1.893-1.463l-.173.817c-1.533-.449-2.994-.974-4.129-1.85l.129.861c-2.382-.52-4.452-1.51-6.496-2.538-.105.504-.178 1.014-.56 1.462-5.796-1.168-7.722 2.91-9.248 7.529-.6-2.695-.707-9.315 2.839-10.583-1.097-6.603.957-6.054 3.48-7.456 2.782-1.221 4.808-2.814 7.49-.373-.46-2.66 2.323-2.83 5.72-2.861 4.337.18 6.056-1 5.895 2.388.177-1.866 1.382-2.547 2.996-2.552zm-16.31 14.963c-.632 1.45-2.63 5.058-5.743 8.99 1.093-3.554 2.622-6.678 5.743-8.99zm3.549.3c.088 1.081-2.653 4.416-3.829 6.97 7.918-.62 16.57-.285 23.875.215-7.368.37-14.897.304-24.09.258-.73 1.322-1.668 2.507-2.56 3.721.33-1.262.552-2.524 1.205-3.786-.545.031-1.09-.048-1.635-.129.553-.087 1.065-.183 1.893-.215 1.638-3.389.62-2.726 5.14-7.033zm6.62 4.043c4.392.005 8.794.315 9.877.668-6.137.345-12.49.532-18.54 0 1.838-.49 5.248-.672 8.664-.668zm4.07 4.727c-.255 1.959-1.138 1.98-2.175 4.776-1.043-2.373.569-4.227 2.175-4.776zm-8.794.1c1.91.243 3.75 2.372 2.601 4.76-.824-2.949-1.859-2.635-2.6-4.76zm15.87 5.305c4.33 0 7.842 3.328 7.842 7.434 0 4.105-3.511 7.434-7.842 7.434-4.331 0-7.842-3.329-7.842-7.434 0-.579.072-1.156.214-1.718l-.008.006c-2.689-1.558-5.16-1.395-7.477 0 .14.56.211 1.135.211 1.712 0 4.105-3.51 7.433-7.841 7.433-4.332 0-7.843-3.328-7.843-7.433.001-4.082 3.475-7.4 7.782-7.431zm-16.67 1.484 1.237 2.162c2.663-.835 5.346-.998 8.066 0l1.097-2.162zm1.379 13.225c.484.587-.208.67-.183 1.187.218 1.208-.328 1.782-.174 2.04.213.354.92.26 1.634.85.79.654 1.42 1.633 2.651 1.764.603.03 1.406-.404 2.733-1.764 1.147-1.111 1.7-.019 1.217-2.586-.413-1.245.241-1.984.425-.79.01.599.12.473.274.03.157-.6.892.28 1.156.76l1.826 2.708c.593-.018.69.755 1.034 1.247l5.719 9.004c.497.872.88 1.76-.061 2.828-1.298-4.426-3.819-7.91-6.328-11.832-1.112-.151-1.468-1.703-3.315-3.65-.228 1.132 1.06 3.012-.974 3.254-1.182.127-.798 1.944-3.863 1.795-2.403.053-2.254-1.502-3.163-1.825-1.223-.11-2.181.07-1.795-2.981-3.393 4.795-7.172 9.235-9.156 15.33-1.269-1.655 1.433-5.45 2.86-7.421l4.35-6.753c1.528-2.106 1.813-2.436 3.133-3.195zm-10.373 2.16c.726.5-1.333 2.425-1.765 4.137.73 1.066 2.45 1.899 2.373 2.586-1.074-.15-1.884-.974-2.708-1.764-.46 1.218-1.015 2.32-1.733 3.224.165-1.284.555-2.547 1.034-3.802-.943-1.188-1.946-2.333-2.616-3.711 1.13.793 2.041 1.917 3.012 2.95.414-1.522 1.365-2.606 2.403-3.62zm13.836 5.144c.176.002.355.006.536.013 13.013.245 13.225 9.165 13.095 15.259-.008 1.28-.429 1.976-.62 1.884-.63-.361-1.261-.706-1.892-.947.321 2.205 1.033 4.491-1.334 6.13-.638-.705-1.258-1.425-2.15-1.914-.431 4.206-3.58 3.663-6.871 3.736-3.493-.077-7.02.792-7.778-3.736-2.157 4.18-4.058-.917-3.14-4.43-.756.188-1.31.68-1.915 1.096-1.816-7.99.947-17.202 12.069-17.09z" style="stroke:none;stroke-width:.132292;stroke-linecap:round;stroke-linejoin:round;stroke-opacity:1" transform="matrix(1.65981 0 0 1.65981 -111.093 -178.633)"/><path d="m99.074 170.375 7.179-1.977c1.025-.368 2.026-.321 3.011 0l6.875 2.008c2.332 1.73-1.455 6.03-2.768 3.406-1.778-2.532-10.198-2.065-11.681 0-.891 1.424-1.715.904-2.525 0-.85-.863-.366-2.186-.091-3.437zM110.177 125.066c3.357-2.773 4.206-6.453 2.616-11.011.09 4.193-.841 7.832-2.616 11.011zM113.462 124.17l1.886-2.313.273.061c1.606-2.254 1.901-4.964 2.221-7.665-.038 2.424.452 4.55-2.099 8.395l-.426-.121zM103.954 116.473l.474-.172c2.18 2.813 2.334 5.565 2.688 8.324.441-4.244.225-8.01-2.688-9.809l-.43-.021-2.388-1.785zM95.845 114.322c2.08 1.84 4.429 3.447 6.152 5.592l-.086.645c1.189 1.211 2.053 2.552 2.968 3.872-.609-1.438-1.207-2.88-2.15-4.151l.042-.58c-1.909-2.593-4.549-3.722-6.926-5.378zM92.124 117.484c1.937.757 4.002.786 5.786 2.409v.387c1.314.861 2.192 1.972 3.119 3.054-.67-1.027-1.096-2.11-2.237-3.033l.13-.387c-2.044-2.01-4.494-1.824-6.798-2.43z" style="stroke:none;stroke-width:.132292;stroke-linecap:round;stroke-linejoin:round;stroke-opacity:1" transform="matrix(1.65981 0 0 1.65981 -111.093 -178.633)"/></g></svg>