<svg xmlns="http://www.w3.org/2000/svg" xml:space="preserve" id="Layer_4_1_" x="0" y="0"  style="enable-background:new 0 0 37 37" version="1.1" viewBox="0 0 37 37"><style>.st0{}</style><path id="path4" d="m29.6 7.7.4-1.2-1.7-1.7v-.7L22.1.4h-7.2L8.8 4.1v.7L7 6.5l.4 1.3-1.2 1s3.5 9.6 3.5 11.9c0 0 .4-2.9.4-4.4l-.7-.3-.6-4.1H8v-1l1.5-1.6-.7-1.6 2.9-2.2 1.6 1.8-.2-2.8 2.6-1.3.4.8 2.4-.9 2.4.9.5-.9L24 4.4l-.2 2.8 1.6-1.8 2.9 2.2-.7 1.7 1.5 1.6v1h-.8l-.7 4.1-.6.2c0 1.5.4 4.4.4 4.4 0-2.3 3.5-11.9 3.5-11.9l-1.3-1z" class="st0"/><path id="path6" d="M29.1 22.4c-.7 0-2.3 1.1-2.3 1.1v-1.8c0-.3-.2-.5-.4-.7-.2-.1-.3-.3-.1-.3.3 0 .5-.6.2-.6s-1.1-.8-.5-.8 0-1.7 0-1.7c-.3-.3-.7-.5-1.2-.6 0 .8 0 1-.5 1.5-.6.6-1.6 1.3-1.6 1.3s-1.6-.7-1.6-1.2.1-.9.4-1.3c.3-.3.8-.6 1-.4.2.2-.6.5-.6.8 0 .3.4.8.7.8.3 0 .9-.4.9-1 0-.2-.2-.6-.4-.9-1.6-.2-3.2 0-3.2 0l-.6.5h-1.8l-.5-.5s-2.6-.2-4.5.2c-.3-.4-.7-1-.7-1.4 0-.5.5-1 .9-1 .3 0 .7.5.7.8 0 .3-.8.6-.6.8.2.2.7-.1 1-.4.3-.3.4-.8.4-1.3s-1.6-1.2-1.6-1.2-1 .7-1.6 1.3c-.6.6-.5.8-.5 1.7 0 .5.3.9.6 1.1-.1.1-.2.1-.3.2 0 0-.6 1.7 0 1.7s-.1.8-.5.8-.1.6.2.6c.2 0 .1.2-.1.3-.2.2-.4.4-.4.7v1.8s-1.6-1.1-2.3-1.1-.8.7-.6 1c.2.2.6 1.2.6 1.5 0 .4.8 1.7 1 1.9s.4.9.4 1.1c0 .1.8.6 1.3.9.3.1.5.4.6.7l.4 1.2c.3 1 .9 2 1.7 2.7l2.4 2.1c.7.6 1.5 1 2.4 1.1l.4.1h.3l.4-.1c.9-.1 1.7-.5 2.4-1.1l2.4-2.1c.8-.7 1.4-1.6 1.7-2.7l.4-1.2c.1-.3.3-.5.6-.7.5-.3 1.3-.8 1.3-.9 0-.2.2-.9.4-1.1s1-1.6 1-1.9c0-.4.4-1.3.6-1.5.2-.1 0-.8-.7-.8zM10 27c-.3.3-1.2-.8-1.2-1.1s.3-1.4-.6-2.3c0 0 1.4 1.4 1.4 1.7 0 .4-.4.6-.2.8.3.4.9.6.6.9zm9.9-3.5s.2-.5.8-.5 3.8-.9 4.1-.6.9.8.5.8-.4-.2-.9-.2c-.6 0-2.2.2-2.5.5-.3.3-1.9 1.3-1.9 2.1v-2.1zm-1.4 5.6s1.6-.1 1.6-.3c0-.2-.2-1.2-.1-1.3s.6.5.6.6.1.6-.3 1-.8.4-1.9.4-1.5 0-1.9-.4c-.4-.4-.3-.9-.3-1s.6-.7.6-.6-.1 1.1-.1 1.3c.2.3 1.8.3 1.8.3zm-6.3-6.7c.3-.3 3.5.6 4.1.6s.8.5.8.5v2.1c0-.8-1.6-1.8-1.9-2.1-.3-.3-2-.5-2.5-.5-.6 0-.5.2-.9.2s.1-.5.4-.8zm-.1 2.4s-.1-.7-.6-.7c0 0 .7-.1 1.3-.1h2s1.5.7 1.5 1.3c0 0-.3-.3-.5 0-.3.3-1.4.3-1.8.3-.4 0-1.4-.4-1.9-.8zm8.9 7.6c-.4.4-.5 1.1-1.1 1.1h-2.8c-.6 0-.7-.7-1.1-1.1-.4-.4-.8-.4-.8-.4s1.3-1 2.1-1 1.1.6 1.1.6.3-.6 1.1-.6 2.1 1 2.1 1-.2 0-.6.4zm3.9-7.6c-.5.5-1.5.8-1.9.8-.4 0-1.5-.1-1.8-.3-.3-.3-.5 0-.5 0 0-.6 1.5-1.3 1.5-1.3h2c.6 0 1.3.1 1.3.1-.5-.1-.6.7-.6.7zm3.3 1.2c0 .3-.9 1.4-1.2 1.1-.3-.3.3-.5.5-.8.2-.2-.2-.5-.2-.8 0-.4 1.4-1.7 1.4-1.7-.8.7-.5 1.9-.5 2.2z" class="st0" /><path id="path8" d="M14.5 24.3h-.8c-.1.1-.2.3-.2.4 0 .3.3.6.6.6s.6-.3.6-.6c0-.2-.1-.3-.2-.4z" class="st0" /><path id="path10" d="M22.5 24.3h.8c.1.1.2.3.2.4 0 .3-.3.6-.6.6s-.6-.3-.6-.6c0-.2.1-.3.2-.4z" class="st0" /></svg>