<svg xmlns="http://www.w3.org/2000/svg" xml:space="preserve" id="Layer_4_1_" x="0" y="0" style="enable-background:new 0 0 37 37" version="1.1" viewBox="0 0 37 37"><style id="style2" type="text/css">.st0{}</style><path id="path4" d="M8.2 28.8v-1.1s.4-1.1 1.5-1.1 1.4 1 1.4 1.5.5.7.5 1.5-.7 1.2-1.4 1.2c-.6.1-2-.3-2-2z" class="st0" /><path id="path6" d="M28.8 28.8v-1.1s-.4-1.1-1.5-1.1-1.4 1-1.4 1.5-.5.7-.5 1.5.7 1.2 1.4 1.2 2-.3 2-2z" class="st0" /><path id="rect8" d="M18.3 28.4h.4v2.5h-.4z" class="st0" /><path id="rect10" d="M17.5 28.4h.4v2.5h-.4z" class="st0" /><path id="rect12" d="M19 28.4h.4v2.5H19z" class="st0" /><path id="rect14" d="M18.3 18.5h.4v2.7h-.4z" class="st0" /><path id="rect16" d="M17.5 18.5h.4v2.7h-.4z" class="st0" /><path id="rect18" d="M19 18.5h.4v2.7H19z" class="st0" /><path id="path20" d="M31.1 21.7c-.1-1-.3-2.7-.3-3.4 0-1.1-.9-1.1-.9-1.1s-.8-.6-.3-1.1c.5-.5.4-.9.4-.9l-.7-3c-3.4.4-6.2 1.9-7.8 2.7l-.1.1c-.7.4-1.5.6-2.3.6h-1c-.8 0-1.6-.2-2.3-.6h-.3c-1.6-.8-4.4-2.3-7.8-2.7l-.7 3s0 .4.4.9c.5.5-.3 1.1-.3 1.1s-.9 0-.9 1.1c0 .7-.2 2.4-.3 3.4-.1.6.1 1.2.5 1.6 1 1 2.8 2.6 3.7 2.6 1.4 0 1.4 0 1.4.9s.6 1.8.9 1.8c.3 0 1-.3 1.4-.3.4 0 1 0 1 1s-.8 1.3-.8 2.3c0 1 1.3 2.7 4.5 2.7s4.5-1.7 4.5-2.7c0-1-.8-1.3-.8-2.3 0-1 .6-1 1-1s1.1.3 1.4.3c.3 0 .9-1 .9-1.8s0-.9 1.4-.9c1 0 2.8-1.7 3.7-2.6.4-.5.6-1.1.5-1.7zm-10.6 9.4c0 .8-.6 1.4-1.4 1.4h-1.2c-.8 0-1.4-.6-1.4-1.4v-2.6c0-.8.6-1.4 1.4-1.4h1.2c.8 0 1.4.6 1.4 1.4v2.6zm2.8-7.2s-1.3 0-2.3-1-1.4-1-2.5-1-1.5 0-2.5 1-2.3 1-2.3 1c-1.6 0-4.5-1.4-4.5-4.6s2.2-3.7 2.2-3.7h.6c.7.7 5.6 2.3 5.6 2.3h2s4.9-1.6 5.6-2.3h.6s2.2.5 2.2 3.7-3 4.6-4.7 4.6z" class="st0" /><path id="path22" d="M35.1 9.6c-2.2 0-12.8-4.7-12.8-4.7s1-1.1.2-1.9c-.8-.8-1.5 3.5-2.1 3.5-.5 0-.4-.8 0-1.3.4-.4 1.2-2.7 1-3-.2-.2-1.1-.5-1.1.1s-.9 2.3-1 2.3c-.1 0-.3-1.9.2-2.5.6-.6-.5-.9-1.1-.9s-1.7.4-1.1.9c.6.6.4 2.5.2 2.5-.1 0-1-1.7-1-2.3 0-.6-.9-.3-1.1-.1-.2.2.6 2.5 1 3 .4.4.5 1.3 0 1.3S15.1 2.3 14.3 3s.2 1.9.2 1.9S4.1 9.6 1.9 9.6s-1.4 1.2-1.2.9c.2-.2 3.9.6 4.9.8.2 0 .3 0 .5.1 4.3.1 7.9 1.9 9.9 2.9l.1.1c.6.3 1.3.5 2 .5h1c.7 0 1.4-.2 2-.5l.1-.1c2-1 5.6-2.8 9.9-2.9.2 0 .3 0 .5-.1 1-.2 4.8-.9 4.9-.8.1.2.9-.9-1.4-.9zm-7.4-.3-5.9 2.2h-1.4c-.1-.1-.2-.9.3-1.4.5-.5 0-.8 0-.8h-4.4s-.5.3 0 .8.4 1.2.3 1.4h-1.4L9.3 9.3v-.5s4.3-2.5 5.9-2.5c0 0 .9 1 1.4 1 .5 0 .5-.4 2-.4s1.5.4 2 .4 1.4-1 1.4-1c1.6 0 5.9 2.5 5.9 2.5v.5z" class="st0" /><path id="path24" d="m16.4 17.8-.6-.1v.5c.2.4.3.8.3 1.3 0 1.5-1.2 2.7-2.7 2.7s-2.7-1.2-2.7-2.7c0-1.1.7-2 1.6-2.4l.4-.4-.6-.2c-1.2.6-2 1.8-2 3.2 0 2 1.5 3.5 3.4 3.5s3.4-1.6 3.4-3.5c0-.8-.2-1.4-.5-1.9z" class="st0" /><path id="path26" d="m20.6 17.8.6-.1v.5c-.2.4-.3.8-.3 1.3 0 1.5 1.2 2.7 2.7 2.7 1.5 0 2.7-1.2 2.7-2.7 0-1.1-.7-2-1.6-2.4l-.4-.4.6-.2c1.2.6 2 1.8 2 3.2 0 2-1.5 3.5-3.4 3.5s-3.4-1.6-3.4-3.5c0-.8.2-1.4.5-1.9z" class="st0" /><path id="path28" d="M1.1 11.6s-.9 2.3-.3 2.9c.6.6-.2.5-.2.9s0 2.1.5 2.1.7-1.3.7-1.6c0-.3-.4-.6-.4-1.2s.4-.6.4-1.3-.1-1.8-.7-1.8z" class="st0" /><path id="path30" d="M4.1 12.1s.8 1.2.8 2.2-.4.4-.4 1.7.3 1 .3 1.7S4.3 19 4 19s-.9-.4-.9-1.4.6-.2.6-.7c0-.5-.1-1.7-.4-2s.1-2.2.8-2.8z" class="st0" /><path id="path32" d="M33 12s.1.9.8 1.6c0 0 .3.9-.4 1.6 0 0-.5 1.3-.1 1.6.4.4 1.1.5.4 1.2-.8.8-.4.8-.2 1 .2.2-.2.9.1 1.2.2.2.8.2-.2 1.2 0 0-1 .2-1.5-.3 0 0-.2-.4.4-1 .6-.6.4-1.4.1-1.6-.2-.2-.6-1.1-.1-1.6s.1-1.9-.1-2.1c-.2-.2.1-2 .8-2.8z" class="st0" /><path id="path34" d="M32.8 22.1s.3.7.6.7.2-.9-.2-.9-.4 0-.4.2z" class="st0" /><path id="path36" d="M35.5 11.6s-.4 0-.4 2 .3 2-.1 2.4c-.5.5.5.5.5.9s-.5 1-.5 1.3.5.8.8.8c.2 0 .4-.3.4-1.3 0 0-.5-.8 0-1.3s.2-1-.3-1.4c-.4-.4.5-.9.5-1.3-.1-.5-.4-2.1-.9-2.1z" class="st0" /><g id="g56" ><path id="path38" d="M12.7 31.1c.1-.1.1-.3.2-.4-.2-.2-.5-.4-.9-.4 0 0 .5.4.7.8z" class="st0" /><path id="path40" d="M12.5 31.7c0-.2 0-.3.1-.5-.2-.1-.5-.3-1-.3 0 .1.6.5.9.8z" class="st0" /><path id="path42" d="M12.6 32.1c-.4-.2-.9-.4-1.1-.2 0 0 .7.3 1.2.6-.1-.1-.1-.3-.1-.4z" class="st0" /><path id="path44" d="M14.1 29.7c-.1-.2-.4-.5-.8-.5 0 0 .2.4.3.9.2-.3.4-.4.5-.4z" class="st0" /><path id="path46" d="M13.5 30.1c-.2-.2-.6-.5-.9-.5 0 0 .3.4.5.9.1-.1.2-.3.4-.4z" class="st0" /><path id="path48" d="M12.6 32.8c-.3-.1-.9-.1-1.3.3 0 0 .9 0 1.4.2 0-.2 0-.4-.1-.5z" class="st0" /><path id="path50" d="M13.8 34.8c-.2.4-.5.9-.4.9.2.1 1.1.2 1.1-.1v-.5c-.2 0-.5-.1-.7-.3z" class="st0" /><path id="path52" d="M13.7 34.7c-.2-.1-.3-.3-.4-.5-.2.4-.7.9-.6 1.1.1.2.4-.1 1-.6z" class="st0" /><path id="path54" d="M13 33.9c-.1-.2-.2-.4-.2-.5-.4 0-1.1 0-1.1.2 0 .4.6 0 .5.3-.1.3-.2.9.1.8.2-.1.5-.6.7-.8z" class="st0" /></g><g id="g66" ><path id="path58" d="M23.5 31.3c.6-.3 1.3-.8 1-1.1-.3-.3-.9 0-1.4.3.1.3.2.5.4.8z" class="st0" /><path id="path60" d="M23 30.6c.4-.4.9-1 .6-1.2-.3-.3-.8.5-1 .8.2.1.3.2.4.4z" class="st0" /><path id="path62" d="M23.6 34.2c-.1.2-.2.3-.4.5.5.6 1 1 1.3.6.5-.5-.3-.9-.9-1.1z" class="st0" /><path id="path64" d="M23.9 32.8c.7.2 1.3.3 1.3-.1 0-.5-.7-.6-1.5-.6.8-.2 1.7-.4 1.3-.7-.3-.3-1-.2-1.6 0 .2.5.3 1.1.3 1.9 0 .2 0 .4-.1.5.5.4 1 .6 1.3.3.5-.3-.2-.8-1-1.3z" class="st0" /></g></svg>