<svg xmlns="http://www.w3.org/2000/svg" xmlns:xlink="http://www.w3.org/1999/xlink" version="1.1" width="75" height="100" viewBox="0 0 75 100" xml:space="preserve">
<g transform="matrix(0.105 0 0 0.105 37.315 50.0843)" id="930845">
<path style="stroke: none; stroke-width: 1; stroke-dasharray: none; stroke-linecap: butt; stroke-dashoffset: 0; stroke-linejoin: miter; stroke-miterlimit: 4; is-custom-font: none; font-file-url: none; fill: rgb(255,255,255); fill-rule: evenodd; opacity: 1;" vector-effect="non-scaling-stroke" transform=" translate(-352.6844, -476.5398)" d="M 308.59375 9.183594 C 263.113281 21.511719 227.390625 40.414062 197.617188 67.921875 C 188.121094 76.6875 175.824219 83.484375 165.113281 85.875 C 14.878906 119.441406 -40.894531 337.386719 37.441406 584.773438 C 53.726562 636.207031 61.605469 656.945312 83.074219 704.875 C 120.367188 788.132812 121.367188 788.714844 103.242188 716.558594 C 73.96875 600.050781 66.75 504.585938 83.503906 455.636719 C 89.226562 438.917969 90.941406 421.835938 91.316406 377.75 C 92.039062 293.023438 99.390625 292.210938 100.546875 376.730469 C 101.367188 436.628906 100.472656 448.441406 93.445312 470.875 C 81.644531 508.535156 82.324219 547.484375 95.417969 584.148438 C 101.15625 600.214844 109.476562 624.75 113.910156 638.671875 C 118.34375 652.59375 123.25 664.859375 124.816406 665.929688 C 126.378906 667.003906 130.523438 676.355469 134.023438 686.71875 C 137.523438 697.078125 146.589844 714.171875 154.175781 724.695312 C 161.761719 735.222656 167.96875 745.265625 167.96875 747.019531 C 167.96875 750.597656 244.855469 826.464844 251.554688 829.492188 C 253.921875 830.566406 266.261719 838.449219 278.972656 847.019531 C 332.738281 883.253906 382.140625 868.894531 458.113281 794.953125 C 479.308594 774.324219 499.160156 756.046875 502.230469 754.332031 C 505.300781 752.621094 507.8125 749.253906 507.8125 746.851562 C 507.8125 744.449219 510.328125 739.714844 513.402344 736.328125 C 516.472656 732.941406 521.84375 724.917969 525.328125 718.496094 C 532.382812 705.5 531.40625 734.46875 523.171875 782.449219 C 518.210938 811.363281 520.109375 811.023438 541.339844 779.191406 C 563.605469 745.808594 564.226562 745.988281 554.457031 782.910156 C 550.226562 798.890625 540.597656 839.132812 533.058594 872.332031 C 525.515625 905.53125 518.257812 936.183594 516.921875 940.453125 C 503.515625 983.34375 585.460938 849.714844 613.625 782.761719 C 618.582031 770.980469 624.175781 760.285156 626.054688 758.992188 C 627.933594 757.699219 630.945312 750.6875 632.746094 743.414062 C 634.546875 736.140625 640.683594 714.960938 646.378906 696.355469 C 652.078125 677.746094 658.9375 644.453125 661.628906 622.363281 L 666.519531 582.203125 L 669.527344 626.015625 C 672.527344 669.753906 676.667969 681.085938 680.90625 657.171875 C 682.144531 650.207031 687.640625 619.980469 693.121094 589.992188 C 721.734375 433.527344 687.570312 226.011719 621.574219 155.390625 C 617.78125 151.332031 610.578125 139.683594 605.566406 129.5 C 594.875 107.785156 535.585938 47.726562 515.625 38.390625 C 475.542969 19.640625 464.40625 15.378906 441.289062 9.949219 C 410.824219 2.789062 333.824219 2.347656 308.59375 9.183594 M 448.566406 42.441406 C 528.6875 74.742188 565.703125 111.125 611.40625 202.503906 C 617.296875 214.285156 623.378906 224.800781 624.921875 225.871094 C 644.070312 239.175781 676.574219 385.222656 675.441406 452.867188 L 675.101562 473.160156 L 665.980469 442.007812 C 660.964844 424.871094 652.242188 397.707031 646.597656 381.644531 C 640.957031 365.582031 634.539062 346.578125 632.335938 339.414062 C 630.136719 332.253906 627.1875 327.539062 625.789062 328.933594 C 624.386719 330.332031 621.320312 325.78125 618.96875 318.824219 C 610.867188 294.839844 606.8125 303.464844 613.742188 329.949219 C 617.539062 344.460938 620.746094 361.003906 620.867188 366.71875 C 620.992188 372.429688 622.539062 377.6875 624.304688 378.402344 C 629.65625 380.566406 644.632812 494.148438 644.5 531.578125 C 644.339844 577.078125 632.246094 663.988281 625.261719 669.824219 C 623.976562 670.894531 616.882812 691.050781 609.492188 714.609375 C 597.398438 753.164062 584.515625 786.359375 570.953125 813.917969 C 568.320312 819.269531 567.101562 820.433594 568.246094 816.5 C 599.855469 707.871094 619.546875 582 616.109375 510.597656 C 611.492188 414.632812 572.683594 278.292969 531.742188 214.1875 C 474.351562 124.328125 320.503906 39.664062 272.082031 71.296875 C 261.136719 78.449219 258.414062 85.621094 266.601562 85.753906 C 273.144531 85.863281 302.28125 112.644531 332.1875 146.039062 C 345.609375 161.03125 362.191406 179.433594 369.03125 186.929688 C 383.507812 202.800781 410.15625 240.824219 410.15625 245.609375 C 410.15625 247.417969 415.058594 257.296875 421.046875 267.5625 C 448.035156 313.820312 481.175781 410.335938 492.316406 475.109375 C 495.078125 491.171875 498.648438 506.070312 500.246094 508.210938 C 501.84375 510.351562 505.160156 528.6875 507.613281 548.957031 C 514.398438 604.9375 517.417969 600.265625 523.078125 525.046875 C 529.238281 443.113281 514.886719 287.890625 500.09375 276.5 C 498.703125 275.425781 494.496094 263.070312 490.746094 249.035156 C 486.996094 235.003906 479.652344 216.019531 474.425781 206.847656 L 464.925781 190.171875 L 486.085938 208.996094 C 569.394531 283.101562 610.535156 536.78125 563.035156 683.457031 L 555.46875 706.820312 L 554.78125 683.457031 C 553.570312 642.042969 544.382812 569.972656 541.378906 578.308594 C 518.371094 642.160156 504.5 672.265625 504.144531 659.117188 C 504.011719 654.296875 502.472656 650.355469 500.71875 650.355469 C 498.96875 650.355469 495.378906 629.761719 492.75 604.597656 C 488.667969 565.546875 474.199219 483.441406 470.757812 479.777344 C 467.898438 476.738281 395.589844 477.484375 389.046875 480.625 C 382.183594 483.914062 381.785156 482.90625 383.855469 467.507812 C 386.847656 445.261719 403.648438 424.878906 428.949219 412.800781 C 447.847656 403.777344 449.191406 402.226562 447.285156 391.664062 C 444.46875 376.050781 445.335938 376.226562 415.980469 385.265625 C 383.476562 395.277344 378.90625 395.308594 378.90625 385.539062 C 378.90625 373.128906 392.089844 363.277344 415.765625 357.992188 C 427.839844 355.300781 437.140625 352.070312 436.425781 350.820312 C 435.714844 349.566406 431.972656 341.53125 428.109375 332.964844 C 421.894531 319.191406 405.125 285.574219 387.425781 251.40625 C 354.75 188.324219 257.566406 130.523438 207 144.097656 C 121.132812 167.148438 57.722656 271.273438 64.640625 377.863281 C 66.960938 413.636719 66.183594 422.824219 58.546875 449.90625 C 49.980469 480.296875 49.132812 530.082031 56.4375 574.414062 C 57.496094 580.839844 55.824219 576.457031 52.726562 564.679688 C -0.855469 361.035156 29.917969 178.765625 125.128906 135.867188 C 135.800781 131.058594 144.53125 125.960938 144.53125 124.539062 C 144.53125 121.097656 172.308594 112.9375 184.046875 112.929688 C 190.226562 112.925781 200.976562 105.234375 215.992188 90.070312 C 270.84375 34.675781 375.925781 13.160156 448.566406 42.441406 M 327.148438 45.523438 C 317.140625 48.128906 318.707031 58.414062 329.113281 58.414062 C 365.4375 58.414062 453.597656 99.277344 478.226562 127.53125 C 502.109375 154.925781 524.863281 162.707031 503.875 136.300781 C 499.617188 130.945312 490.265625 117.804688 483.09375 107.09375 C 451.933594 60.574219 379.355469 31.917969 327.148438 45.523438 M 232.527344 103.652344 C 224.546875 111.605469 226.660156 118.414062 237.609375 120.019531 C 242.277344 120.707031 246.09375 122.894531 246.09375 124.890625 C 246.09375 126.882812 248.789062 128.511719 252.082031 128.511719 C 260.015625 128.511719 295.542969 146.59375 311.628906 158.816406 C 332.84375 174.933594 329.976562 166.019531 304.839844 137.707031 C 271.332031 99.960938 247.492188 88.734375 232.527344 103.652344 M 220.421875 324.546875 C 224.460938 331.003906 218.820312 338.570312 209.839844 338.746094 C 205.179688 338.839844 201.996094 327.890625 204.660156 320.960938 C 207.484375 313.625 214.609375 315.246094 220.421875 324.546875 M 181.640625 329.019531 C 181.640625 337.609375 169.496094 341.886719 163.128906 335.539062 C 156.5625 328.996094 163.039062 318.648438 172.832031 320.035156 C 178.59375 320.851562 181.640625 323.957031 181.640625 329.019531 M 282.226562 364.179688 C 293.96875 369.96875 296.875 373.578125 296.875 382.367188 C 296.875 395.429688 296.652344 395.453125 260.769531 385.539062 C 245.265625 381.253906 228.589844 377.75 223.710938 377.75 C 218.835938 377.75 214.84375 376 214.84375 373.855469 C 214.84375 369.210938 167.292969 368.546875 161.914062 373.117188 C 159.875 374.851562 153.347656 378.328125 147.410156 380.84375 L 136.617188 385.417969 L 142.953125 375.777344 C 146.515625 370.355469 155.511719 364.550781 163.511719 362.503906 C 171.332031 360.503906 181.25 357.96875 185.546875 356.867188 C 203.90625 352.167969 267.644531 356.984375 282.226562 364.179688 M 239.5625 409.011719 C 273.53125 423.992188 292.96875 446.710938 292.96875 471.4375 C 292.96875 481.816406 291.902344 483.210938 286.132812 480.40625 C 282.375 478.578125 258.203125 477.074219 232.421875 477.070312 C 177.429688 477.054688 169.707031 474.265625 135.742188 442.160156 C 111.089844 418.855469 109.535156 416.445312 121.09375 419.460938 C 125.390625 420.582031 128.90625 419.703125 128.90625 417.511719 C 128.90625 415.320312 132.421875 414.445312 136.71875 415.566406 C 141.28125 416.757812 144.53125 415.683594 144.53125 412.992188 C 144.53125 410.386719 147.507812 409.304688 151.367188 410.503906 C 155.125 411.671875 166.113281 410.15625 175.78125 407.132812 C 200.632812 399.363281 218.90625 399.902344 239.5625 409.011719 M 192.382812 430.957031 C 179.277344 436.226562 197.804688 463.425781 214.5 463.425781 C 233.507812 463.425781 245.585938 440.335938 230.726562 432.40625 C 222.980469 428.277344 201.105469 427.445312 192.382812 430.957031 M 438.476562 430.957031 C 424.28125 436.664062 440.289062 463.425781 457.902344 463.425781 C 465.917969 463.425781 466.570312 457.839844 460.554688 440.640625 C 456.457031 428.921875 450.273438 426.210938 438.476562 430.957031 M 201.449219 506.261719 C 222.078125 506.261719 221.773438 504.792969 206.285156 529.632812 C 188.589844 558.011719 187.0625 596.367188 201.503906 649.773438 C 202.457031 653.304688 200.390625 650.0625 196.914062 642.566406 C 193.433594 635.070312 189.9375 625.582031 189.140625 621.480469 C 188.347656 617.378906 184.824219 605.390625 181.308594 594.835938 C 174.9375 575.714844 175 535.859375 181.421875 521.03125 C 183.609375 515.988281 181.90625 513.777344 174.382812 511.894531 C 165.972656 509.792969 165.132812 508.34375 168.855469 502.402344 C 172.613281 496.402344 174.035156 496.175781 178.699219 500.828125 C 181.722656 503.84375 191.855469 506.261719 201.449219 506.261719 M 296.273438 610.183594 C 302.230469 603.027344 311.234375 605.484375 325.976562 618.289062 L 336.140625 627.113281 L 346.464844 617.574219 C 360.773438 604.34375 374.484375 601.4375 380.996094 610.257812 C 385.347656 616.152344 386.464844 616.332031 388.082031 611.410156 C 389.140625 608.199219 390.886719 602.941406 391.960938 599.726562 C 393.039062 596.5 393.996094 598.242188 394.097656 603.621094 C 394.398438 619.492188 384.796875 629.523438 376.871094 621.621094 C 368.457031 613.234375 366.265625 613.585938 355.46875 625.039062 C 343.503906 637.738281 329.347656 637.394531 315.351562 624.066406 C 304.390625 613.628906 303.96875 613.546875 298.539062 620.917969 C 291.554688 630.398438 281.460938 620.125 281.550781 603.621094 C 281.601562 594.019531 281.667969 594.035156 286.398438 605.085938 C 290.628906 614.957031 291.796875 615.5625 296.273438 610.183594 M 337.890625 677.945312 C 344.335938 677.8125 356.640625 677.488281 365.234375 677.226562 C 374.246094 676.949219 389.507812 680.644531 401.292969 685.960938 L 421.722656 695.175781 L 403.691406 709.753906 C 363.515625 742.234375 309.625 741.371094 269.277344 707.601562 L 254.695312 695.398438 L 278.714844 684.507812 C 295.574219 676.863281 306.230469 674.296875 314.453125 675.898438 C 320.898438 677.15625 331.445312 678.074219 337.890625 677.945312 M 359.570312 773.125 C 374.582031 780.867188 374.308594 783.472656 359.042969 778.167969 C 352.242188 775.804688 337.34375 775.019531 324.859375 776.367188 C 304.191406 778.597656 303.378906 778.382812 312.5 773.109375 C 325.296875 765.707031 345.195312 765.714844 359.570312 773.125" stroke-linecap="round"/>
</g>
</svg>