<svg xmlns="http://www.w3.org/2000/svg" xml:space="preserve" id="Layer_4_1_" viewBox="0 0 38 38" x="0" y="0" version="1.1">
  <g id="g906">
    <path id="path4" d="m18.1 30.9-1.9 1c-.2.1-.3.2-.3.4V35c0 .3.1.6.4.8l1.1.9h.7z" class="st0" />
    <path id="path6" d="m18.9 30.9 1.9 1c.2.1.3.2.3.4V35c0 .3-.1.6-.4.8l-1.1.9h-.7z" class="st0" />
    <path id="path8" d="M18.1 30.1s-2.1.4-2.9 1.2l-1.6-4.1 1.4-3.3c.1-.3.4-.6.7-.8.5-.3 1.4-.7 2.4-.7z" class="st0" />
    <path id="path10" d="m14.6 31.6-1.7-4s-1.2-.9-1.5-.9c-.3 0-1.9.6-1.9 1.3 0 .7 2.5 6.2 2.5 6.2s.3.3.6.3 1.6-1.2 1.6-1.2.4-.6.4-1.7z" class="st0" />
    <path id="path12" d="M18.9 30.1s2.1.4 2.9 1.2l1.6-4.1-1.4-3.3c-.1-.3-.4-.6-.7-.8-.5-.3-1.4-.7-2.4-.7z" class="st0" />
    <path id="path14" d="m22.4 31.6 1.7-4s1.2-.9 1.5-.9c.3 0 1.9.6 1.9 1.3 0 .7-2.5 6.2-2.5 6.2s-.3.3-.6.3-1.6-1.2-1.6-1.2-.4-.6-.4-1.7z" class="st0" />
    <path id="path16" d="M10.7 13.8c.5.5 7.3.9 7.3.9v-1.3s-7-.5-7.6-.5c-.5 0-2.5 1.7-3 2.1-.1.1-.1.1-.1.2l-.8 6.5c0 .2.1.4.2.5l3.2 2c.3.2.5.2.8.2.9 0 2.8-.2 3.4-.7.7-.7 1.9-1.5 4-1.5v-.9h-1.3c-.8 0-3.2 1.2-4 1.6-.2.1-.4.1-.5.1l-4.1-1.2.3-5.8c0-.2.1-.4.2-.5.4-.7 1.6-2.1 2-1.7z" class="st0" />
    <path id="path18" d="M16.5 18.9s-2.9-2.5-4.1-2.5c-1.2 0-2-.3-2-.3s-.7.6 0 .6 2.1.8 2.1.8.1.7-.3.3c-.4-.4-1.1-.2-1.1-.2s-.3.1.1.5 1.4 1.4 1.8 1.4c.3 0 1.7-.5 2.1-.5.4 0 1.3.6 1.5.6.2 0 .9-.5.9-.8 0-.2-.5-.4-1 .1z" class="st0" />
    <path id="polygon20" d="M5.1 31 9 26.6v-1.3l-3.5 2.9z" class="st0" />
    <path id="polygon22" d="m8.7 25.1-2.9 1.8-2.6-1.1 3.1-2.7Z" class="st0" />
    <path id="path24" d="M26.3 13.8c-.5.5-7.3.9-7.3.9v-1.3s7-.5 7.6-.5c.5 0 2.5 1.7 3 2.1.1.1.1.1.1.2l.8 6.5c0 .2-.1.4-.2.5l-3.2 2c-.3.2-.5.2-.8.2-.9 0-2.8-.2-3.4-.7-.7-.7-1.9-1.5-4-1.5v-.9h1.3c.8 0 3.2 1.2 4 1.6.2.1.4.1.5.1l4.1-1.2-.3-5.8c0-.2-.1-.4-.2-.5-.4-.7-1.6-2.1-2-1.7z" class="st0" />
    <path id="path26" d="M20.5 18.9s2.9-2.5 4.1-2.5c1.2 0 2-.3 2-.3s.7.6 0 .6-2.1.8-2.1.8-.1.7.3.3c.4-.4 1.1-.2 1.1-.2s.3.1-.1.5-1.4 1.4-1.8 1.4c-.4 0-1.6-.5-2-.5-.4 0-1.3.6-1.5.6-.2 0-.9-.5-.9-.8-.1-.2.4-.4.9.1z" class="st0" />
    <path id="polygon28" d="M31.9 31 28 26.6v-1.3l3.5 2.9z" class="st0" />
    <path id="polygon30" d="m28.3 25.1 2.9 1.8 2.6-1.1-3.1-2.7z" class="st0" />
    <path id="path32" d="M18.1 8.8h-.4l-.9-1.1-3.1-.3-1.2-5S17.7.8 18.2.3v8.5z" class="st0" />
    <path id="path34" d="m13.2 7.8-1.8-5s-3.1.1-3.4-.3v4.3l-.6.4 2.3 4.2c.1 0 1.5-3.6 3.5-3.6z" class="st0" />
    <path id="path36" d="M9.6 12.1 6.8 7.3s-1.7 1-3.3 2.5l1.9 2.3-1.7 1 2.5 2.5.1-1.2z" class="st0" />
    <path id="polygon38" d="M6.1 16 5 15.2l-.3 1.5 1.2 1z" class="st0" />
    <path id="path40" d="m5.8 18.4-1.2-1.1s-.2 1.8-.6 2.2c0 0 1.3-.3 1.7-.3z" class="st0" />
    <path id="path42" d="M18.9 8.8h.4l.9-1.1 3.1-.3 1.2-5S19.3.8 18.8.3v8.5z" class="st0" />
    <path id="path44" d="m23.8 7.8 1.8-5s3.1.1 3.4-.3v4.3l.5.3-2.3 4.2c0 .1-1.4-3.5-3.4-3.5z" class="st0" />
    <path id="path46" d="m27.4 12.1 2.8-4.7s1.7 1 3.3 2.5l-1.9 2.3 1.7 1-2.5 2.5-.1-1.2z" class="st0" />
    <path id="polygon48" d="m30.9 16 1.1-.8.3 1.5-1.2 1z" class="st0" />
    <path id="path50" d="m31.2 18.4 1.2-1.1s.2 1.8.6 2.2c0 0-1.3-.3-1.7-.3z" class="st0" />
  </g>
</svg>
