<svg xmlns="http://www.w3.org/2000/svg" version="1.0" viewBox="0 0 384 384"><path d="M1427.912 5029.958c-19.317-2.68-13.598-28.881-4.806-39.687 35.65-59.132 85.995-107.201 134.2-155.76 8.268-9.5-10.09-15.064-15.199-20.016-70.188-40.571-144.88-74.355-207.915-126.26-51.727-33.63-108.06-60.18-164.5-84.477-57.095-23.313-114.315-47.188-173.714-63.923-82.429-28.314-169.478-35.428-255.074-48.177-20.064-5.47-45.915-3.04-61.462-18.608-9.892-16.002 4.204-36.376 21.28-38.92 84.351-35.992 167.428-82.02 259.983-92.345 15.73-4.57 2.454-23.97-3.523-32.031-56.705-69.105-123.289-130.457-175.126-203.9-30.624-44.089-63.436-86.996-108.906-116.465-75.075-54.666-150.597-109.06-229.237-158.185-13.9-7.72-9.148-25.694 3.602-31.583 30.915-11.838 65.807-6.556 98.22-10.56 21.597-1.73 44.48-1.29 65.342-4.947 5.835-46.076-24.01-86.571-29.783-131.178-14.549-47.76-28.888-96.28-28.265-146.784 2.16-17.822-5.74-41.593 8.506-55.554 22.134-9.525 35.028 16.833 45.102 31.575 12.501 14.05 22.481 36.567 42.384 40.259 18.006-1.46 13.749-26.338 16.693-38.775 5.323-113.945 24.192-227.678 56.36-337.402 11.761-35.556 17.147-72.896 29.462-108.094 12.775-21.559 44.85-27.959 48.778-55.685 12.832-69.967 22.092-141.399 45.217-208.917 28.623-74.393 68.866-143.704 97.415-217.87 10.767-17.839 22.289-42.528 44.88-46.103 19.656 3.832 15.929 30.701 18.8 45.431 3.076 17.335-1.039 40.37 12.317 53.59 15.016-10.655 17.343-33.246 25.48-49.235 14.335-39.025 23.481-80.07 41.176-118.017 12.55-51.01 37.631-97.481 55.542-146.627 10.764-31.793 22.917-62.842 38.114-92.837 27.002-65.412 47.62-133.45 80.065-196.592 26.65-52.959 13.774-113.883 17.121-170.722-3.032-19.602 2.663-37.067 14.6-52.618 44.146-74.804 87.132-150.396 128.59-226.484 24.192-31.925 61.51-50.558 92.14-75.565 46.98-33.052 93.284-67.534 139.068-101.918 49.73-12.723 102.157-6.067 152.993-7.516 55.711 1.68 112.02-.788 167.363 5.21 25.73 13.916 48.988 32.603 75.609 45.439 81.572 47.155 161.889 96.432 244.705 141.422 78.301 48.638 166.991 83.781 233.188 149.704 51.01 52.005 75.189 122.25 115.564 181.67 46.09 74.509 85.999 152.582 130.33 228.066 24.186 32.008 39.14 69.456 46.595 108.707a868.24 868.24 0 0 1 24.883 99.447c8.506 24.25 33.143 47.564 20.53 75.066-15.014 34.721-25.59 73.297-17.582 110.988 4.357 6.936 13.537-5.084 19-6.422 28.153-19.782 65.786-5.13 92.509 10.332 39.332 24.134 64.911 63.807 94.373 98.169 31.52 45.34 59.1 94.262 74.98 147.298 14.554 27.488 32.7 53.6 41.846 84.042 17.84 42.286 44.442 83.088 42.856 130.86 1.802 96.216 5.29 192.756-1.126 288.852-.758 14.007-4.545 31.035-21.226 33.344-22.264 6.238-51.272 20.199-70.405-.29-15.267-14.633-33.497-25.091-50.528-36.873-9.807-6.016-17.487-26.046-30.705-20.985-9.97 24.44 12.793 47.368 14.024 71.694 10.157 44.006 9.257 90.796 25.597 133.166 5.989 15.23 26.482-1.672 32.611 14.175 15.427 31.989 9.224 69.59 12.375 103.989 3.095 102.418.382 205.325 7.03 307.43 17.774-1.703 28.404-21.216 42.626-30.663 8.463-8.86 29.615-19.741 34.837-2.033 8.817 54.694-16.19 108.008-16.143 162.364 3.16 7.139 11.467 14.957 18.291 6.252 46.068-28.043 93.252-55.518 143.201-75.81 19.54 1.61 13.702 28.31 8.976 40.705-22.72 70.065-43.595 141.343-78.213 206.681-21.521 49.098-54.148 92.82-73.461 142.801-4.408 8.752 1.939 13.082 10.18 13.122 57.201 10.452 116.639 6.745 173.247 21.01 15.567 2.775 17.16 24.296 3.238 30.438-38.772 22.793-81.888 35.73-121.515 57.144-102.676 50.14-207.128 97.91-307.104 152.572-72.703 48.198-141.678 102.863-219.103 143.965-68.323 36.636-144.504 55.565-219.252 74.242-51.493 6.615-104.06 4.007-155.653-.693-59.65 54.22-121.985 108.667-199.035 136.442-109.432 44.218-230.113 44.413-346.18 39.174-82.676-12.216-167.38-13.833-250.246-4.64-48.9 7.768-95.75 23.703-141.822 41.328-2.36.468-4.778.73-7.185.581zm455.06-108.113c97.173.865 198.043-1.81 287.437-43.558 70.71-29.788 121.965-88.618 181.882-134.337 28.6-10.519 60.14.874 89.704-.876 56.938 1.219 116.355 4.013 169.61-19.556 100.003-36.81 193.66-89.58 277.315-155.532 53.498-39.82 115.112-66.237 171.833-100.656 28.377-10.744 57.935-23.704 78.8-46.406-29.18-6.25-60.49 1.487-89.271-5.097-9.559-13.75 7.722-29.537 13.252-41.77 49.946-72.615 102.565-143.654 144.598-221.342 7.067-16.282 24.19-27.586 28.41-44.83-.135-19.123-23.737-13.9-32.728-4.268-31.367 21.645-61.455 47.156-96.861 61.714-19.059 1.958-22.032-24.735-21.832-38.61-1.139-16.612 4.98-36.794-.6-51.606-17.501-6.262-48.019-.533-51.46-25.379-1.403-49.228 14.257-97.252 14.503-146.378 2.33-63.087 7.302-127.259-3.656-189.734-10.688-27.566-31.261-51.493-32.93-82.266-15.995-60.259-21.678-122.378-30.15-183.944-.591-16.147-12.422-27.224-26.808-32.34-30.385-22.185-40.146-62.03-59.528-92.51-5.673-7.26-9.138-22.37-19.363-23.526-11.81 8.984-19.573 34.752-38.435 24.671-14.368-2.96-30.938-21.004-44.354-6.985-22.059 15.758-42.615 38.265-42.944 66.647-6.53 61.498-12.857 123.93-33.967 182.658-17.498 73.377-48.105 143.748-88.067 207.632-10.03 11.863-23.394 37.735-42.314 26.256-12.029-15.483 3.25-36.155 7.48-52.04 9.733-24.15 11.102-36.404 45.29-167.815 37.856-142.103-42.787 100.2-46.47 102.984-48.696 98.154-119.886 183.132-197.923 259.23-20.752 21.058-49.066 33.293-78.8 32.274-93.242 4.302-187.538 9.68-280.294-3.323-24.798-4.03-30.519-32.632-47.18-47.49-120.281-139.423-228.433-289.311-325.545-445.696-19.933-36.337-43.517-70.583-61.198-107.81-5.25-9.379-5.894-27.788-18.25-30.204-13.755 13.611-2.42 35.897.905 51.64 15.365 35.668 21.032 75.204 42.021 108.388 12.867 32.662 24.709 65.835 42.523 96.523 41.823 85.686 95.85 164.417 151.642 241.429 9.628 15.45 16.36 32.312 26.59 47.368 3.405 14.925-18.75 12.016-26.584 7.324-57.005-28.943-100.247-78.375-144.188-123.578-59.807-66.042-108.603-141.298-154.378-217.448-36.565-75.961-72.672-152.49-101.837-231.653-10.739-40.03-23.675-79.32-38.593-118.018-26.178-76.618-32.375-158.172-57.817-234.952-10.948-38.24-7.883-80.478-21.237-117.327-21.53 20.466-24.096 52.927-30.348 80.718-12.775 97.765-8.056 198.215 1.882 296.244 3.17 37.143 17.832 74.297 11.633 111.49-14.025 4.035-28.473-3.882-30.42-18.86-21.834-58.595-36.177-120.156-35.88-182.96-1.385-90.962-6.768-183.884 14.948-273.028 19.257-44.634 16.363-93.981 32.545-139.645 4.91-25.09 19.37-53.268 6.611-77.705-14.209-2.977-23.121 15.282-31.698 24.271-33.79 47.917-69.819 96.27-87.63 152.782-18.588 41.158-23.777 86.621-37.988 129.038-21.138 80.594-18.462 166.908-47.876 245.515-10.943 11.68-29.96-1.43-30.433-15.561-10.328-57.638-17.224-115.796-28.17-173.38-16.286-94.73-15.203-193.05-41.757-285.324-1.1-8.924-10.82-14.904-16.124-5.332-28.135 41.013-42.555 89.736-57.58 136.706-14.155 41.314-11.765 85.627-25.298 127.095-16.29 56.644-13.912 116.889-28.734 173.657-10.92 16.314-27.63-1.887-38.271-8.286-15.634-2.528-12.42 20.41-17.032 29.663-22.597 101.391-45.479 204.203-51.72 307.89-2.698 57.674 2.784 114.973 17.102 170.978 1.093 16.057 10.186 41.104-6.801 51.616-20.991 4.37-32.476-24.676-52.168-22.952-11.633 32.965 8.492 67.573 31.377 90.845 18.243 22.508 45.388 38.64 58.5 64.8 4.927 20.898-18.848 30.828-36.038 28.284-39.049.622-77.471-13.396-116.267-10.834 3.188 27.049 34.031 39.042 54.126 52.982 66.205 43.408 118.002 104.333 164.914 167.225 88.825 106.796 182.876 209.912 288.448 300.508 22.098 21.2 62.232 32.761 63.45 68.454 1.03 13.908-12.445 22.915-25.1 17.184-81.195-15.982-163.522-32.188-245.376-39.342-8.108 17.262 7.573 34.544 24.998 35.565 36.919 1.56 72.93 11.394 106.59 26.46 70.088 27.179 144.437 44.962 208.8 85.199 52.218 29.473 108.401 53.344 154.232 92.735 55.52 36.412 114.755 67.092 176.969 90.1 24.783 14.463 52.233 22.923 78.4 33.974 16.5 10.415 14.288 35.314 8.026 50.758-29.74 21.833-67.73 31.635-94.858 57.325 59.311 10.935 120.48 7.795 180.373 15.52 32.66 4.449 64.678 11.675 97.87 9.651l13.54.1zm367.61-1603.535c13.712-1.59 31.91-22.718 15.113-32.727-53.687-27.885-110.39-50.016-166.098-73.63-14.039-3.263-37.308-19.584-46.236.296-9.378 20.313 14.959 33.021 30.07 39.457 52.882 21.947 105.64 44.468 159.107 64.903 2.63.69 5.286 1.772 8.044 1.701zm153.06-61.997c39.661-12.71 71.595-41.789 108.067-61.508 18.51-14.083 44.692-20.964 57.777-40.716.52-16.01-22.03-14.642-33.11-17.121-41.59-7.307-81.603-20.728-123.982-23.662-58.393-10.067-115.823-24.651-173.96-35.857-17.642-3.453-45.42-14.852-38.023-37.787 8.429-21.267 37.348-13.955 54.989-18.509 96.163-10.337 247.093-5.801 342.836-19.011 4.547-4.142-33.4-13.382-63.598-15.561-26.167-19.308-19.367-59.042-35.425-84.2-25.083-53.053-71.146-95.573-126.636-115.999-20.43-9.848-40.73-20.41-64.18-16.836-52.883.173-110.225-9.38-154.515 24.445-7.836 6.272-60.406 43.822-62.471 53.734 30.87 8.816 99.01-37.185 128.048-46.666 36.95-4.629 74.963-1.154 109.178 14.254 54.708 11.213 131.926 109.324 156.315 157.993-42.145-3.81-37.256 1.324-50.852-13.957-24.01-26.985-95.186-82.521-118.549-77.69-9.43 1.732-38.308 1.62-52.108 12.207-32.859 31.372-17.409 58.922-17.409 58.922-53.445-6.32-62.663 1.4-81.847-2.245-37.475-31.236-139.983-187.906-51.796-20.366 0 0 62.913 40.816-26.061 28.143-37.708-2.093-89.985-.119-103.683-40.65-14.224-50.096 1.526-106.997-27.836-152.975-6.556-10.707-12.823-27.543-23.29-32.165-20.345 39.59-25.16 85.307-31.28 128.816-2.848 34.774-6.755 71.896 12.158 103.355 16.805 40.98 24.302 86.91 50.928 123.135 23.421 20.517 57.487 20.547 83.618 37.157 33.185 13.41 68.164 22.514 100.553 38.822 27.446 8.843 55.7 15.408 82.041 27.889 58.02 21.393 114.66 48.029 174.103 64.608zm716.191-82.85c15.836-5.24 28.32-19.016 24.12-36.728-7.138-67.636-16.05-136.442-30.869-203.073-15.87-54.21-49.662-101.725-72.246-153.637-17.81-33.636-22.385-74.573-51.937-101.34-22.144-21-45.654-46.34-76.512-52.718-8.79 13.874 7.598 29.818 15.353 41.1 35.386 36.433 57.157 84.016 63.668 134.235 7.362 44.847 9.373 90.323 12.09 135.622 21.287 26.996 45.255 52.532 64.922 80.41 0 34.912-10.904 71.217-1.344 105.492 10.934 20.95 27.77 38.182 43.513 55.552l9.242-4.915zm-1665.071-42.944c40.452-.096 77-20.401 117.156-25.996 16.588-5.18 36.715-4.908 51.193-14.333 10.302-21.653 19.064-47.192 15.81-71.198-15.843-22.689-47.232-6.305-68.917-4.57-43.51 8.942-89.075 10.797-131.185 25.355-21.222 8.463-22.995 34.915-16.609 53.446 4.41 16.48 10.006 40.783 32.552 37.296zm-44.403-154.967c101.115-39.096 95.386-33.773 138.603-58.271 17.359-12.955 41.443-23.858 48.244-45.738-2.997-12.212-21.833-4.505-30.558-7.618-43.222.091-87.386-4.964-129.796 2.776-21.923 6.92-34.068 34.126-44.996 50.17-27.144 31.235-35.066 50.885-30.11 69.729 5.386 4.58 48.613-11.048 48.613-11.048zm1258.385-175.25c14.378-6.088 1.553-25.572-.998-35.862-25.95-59.654-54.951-118.402-89.193-173.73-25.67-27.5-59.78-15.405-93.753-27.102-25.332-4.845-57.228-30.913-82.598-33.51-16.694 1.862-7.965 24.138-6.416 34.573 7.99 34.642 38.678 57.844 71.858 66.21 65.407 19.022 122.218 61.278 161.98 116.28 15.787 14.98 19.013 39.712 36.481 52.609.829.353 1.733.584 2.64.532zm-1268.118-1.848c50.75 3.96 134.717 15.791 195.327 36.832 41.36 2.577-76.815-65.484-118.003-59.473-34.507-3.555-85.486-4.773-119.73 2.529-11.956 4.17-43.347 54.113-33.662 51.679 0 0 44.863-23.649 76.068-31.567zm696.006-41.44c24.135 2.775 31.924-29.099 21.39-46.14-9.776-17.747-15.573-37.478-20.125-56.756-18.373-4.668-18.568 19.907-19.469 31.925.509 22.04-6.649 46.653 2.987 67.284 4.088 3.568 10.163 3.262 15.217 3.687zm-507.924-282.522c9.158-18.823-7.774-39.122-15.867-55.356-15.141-22.285-77.947-151.502-94.425-172.91-11.287-7.345 39.154 129.038 39.154 129.038 14.138 33.295 41.554 58.782 59.722 89.852 3.192 3.489 6.434 8.452 11.416 9.376zm467.6-.52c21.571-7.674 34.554-30.02 51.739-44.175 31.066-34.355 69.101-66.073 86.62-110.048.514-11.197-17-4.933-22.201-.727-30.054 16.582-50.207 46.862-80.12 63.04-26.843 3.008-48.35-25.03-51.962-49.385-4.931-18.902-18.633-35.815-33.296-48.415-30.873-10.146-64.66-.684-96.548-1.947-40.467-5.12-86.005 10.648-121.107-26.961-29.611 26.814-82.833 40.112-113.708 44.993-42.758-9.297-106.197 36.17-128.467 62.764-9.87 9.81 56.546-28.391 74.079-26.386 20.85-21.124 38.916-20.037 59.123-22.465 25.071-3.013 59.811 3.759 84.302-5.007 53.694-12.938 98.458 30.428 149.92 35.984 29.367 5.09 60.854.714 89.083 10.562 24.05 27.126 34.977 63.92 42.52 98.81 1.4 6.084 1.023 19.167 10.023 19.362zm704.365-159.865c9.553-9.29 3.676-26.858.363-38.361-14.582-27.5-26.834-56.068-37.822-85.228-57.096-125.136-134.06-239.437-199.032-360.432-18.874-33.21-36.925-69.44-71.59-89.013-83.022-59.064-175.702-103.246-262.639-156.307-77.593-44.908-155.067-90.293-232.267-135.661-26.947-10.697-57.336-4.192-85.785-6.53-66.66 1.852-134.6-3.141-199.475 13.419-55.96 18.927-95.358 66.176-142.823 99.07-32.298 23.608-66.749 47.82-82.88 86.078-29.473 60.385-63.303 118.908-87.128 181.438-5.918 13.967 15.7 7.676 19.756 1.61 16.799-11.492 29.158-33.67 50.37-36.492 24.724 10.354 38.988 37.384 62.24 49.155 14.565-14.516 7.23-40.901 20.27-56.363 27.542-7.692 56.958 3.681 82.942 13.07 16.192 11.331 31.586 9.653 46.387-2.805 59.375-33.384 130.354-26.694 195.831-31.981 38.762-3.603 78.093 4.014 111.374 24.648 21.034 9.522 43.619 30.786 67.66 18.19 26.332-5.03 52.32-24.728 79.753-16.8 20.243 8.617 11.45 37.73 26.347 49.746 18.463 8.329 39.894 3.527 52.406-12.246 16.19-13.198 29.104-33.902 49.715-40 33.221 6.087 58.477 32.384 85.755 50.538 39.1 31.281 83.406 56.084 116.676 94.28 40.082 39.678 65.082 91.471 90.686 140.985 10.042 30.338 27.62 62.378 58.81 74.847 22.38 5.925 48.694 7.266 64.819 27.013 41.248 45.367 75.547 96.896 115.6 143 1.113.65 2.366 1.2 3.68 1.132zm-1066.721-199.636c29.511 1.394 54.758-18.587 84.61-15.555 52.077-3.964 105.517 1.796 156.512-10.954 45.724-13.236 86.422-39.497 131.524-54.524 17.532-5.74 42.106-3.651 53.688-20.143 4.36-18.914-19.951-27-34.374-24.653-24.428-5.598-39.658 17.973-62.107 21.493-32.112 8.147-59.649 33.215-94.306 27.472-69.37 1.03-139.141-.443-208.264 2.136-36.152 11.133-80.691 30.272-115.168 4.584-26.38-14.958-54.141-37.695-86.287-33.617-18.426 6.37-9.052 28.6 3.972 35.324 43.66 31.65 94.192 55.418 147.109 66.416 7.635 1.234 15.353 1.985 23.091 2.021zm250.146-148.835c32.47 1.392 55.273-25.887 75.864-46.842 14.954-15.122-7.796-27.58-19.617-33.702-32.71-18.243-68.623-33.407-106.944-30.291-84.818.039-169.934-1.6-254.57 2.6-27.04 13.497-53.729 30.349-73.02 53.742-10.785 19.599 15.223 33.842 27.097 44.627 13.92 13.451 34.907 10.833 49.414.538 19.432-12.382 40.245-23.397 64.092-22.116 63.115-2.851 128.023-9.019 190.061 5.883 15.303 3.593 22.565 20.023 36.19 25.125 3.79.493 7.62.386 11.433.436z" style="stroke:none;stroke-width:3.09898;stroke-opacity:1" transform="matrix(.1 0 0 -.1 0 512)"/></svg>