<svg xmlns="http://www.w3.org/2000/svg" viewBox="0 0 135.467 135.467"><path d="M61.192 3.175c-3.126 3.107-3.137 6.603-2.754 10.148.225 1.262-1.557 3.399-2.674.236l-1.575-5.27-2.202 14.396c-1.435-3.293-1.586-6.86-1.573-10.463-1.668 4.45-3.788 8.53-6.608 12.037-4.343 4.88-9.72 6.747-11.644 12.902.966 4.314-4.2 4.175-4.09 5.742 6.606-.532 1.312 17.525 1.81 26.59-2.411-1.082-3.348.294-3.54 2.911-.503 12.493 1.364 12.041 2.674 14.633.324 3.403-.1 5.719.162 6.562.161.517 1.673 1.75 1.962 1.011.362-.926-.498-4.221-.392-7.573l-2.893-5.115c-.211-4.055-1.325-12.432 1.633-11.013 1.874.412 1.812 2.314 1.81 4.17-2.23 7.476.616 8.559 2.124 11.328l3.304 25.803c4.562 5.339 9.627 10.103 15.655 13.767-3.763-6.314-1.534-7.872 1.652-.945 6.996 11.168 22.256 8.068 26.904 0 4.603-8.513 3.312-2.814 1.652.945 5.605-3.928 11.064-8.093 15.498-13.924 2.045-8.706 2.886-17.411 3.46-26.117l2.283-3.227.315-10.463c.08-1.954 2.118-1.215 2.517 0 .762 3.33.486 6.661.236 9.991l-2.753 4.09-.157 5.272c-.587 4.123 1.42 4.22 1.258 0l.236-4.877c1.243-1.301 2.489-2.598 3.225-4.405.791-3.392.555-7.15-.078-10.148-.694-2.468-2.164-3.655-4.563-3.305V38.34l-3.54 3.148C97.569 23.072 78.345 17.7 75.509 10.649l-.63 4.249c-4.004-1.827-4.988-5.076-6.608-8.025l-.315 5.113c-3.837-2.577-6.19-5.492-6.764-8.811Zm-.183 4.81 6.62 7.231c1.298 6.437 2.597 6.918 3.895 9.067l-2.115-11.235c5.594 4.482 9.437 10.079 12.74 16.02l-5.23-12.85c7.351 6.91 20.359 9.672 16.188 25.031 1.624-1.818 2.823-3.824 3.504-6.062 2.775 2.818 1.533 6.556.78 10.18 1.242.319 2.483-.862 3.725-1.614.579 1.643.108 3.378-1.724 5.23.467.263.88.595 2.058-.057l.946 17.913c.404 6.489-2.409 3.555-3.114-.222l-2.504-16.911c-.542-2.547-2.116-3.762-5.173-3.06l-3.227.556-4.672-5.006-2.95 3.837-2.335.057-6.73-6.341-.28 2.614h-2.224l-7.064-3.56-.112 5.062c.085 1.582.007 2.07-1.446 1.503l-3.672-2.893.055 2.113c.08 1.015-1.058 1.87-2.948-.055l-5.729-5.619-2.058 2.447-6.064.112c-2.578 6.992-.585 19.606-5.73 29.148-.546.812-1.767 1.544-1.89-.222l2.003-26.145c-.015-1.212-.788-1.992-1.836-2.614 5.371-6.758-3.107-1.661 13.405-17.245-.054 6.616 2.686 12.418 8.4 17.355l-1.891-9.344 6.508 8.4C58.153 29.114 58.416 18 61.009 7.984zm20.138 46.894 3.337 4.784 6.231.167 4.283 6.12c1.284 1.886.57 2.609-.834 1.724l-4.73-3.783-4.004.055 1.057 6.12c9.23.219 11.204 7.747 3.448 10.402l1.67 2.891.11 2.115-3.337-4.562-1.168.055 1.056 5.23-2.948-5.006c-2.561-.383-6.03 1.45-7.677-1.168l-4.45-8.066c3.621-2.83 7.156-.785 10.236-2.282v-3.058c0 3.06-4.53-.137-10.847 3.893-.685-2.845-1.432-5.706 9.957-5.173v-1.613l-8.955.668V59.83h8.066zm-35.88 4.784 16.465.055v4.674c-5.413-.888-10.24-.602-15.242-.668l-5.395 4.45-1.113-.612zm3.889 6.173h8.85c1.792 1.92 1.977 4.374 2.595 6.685l-4.09-4.05-7.355-.08zm1.936 4.41c3.161-.11 5.413 1.258 7.227 3.337-7.294 1.87-11.303.827-14.002-1.377 2.654-1.296 4.878-1.894 6.775-1.96zm-14.62 14.25c.51-.003 1.18.292 1.87.906 4.237-.222 3.932 2.724 3.782 5.562.747 2.935-.647 2.775-1.78 1.614l-4.451-5.675c-.683-1.567-.273-2.4.578-2.406zm62.343.128c.852.006 1.26.841.577 2.408l-4.45 5.673c-1.134 1.162-2.527 1.323-1.78-1.612-.15-2.838-.454-5.786 3.783-5.564.689-.613 1.36-.908 1.87-.905zm-24.114.797c1.098.073 3.63 1.911 5.444 3.223 4.29 3.228 9.413 10.922-1.335 1.614-.804 2.475-2.439 2.668-4.061 2.893l2.221 1.774c9.764-1.046 10.181 9.022 17.194 13.745-6.162 2.034-9.263-.476-12.016-3.504l-.5 3.003c-9.642-4.967-18.915-4.895-27.815.224l-.61-3.005c-3.08 2.815-6.421 5.05-11.405 3.616 3.148-2.89 5.9-6.122 8.01-9.902 3.026-4.698 7.158-4.305 10.847-5.95h-2.502l-1.559-2.226c-3.796 3.84-11.798 6.715-1.167-2.616 8.823-6.382 3.712-.26 4.45 1.39l4.56 3.451c2.53 2.336 4.607 1.736 6.51 0l4.783-3.615c-1.89-3.16-1.904-4.172-1.05-4.115zm.548 25.197c-5.515 11.134-10.336 10.874-14.517.055 5.004 2.617 9.81 2.062 14.517-.055z" style="stroke:none;stroke-width:.881089px;stroke-linecap:butt;stroke-linejoin:miter;stroke-opacity:1"/></svg>