<svg xmlns="http://www.w3.org/2000/svg" viewBox="0 0 135.467 135.467"><g><path d="m295.047 628.94-2.86.005c-3.883 5.065-7.292 10.232-21.972 13.006-2.608 3.013-5.686 4.852-8.965 6.188v14.142c1.437 5.316 3.618 10.383 7.072 15.026-.47 1.037-1.424.94-2.904-.38-2.271 4.402 12.656 27.417 27.904 30.179 11.189-.523 29.22-20.88 27.276-30.305-.723 1.093-1.472 2.03-2.526 1.137a54.45 54.45 0 0 0 6.819-14.141l-.252-16.164c-3.537-2.97-6.656-4.894-9.723-6.691-7.728.208-14.157-4.487-19.87-12.002zm-18.977 13.078c4.853-.131 8.597 2.36 12.412 4.68 1.223 1.92-.1 4.414-3.93 2.855-8.219-4.058-11.698-4.323-14.017-3.66l-5.892 5.09c1.258-2.186 2.361-4.287 6.16-7.858 1.907-.73 3.65-1.064 5.267-1.107zm35.032.08c1.617.043 3.36.378 5.267 1.107 3.799 3.571 4.902 5.672 6.16 7.858l-5.892-5.09c-2.32-.663-5.799-.398-14.018 3.66-3.829 1.559-5.152-.937-3.93-2.858 3.816-2.32 7.56-4.808 12.413-4.677zm-35.05 9.302c3.494-.04 6.86 1.624 9.93 6.01.42.735.438 1.288-.447 1.43-6.767 1.9-13.527 3.404-20.178-3.215 3.582-2.438 7.203-4.184 10.696-4.225zm34.995.141c3.493.04 7.114 1.788 10.695 4.227-6.65 6.619-13.413 5.112-20.18 3.212-.884-.141-.865-.692-.445-1.427 3.071-4.386 6.437-6.052 9.93-6.012zm-24.668 24.818 3.535.002c2.642 1.333 5.166 1.016 7.64 0h3.346c-.34 1.514-1.72 2.432-3.22 3.282-1.772.874-4.079 3.504-7.828-.125-1.635-.933-3.163-1.895-3.473-3.159zm10.63 8.885a3.01 3.01 0 0 1 1.284.158c1.547.346 4.158 2.02 6.709 1.627 2.053-.255 2.557 1.453 1.012 1.578l-7.577.633c-.673-.213-1.348-.235-2.021.38-1.136.58-3.459 1.405-4.797-.507-.644-.295-1.299-.573-2.525.063l-8.272-.504c-.988-.2-.494-1.785.82-1.643 3.906.665 4.487-1.237 8.02-1.703 1.765-.183 2.945.8 4.229 1.578.805-.706 1.884-1.545 3.119-1.66zm-8.39 7.104c.268-.017.568.054.854.24 2.969 1.19 6.11 1.238 8.773 0 1.25-.69 2.399.487 1.264 1.387-3.805 2.95-7.58 3.682-11.301 0-.925-.759-.395-1.579.41-1.627z" style="stroke:none;stroke-width:.999999px;stroke-linecap:butt;stroke-linejoin:miter;stroke-opacity:1" transform="matrix(.98996 0 0 .98996 -225.423 -567.715)"/><g><path d="M70.526 160.629c1.7-1.952 2.836-1.24 3.875-.067-1.368-1.195-2.64-.866-3.875.067z" style="stroke:none;stroke-width:.264583px;stroke-linecap:butt;stroke-linejoin:miter;stroke-opacity:1" transform="translate(-225.423 -567.715) scale(3.74158)"/><path d="M274.04 598.063c-7.342.078-14.74 4.85-13.925 14.847 3.49 4.544 8.4 6.374 11.742 6.313-1.57 2.475-6.398 2.379-11.365-4.166-.305 15.932 24.219 9.361 26.012-1.895l-.125-8.838c-2.32-4.172-7.317-6.315-12.34-6.261zm-.169 1.552c5.484-.165 11.016 2.476 11.129 8.153-1.964 13.274-20.715 11.75-21.965.535-.083-5.55 5.352-8.522 10.836-8.688z" style="stroke:none;stroke-width:.999999px;stroke-linecap:butt;stroke-linejoin:miter;stroke-opacity:1" transform="matrix(.98996 0 0 .98996 -225.423 -567.715)"/></g><g><path d="M70.526 160.629c1.7-1.952 2.836-1.24 3.875-.067-1.368-1.195-2.64-.866-3.875.067z" style="stroke:none;stroke-width:.264583px;stroke-linecap:butt;stroke-linejoin:miter;stroke-opacity:1" transform="matrix(-3.74158 0 0 3.74158 356.24 -567.873)"/><path d="M274.04 598.063c-7.342.078-14.74 4.85-13.925 14.847 3.49 4.544 8.4 6.374 11.742 6.313-1.57 2.475-6.398 2.379-11.365-4.166-.305 15.932 24.219 9.361 26.012-1.895l-.125-8.838c-2.32-4.172-7.317-6.315-12.34-6.261zm-.169 1.552c5.484-.165 11.016 2.476 11.129 8.153-1.964 13.274-20.715 11.75-21.965.535-.083-5.55 5.352-8.522 10.836-8.688z" style="stroke:none;stroke-width:.999999px;stroke-linecap:butt;stroke-linejoin:miter;stroke-opacity:1" transform="matrix(-.98996 0 0 .98996 356.24 -567.873)"/></g><path d="M67.886 161.464c-.76 2.824-.085 5.408.635 7.985.383.705.862.373 1.337.1l2.038-1.57c2.214-.168 3.704-1.389 4.944-2.973.363-.416 1.153-.525 1.537-.067 1.283 1.43 2.793 2.681 5.312 3.14l2.105 1.47c.635.558.951.24 1.236-.167 1.187-2.595.996-5.19.601-7.784-.174 3.6-1.594 5.53-5.412 4.243-3.711-1.5-3.793-3.77-3.374-6.147l-2.239-.034c.41 2.968-.602 5.15-3.575 6.248-3.716.801-5.46-.647-5.145-4.444zM86.896 173.876l-.033 2.188c-.116 1.064-.521 2.017-.92 2.973-.204.436.181.809.519.284l1.186-2.806c.117-.87.033-1.782.05-2.673-.05-.826-.86-.368-.802.034zM87.962 179.279c-1.527 1.372-1.128 2.922.118 2.752-1.32-.833-.745-1.655-.118-2.752zM89.435 178.47c-1.198-2.635.627-3.225 2.823-6.499 1.247-1.635.609-4.16.334-6.514l-.4.785c.467 1.987.844 4.052-.569 5.913-2.627 2.974-3.92 4.185-2.188 6.314z" style="stroke:none;stroke-width:.264583px;stroke-linecap:butt;stroke-linejoin:miter;stroke-opacity:1" transform="translate(-225.423 -567.715) scale(3.74158)"/><path d="M88.387 170.49c-.154-.196-.395-.082-.248.154.848 1.457 1.303 1.164 1.82 1.146-.884-.094-1.206-.717-1.572-1.3z" style="stroke:none;stroke-width:.264583px;stroke-linecap:butt;stroke-linejoin:miter;stroke-opacity:1" transform="translate(-225.423 -567.715) scale(3.74158)"/><path d="M90.832 171.46c-2.364-1.755.086-3.879.662-5.86.476-2.58-.122-4.671-1.725-6.307 1.013 1.91 1.457 3.91.898 6.072-.444 2.231-3.626 5.557.165 6.094z" style="stroke:none;stroke-width:.264583px;stroke-linecap:butt;stroke-linejoin:miter;stroke-opacity:1" transform="translate(-225.423 -567.715) scale(3.74158)"/><path d="M83.25 157.309c1.3.006 2.588-.004 4.133.307 2.765 3.058 2.277 5.142 2.197 7.252-.128-3.29-.957-5.717-3.283-6.307-.822-.805-1.997-.905-3.048-1.252zM75.831 157.498c-.418.51.174.79.733.567 4.366-3.877 7.355-3.552 9.78-1.795-1.156-2.084-5.962-2.751-10.513 1.228zM74.067 157.004c-.242.384-.175.569 1.303-.15.662-1.058 1.956-1.426 3.074-1.988-1.475.181-2.946.469-4.377 2.138z" style="stroke:none;stroke-width:.264583px;stroke-linecap:butt;stroke-linejoin:miter;stroke-opacity:1" transform="translate(-225.423 -567.715) scale(3.74158)"/><path d="M70.726 157.355c1.987.128 1.999-1.927 3.809-2.973 2.25-1.423 4.424-.97 6.615-.902-1.92-.758-5.731-1.495-7.217-.168-1.326 1.048-2.245 2.57-3.207 4.043zM64.763 162.834c.23-1.63 1.637-2.724 3.324-3.692-1.311 1.137-2.582 2.293-3.324 3.692zM66.517 162.466c-1.373 1.449-3.216 2.487-2.74 5.546.22 1.665 4.052 4.037.602 5.145 4.349.68.864-3.846.292-5.284-.559-1.824.847-2.67 1.846-5.407z" style="stroke:none;stroke-width:.264583px;stroke-linecap:butt;stroke-linejoin:miter;stroke-opacity:1" transform="translate(-225.423 -567.715) scale(3.74158)"/><path d="M64.681 170.963c.761.469.24.821-.449 1.158.265-.372.532-.743.45-1.158zM66.517 167.912c-.43 1.294.587 1.782 1.019 3.29.424-1.09-.761-1.571-1.02-3.29zM67.516 173.184l-.118 3.071 1.37 3.236c.196.369.712.246.496-.283l-.968-3.355.047-2.008z" style="stroke:none;stroke-width:.264583px;stroke-linecap:butt;stroke-linejoin:miter;stroke-opacity:1" transform="translate(-225.423 -567.715) scale(3.74158)"/></g></svg>