<svg xmlns="http://www.w3.org/2000/svg" xml:space="preserve" id="Layer_4_1_" x="0" y="0" style="enable-background:new 0 0 37 37" version="1.1" viewBox="0 0 37 37"><style id="style2" type="text/css">.st0{}</style><path id="path4" d="M35.8 3.3c0-.6-.7-1.2-1.4-1.9-.6-.6-4.6-.6-6.3-.6s-3.1 3-3.6 2.5-1.9-.7-3-.7-1.5.9-2 .9h-2c-.4 0-.9-.9-2-.9s-2.5.2-3 .7C12 3.8 10.6.8 8.9.8s-5.6 0-6.3.6-1.4 1.3-1.4 1.9-.6 4-.6 5.6c0 0 0 .7.7 1.4s2.4 2.3 3.7 2.3.8-1 1.9-1-1-.7-1.8-.7S4.7 9.4 4 9.4s-1.9-.7-1.9-2S3 2.7 3.5 2.7s4.5-.9 4.9-.5c.4.4 3.4 2.8 4.1 2.8.7 0 1.4-1.1 2.6-1.1s2 .9 2.4.9h2c.3 0 1.1-.8 2.4-.8s2 1.1 2.6 1.1 3.6-2.4 4.1-2.8 4.4.5 4.9.5 1.4 3.4 1.4 4.7-1.1 1.9-1.9 1.9c-.7 0-.4 1.4-1.2 1.4s-2.9.7-1.8.7.7 1 1.9 1 3-1.6 3.7-2.3c.7-.7.7-1.4.7-1.4.1-1.6-.5-4.9-.5-5.5z" class="st0" style=""/><path id="path6" d="M18.3 10.7c-.2 0-.4-.2-.4-.4 0 0-.3-.3-.4-.5-.4-.5-.5-.7-.5-.9 0-.2 0-.4 1.4-1.4L18 6.1c-.1-.2.1-.4.3-.5.2-.1.4.1.5.3l.5 1.9-.2.2c-.5.4-1 .8-1.2 1 0 0 .1.2.2.3.4.5.5.8.5 1 .1.2-.1.4-.3.4z" class="st0" style=""/><path id="path8" d="M18.5 16.9H7.8s-.7-.1-.7-1 0-.9-.6-.9-.5-1.2-.3-1.4c.2-.2 1.1-1 1.4-.8.2.2.7.5 1.2.1s5.5-1.8 9.7-1.8 12.4 1.7 12.4 2.9c0 0 .2.3-.5.3s-.4 2-.4 2.2-.3.4-.6.4H18.5z" class="st0" style=""/><path id="path10" d="M26.9 17.9s.4.6.4 1c0 0-1-.5-2-.5s-3.2.5-3.8 1c-.5.6-.8-.2-.5-.4.3-.3 1.5-1.1 1.5-1.1h-8s1.3.8 1.5 1.1c.3.3-.1 1-.7.4s-2.7-1-3.7-1-2 .5-2 .5c0-.4.4-1 .4-1H8.6v.2c0 .8 0 1.9.1 3 0 0-1.5-2.1-2.7-2.1s-.6 1.3-.6 1.6c0 .3 2.1 4 2.1 4.7 0 .7 1.2 1 1.3.9.1-.1-.2-1.5-.5-1.5s-1.2-1-1.2-1.7-.3-2.2-.8-2.2c0 0 .4-.1.9.3.5.5.9 1.2.9 1.6s-.4.7-.4.9c0 .2.6.7.9.7.2 0 .7 1.2 1 1.9.1.2.1.4.2.6.6 1.8 1.3 3.5 2.4 4.6 3 3 6.3 3.1 6.3 3.1s3.3-.2 6.3-3.1 3.6-9.9 3.6-13.4v-.2h-1.5zm-10 9c.3 0 .9.4 1.6.4s1.3-.4 1.6-.4h.7c-1.3 1.3-2.3 1.2-2.3 1.2s-1 .1-2.3-1.2h.7zm-3.6-4.6c-.7 0-2.7-.2-2.7-1.9h3.3s2 .7 2 1.6h-1.6c-.4 0-.3.3-1 .3zm5.2 9.3s-1.4.2-3.8-2.2c0 0 3-.7 3.8.1.8-.8 3.8-.1 3.8-.1-2.4 2.4-3.8 2.2-3.8 2.2zm5.2-9.3c-.7 0-.6-.3-1.1-.3H21c0-.9 2-1.6 2-1.6h3.3c.1 1.7-1.9 1.9-2.6 1.9z" class="st0" style=""/><path id="path12" d="m29.5 18.7 1.4.6S29.7 25 29.7 26s-.3 4.8-.3 4.8l-3.8 3.6v-.7l3.1-3.2.3-4s-.3-.4-.6-.4c.1-.1.3-4.9 1.1-7.4z" class="st0" style=""/><path id="path14" d="m31.3 20.1.8.5s-.8 3.1-.8 3.7l-.8.2c0 .1.5-3.2.8-4.4z" class="st0" style=""/><path id="path16" d="M24.9 33.8v1.4l-1 .9s-.7-.9-.4-1.2c.3-.1 1.2-1 1.4-1.1z" class="st0" style=""/></svg>