<svg xmlns="http://www.w3.org/2000/svg" xml:space="preserve" width="512" height="512"><g><path d="m73.293 60.5-.461-5.558-1.06 2.687.282 4.88z" style="stroke:none;stroke-width:1px;stroke-linecap:butt;stroke-linejoin:miter;stroke-opacity:1" transform="translate(49.22 1.863) scale(4.70208)"/><path d="M22.3 13c.246 2.529.86 4.924 4 6.4" style="stroke:#000;stroke-width:1px;stroke-linecap:round;stroke-linejoin:round;stroke-opacity:1;" transform="translate(49.22 1.863) scale(4.70208)"/><g><path d="M30.6 25.5c-2.05-2.036-2.745-4.097-1.2-6.2-.014 2.067.557 4.133 1.2 6.2z" style="stroke:none;stroke-width:1px;stroke-linecap:butt;stroke-linejoin:miter;stroke-opacity:1" transform="translate(49.22 1.863) scale(4.70208)"/><path d="M8.35 20.9c.374 1.791 1.346 3.307 3.45 4.3M13.506 12.728c-2.074 3.816-3.35 7.613 2.192 11.243" style="stroke:#000;stroke-width:1px;stroke-linecap:round;stroke-linejoin:round;stroke-opacity:1;" transform="translate(49.22 1.863) scale(4.70208)"/><path d="M14.5 26.4c-4.9 4.471-4.426 12.748-3 21.7" style="stroke:#000;stroke-width:1px;stroke-linecap:round;stroke-linejoin:round;stroke-opacity:1;" transform="translate(49.22 1.863) scale(4.70208)"/><path d="M15.415 14.142c-.384 7.266 3.514 10.41 10.324 10.748M17 11.3c2.506-2.136 5.128-2.296 7.9.1" style="stroke:#000;stroke-width:1px;stroke-linecap:round;stroke-linejoin:round;stroke-opacity:1;" transform="translate(49.22 1.863) scale(4.70208)"/><path d="M32.173 18.668c4.407.028 8.754.581 12.375 7.424 3.098-6.543 7.94-7.393 13.01-7.495-4.049.31-7.743-2.47-12.657 5.374l-.07-18.173-.778 18.102c-3.457-6.356-7.636-6.086-11.88-5.232z" style="stroke:none;stroke-width:1px;stroke-linecap:butt;stroke-linejoin:miter;stroke-opacity:1" transform="translate(49.22 1.863) scale(4.70208)"/><path d="M25.81 13.435c7.745-3.958 13.325-2.144 17.111 4.455-4.794-6.374-10.824-6.106-17.112-4.455ZM47.305 17.112c3.523-6.778 9.363-5.94 15.486-4.172-5.591-.571-11.183-1.146-15.486 4.172z" style="stroke:none;stroke-width:1px;stroke-linecap:butt;stroke-linejoin:miter;stroke-opacity:1" transform="translate(49.22 1.863) scale(4.70208)"/><path d="M58.58 25.7c2.05-2.036 2.745-4.097 1.2-6.2.014 2.067-.557 4.133-1.2 6.2z" style=";stroke:none;stroke-width:1px;stroke-linecap:butt;stroke-linejoin:miter;stroke-opacity:1" transform="translate(49.22 1.863) scale(4.70208)"/><path d="M80.393 21.158c-.375 1.79-1.346 3.306-3.45 4.3" style="stroke:#000;stroke-width:1px;stroke-linecap:round;stroke-linejoin:round;stroke-opacity:1;" transform="translate(49.22 1.863) scale(4.70208)"/><path d="M75.237 12.985c2.073 3.816 3.35 7.613-2.192 11.243M74.243 26.658c4.899 4.47 4.426 12.748 3 21.7M73.328 14.4c.384 7.266-3.514 10.41-10.324 10.748M71.743 11.558c-2.506-2.136-5.128-2.296-7.9.1M66.443 13.258c-.246 2.528-.86 4.923-4 6.4" style="stroke:#000;stroke-width:1px;stroke-linecap:round;stroke-linejoin:round;stroke-opacity:1;" transform="translate(49.22 1.863) scale(4.70208)"/><path d="M51.902 64.7c1.844-2.56 9.191 1.142 12.02-1.626l6.364-7.566 1.061.636-6.788 7.566c-1.348 2.04-7.593 1.164-12.657.99zM36.423 65.229c-1.845-2.56-9.392.541-12.221-2.227-2.758-5.266-5.615-6.765-8.464-8.566l1.198 2.078c3.372 1.792 4.576 3.732 6.63 7.125 1.347 2.039 7.792 1.763 12.857 1.59z" style="stroke:none;stroke-width:1px;stroke-linecap:butt;stroke-linejoin:miter;stroke-opacity:1" transform="translate(49.22 1.863) scale(4.70208)"/><g><path d="M33.258 102.11c-6.348-5.018-12.685-13.235-14.775-19.158C15.526 74.57 13 63.155 13 58.172c0-4.35-.397-5.329-3.077-7.583C8.231 49.165 6.238 48 5.495 48c-.744 0-2.064-.712-2.934-1.582-1.318-1.318-1.499-3.431-1.083-12.657.336-7.479.99-11.825 2.01-13.383C4.32 19.108 5 16.54 5 14.67c0-4.72 2.963-8.017 9.637-10.726 5.625-2.283 5.746-2.289 10.278-.51 2.522.99 5.485 1.737 6.585 1.66 12.745-.88 21.44-.867 23.714.038 2.214.882 3.517.693 7.066-1.025 5.495-2.66 6.462-2.638 13.108.301 6.048 2.675 8.592 5.726 8.956 10.744.134 1.841.782 4.323 1.44 5.515.804 1.454 1.06 5.724.78 12.982-.373 9.634-.657 11.008-2.602 12.583-1.201.972-3.11 1.768-4.244 1.768-1.133 0-2.95.787-4.035 1.75-1.554 1.377-1.875 1.43-1.505.25.258-.825 1.786-2.086 3.396-2.802 5.272-2.346 5.922-2.876 6.253-5.105.18-1.212-.213-2.853-.873-3.648-.408-.492-2.779-1.788-2.799-2.024-.02-.243 2.319.579 2.704.579 1.642 0 2.544-4.81 1.204-6.424-.248-.823-4.255.026-4.353-.115-.106-.138 3.788-1.163 4.241-1.931 1.543-.954 1.276-4.76-.513-7.315-.859-1.226-1.482-3.013-1.385-3.972.5-4.93-2.58-9.9-6.553-10.574-1.201-.685.219 4.988-.54 4.731-1.014-1.768-2.361-5.826-4.191-6.387-2.441-1.177-3.26-1.042-7.722 1.273-4.72 2.448-5.159 2.505-8.081 1.047-1.95-.973-4.267-1.313-6.278-.92-3.942.767-4.435.768-8.306.01-1.945-.382-4.229-.036-6.073.917-2.774 1.435-3.273 1.372-8.12-1.027l-5.164-2.555-3.576 1.45c-1.672 1.76-2.36 3.899-2.818 6.126-.129-1.707-.883-3.3.934-5.36-6.113 2.48-8.55 5.384-8.597 10.24.339 2.477.634 2.737-1.5 5.227-1.743 2.305-1.926 6.158-.34 7.138.403.25 2.656 1.762 4.475 1.881-2.794 1.088-3.342.07-4.975-.272-2.028 1.135-2.11 4.167-.156 5.789.71 1.364 4.553.357 4.543.507.008.484-3.887 2.112-4.543 2.187C3.662 39.48 3 40.815 3 41.637c0 2.238 1.905 5.36 3.285 5.385.668.012 2.34.902 3.715 1.978s2.782 1.966 3.126 1.978c.345.012.827-2.34 1.072-5.228.954-11.24 7.083-18.11 16.122-18.073 2.849.012 9.905.04 15.68.065 5.775.024 12.134.047 14.13.05 7.762.012 13.331 7.773 12.712 17.716-.188 3.022-.033 5.494.345 5.493 1.226-.002-.393 7.454-1.953 8.999-.834.825-1.214.958-.844.296.369-.662.387-2.336.04-3.72-.556-2.215-.808-2.34-2.102-1.046-1.587 1.586-2.398 1.775-6.498 1.509-3.137-.203-7.556 1.896-10.243 4.865-2.266 2.504-1.578 3.697 1.258 2.179 1.567-.839 2.375-.72 3.625.53.885.885 3.897 2.479 6.693 3.541 4.51 1.714 5.013 1.747 4.456.296-.431-1.124.026-1.806 1.461-2.181 1.273-.333 1.656-.814.98-1.231-.727-.45-.363-1.346 1.063-2.612l2.17-1.926-.565 5.5c-1.004 9.762-5.325 21.322-10.214 27.323-7.228 8.874-11.848 12.001-18.434 12.478-5.353.387-5.898.2-10.822-3.691Zm19.066-9.167 2.176-2.957-2.845-2.357c-3.62-2.997-9.874-3.187-14.405-.438-1.788 1.085-3.25 2.268-3.25 2.63 0 .361 1.238 1.874 2.75 3.361 2.284 2.245 3.668 2.713 8.167 2.76 4.284-.319 4.88-.704 7.407-2.999zM45 81.5c0-.275-.225-.5-.5-.5s-.5.225-.5.5.225.5.5.5.5-.225.5-.5zm-2.668-1.515c.717-.01.623-.36-.241-.908-.775-.49-2.013-.66-2.75-.377-1.552.595-1.857-2.263-.341-3.2.55-.34.985-1.154.967-1.809-.019-.655-.903-.148-1.966 1.127-1.6 1.92-1.724 2.653-.719 4.262.668 1.07 1.814 1.713 2.548 1.432.733-.282 1.86-.519 2.502-.527zm9.332-1.552c.33-.862.041-2.1-.644-2.75-.98-.932-1.106-.721-.589.992.522 1.731.188 2.264-1.637 2.614l-2.294.439 2.281.136c1.255.075 2.552-.57 2.883-1.431zm-22.69-11.039c2.286-.915 3.734-2.058 3.364-2.656-.431-.698.576-.851 3.007-.457 2.01.326 3.655.417 3.655.202 0-.748-5.055-5.442-6.956-6.46-1.052-.562-3.31-1.023-5.018-1.023-1.708 0-4.87-.9-7.026-2-4.966-2.533-5.783-2.523-3.461.043 1.803 1.993 1.8 2.025-.095 1.313-1.722-.647-1.787-.538-.572.957 1.18 1.45 1.15 1.687-.218 1.687-2.423 0-.834 2.976 2.232 4.18l2.614 1.026-2.25.865c-3.273 1.258-2.754 2.23.904 1.693 2.85-.418 2.976-.332 1.31.887C18.771 68.887 18.881 69 21.788 69c1.744 0 4.977-.723 7.184-1.606zM39 55.134c0-4.086-16.145-8.074-18.959-4.684-1.02 1.23-.697 1.375 2.128.954 2.404-.358 5 .33 9.331 2.473 7.23 3.578 7.5 3.623 7.5 1.256zM57 54c3.269-1.65 7.107-3 8.53-3 1.47 0 2.321-.432 1.97-1-1.81-2.93-16.792 1.25-17.32 4.831-.407 2.766-.275 2.75 6.82-.831ZM11.269 73.516c-.662-1.183-2.186-1.95-3.926-1.975-3.05-.044-3.376-1.473-1.787-7.851.582-2.337.342-2.904-1.428-3.367C2.958 60.017 2 59.321 2 58.776c0-.544.675-.731 1.5-.414 1.649.632 2.129-2.259.65-3.912-.486-.544-.098-1.66.908-2.608 1.56-1.472 1.994-1.494 3.85-.194 1.598 1.12 2.065 2.455 1.977 5.659L10.77 61.5l-.736-3.8c-.405-2.091-1.319-4.341-2.032-5-1.03-.954-1.176-.856-.708.479.324.923.89 3.286 1.259 5.25C8.92 60.393 9.59 62 10.04 62c1.03 0 3.375 10.256 2.764 12.088-.333 1-.74.848-1.535-.572zM8.67 69.437c.163-.515-.146-1.612-.687-2.437-.839-1.279-1.118-1.292-1.891-.09-.5.774-.67 2.031-.377 2.792.564 1.47 2.46 1.301 2.955-.264ZM73 72.766c0-.35.408-1.708.907-3.02.5-1.313 1.162-5.92 1.474-10.24.311-4.319 1.077-8.337 1.701-8.929.843-.799 1.027.523.716 5.13-.38 5.637-.23 6.242 1.641 6.613 1.626.322 1.509.437-.557.545-2.281.118-2.69.667-3.171 4.257-.304 2.267-1.039 4.607-1.632 5.2S73 73.114 73 72.765Zm6.333-14.432a.946.946 0 0 1 1.334 0c.366.367.066.667-.667.667-.733 0-1.033-.3-.667-.667ZM74 57c0-.733.3-1.033.667-.667a.946.946 0 0 1 0 1.334C74.3 58.033 74 57.733 74 57Z" transform="translate(49.22 1.863) scale(4.70208)"/><path d="M34.14 88.73c5.952 1.457 13.131.871 19.742.224l.495.683c-4.996 1.45-18.087.838-20.577.378z" style="stroke:none;stroke-width:1px;stroke-linecap:butt;stroke-linejoin:miter;stroke-opacity:1" transform="translate(49.22 1.863) scale(4.70208)"/></g></g></g></svg>