<svg xmlns="http://www.w3.org/2000/svg" viewBox="0 0 725.504 725.504"><path d="M302.61 77.472c13.695-23.798 25.305-47.214 46.106-56.385 11.139-4.918 26.104 5.427 36.461 10.201l54.816 31.352c33.877 20.859 50.46 37.367 63.075 45.438 15.709 10.097 17.467 6.01 29.126 23.86 6.741 10.3 8.39 21.128 12.99 29.373 5.583 10.039 13.82 12.75 19.982 27.505 9.296 14.823 8.109 20.061 8.611 42.412 11.477 31.37 42.095 62.116 65.412 87.08-1.032 2.059.003 5.452-1.023 6.778-7.976 10.291-9.96 3.553-31.92-13.625 17.329 27.108 24.53 78.564 21.3 103.1-3.978 1.786-9.007 3.336-12.986 2.323-8.338-26.67-6.903-31.19-13.715-36.11-5.185-24.46-9.285-34.527-30.877-56.044-1.157 16.394 4.279 34.112-3.26 51.303l-12.092 43.744c-6.104 36.655-16.693 82.134-38.42 112.829 44.756-57.675 8.934 48.258-1.851 71.835-21.293 43.83-70.215 89.684-119.657 98.392-7.117.724-18.573.55-26.037 0-38.073 0-63.763-19.817-89.54-45.392-11.08-10.964-22.364-21.784-30.609-35.15-8.91-14.408-18.11-38.391-22.392-54.968-3.616-14.003-12.054-49.335-12.14-63.376 9.43 10.907 10.54 18.168 27.386 28.659-14.812-23.52-25.719-44.698-31.765-72.326l-8.95-76.144c24.678-.087 26.81 1.358 36.126-22.22-10.358 0-26.569-1.678-34.698 5.034-8.332 6.827-9.605 19.673-9.866 29.682l16.838 130.188c2.15 25.487-10.165 24.311-21.129 17.81-8.977-6.884-16.479-49.484-14.309-57.498l21.465 33.902-.06-21.948-3.818 13.769c-12.213-11.33-14.833-50.706-19.267-78.613l7.287 79.435-9.082-18.846-8.32-41.67c-.955-16.837-3.489-21.958 6.229-31.823l-6.894-28.43c2.025-27.08 7.63-56.751 25.245-85.96-15.736 6.44-26.045 6.172-35.331 4.899-6.163-.84-9.269-7.473-4.235-14.3 3.963-5.44 17.754-4.62 24.813-7.514 14.552-5.988 24.194-14.956 32.112-23.588 16.311 5.898-30.435 28.401-49.182 36.473 26.153-.26 25.245-4.522 47.001-13.057-8.882 31.187-30.376 64.802-30.318 102.47 1.043 17.761 9.831 44.436 17.134 62.506-4.15-18.926-3.413-38.295-3.343-57.605-4.413-24.844 12.83-46.767 21.148-69.433 4.629-12.932 12.661-36.242 21.832-45.934 13.598-14.378 15.056-14.165 31.315-17.637 7.725-1.649 22.13-6.99 30.144-6.846l14.148 7.665c10.3-1.331 20.481-15.37 28.35-14.358 7.811 1.012 11.726 6.944 12.546 16.104 38.073 0 33.588-4.677 53.984-5.95 22.363-1.36 34.63 8.303 54.332-11.833 29.77 4.224 24.302 14.513 34.428 17.811 11.485 3.732 23.751-16.286 31.9-20.916 8.13 4.427 11.582 8.583 17.31 16.278 17.763 23.868 20.088 82.974 20.936 111.153 11.178-20.386-1.599-44.736 7.754-61.315 43.717 23.05 46.207 68.144 54.756 93.639-1.157-52.51-14.04-61.103-31.4-104.498 13.242-9.687 28.505 11.999 42.972 19.75-19.094-19.094-40.512-32.943-53.039-57.36-3.125-6.133-13.886-27.04-15.16-32.884-2.169-9.923 1.312-16.885-3.23-30.627-5.236-15.796-16.258-25.073-24.446-38.034-6.77-10.705-3.655-15.074-11.959-25.692-12.816-16.432-27.174-16.2-37.3-22.855-25.864-16.982-25.595-29.22-65.634-50.252-13.424-7.06-50.426-31.824-63.648-31.563-23.636.492-32.114 35.25-52.482 54.582-6.876 1.671-9.61-1.749-9.613-1.777-1.273-15.06-6.35-17.703-16.017-17.626.274 6.857 3.313 19.287-1.94 24.379-16.891 6.047-24.416 5.767-33.182 19.306-7.927 12.238 1.928 22.585-6.953 29.008-5.526 4.729-20.25 2.315-30 6.394-6.885 4.31-9.798 13.202-15.15 19.277-14.799 16.748-23.303 29.965-16.309 59.65 7.936 14.3 28.315 41.607 30.74 45.441-7.594.363-17.087-10.949-23.548-18.82-22.755-27.724-26.505-61.73.862-90.997 14.887-16.554 12.402-17.79 18.824-21.32 11.828-7.61 4.237-3.313 30.079-7.126-18.863-32.314 27.685-42.763 36.586-45.143 6.712-7.522-6.304-20.917 9.114-28.746 11.92-4.166 24.03 9.769 24.522 19.345zm40.368-36.278c2.12-.814 5.395-2.378 6.422.637-3.283 7.616-13.613 27.63-20.29 37.707-3.441 5.195-6.112 5.069-6.112 5.069-4.807 1.63-14.08-3.594 19.98-43.413zm-.017 32.265c3.837-28.302 28.753-35.08 48.062-16.45-13.051 9.57-31.07 17.565-48.062 16.45zm33.096-17.223c-12.382-2.806-13.434-4.879-20.175 6.346zm-4.513 198.637c-16.529-2.103-24.996-8.39-37.61-18.053-32.302-19.44-44.476-77.492-27.696-113.135 18.255-42.45 89.237-59.206 125.516-24.749-45.432-5.302-45.253-4.512-63.103 3.618-18.69 8.534-41.353 27.275-39.935 49.117.607 9.258 4.09 39.883 9.095 47.81 1.88-22.508.716-39.915 38.475-58.302-6.229 16.451-14.907 25.804-10.74 41.715 7.116-18.544 18.918-32.458 37.55-40.443l-16.615 41.742-.472 62-15.662-17.57zm-98.636-141.776c1.003 14.647-15.206 45.871-13.933 66.556 2.286 36.974 23.269 46.318 46.529 69.434-18.168-2.835-47.744-13.222-60.59-26.645-10.788-7.805-10.4-22.902-15.554-20.628-.581-10.566-2.317-25.71 13.193-29.295 1.749 4.49-.265 11.073 5.998 13.056-1.957-34.185 5.02-47.003 24.357-72.478zm-64.707 47.001c-1.022 15.236-10.684 16.27-8.476 39.807 1.447 25.198 17.214 46 30.06 66.54-28.816-13.626-44.497-44.265-38.989-82.49 6.846-14.85 9.228-16.711 17.405-23.857zm225.31-.288c-12.115 30.36-12.232 30.533-15.727 47.357 3.667 19.633 3.465 19.864 7.2 31.696-33.294-14.579-21.393-59.77 8.527-79.053zm18.372 64.86c-17.137-27.025 6.244-55.091 46.289-37.755 30.615 18.378 37.089 36.047 40.82 58.93l-48.341-34.657c-8.785-5.94-9.848-11.563-18.662-10.125-7.927 3.24-14.378 13.665-20.106 23.607zm91.411 74.054c-.723-8.506-2.507-7.283-4.995-14.92-1.33-4.08-3.79-10.705-5.93-14.292-8.998-14.928-24.678-8.795-30.03 5.873-2.083 5.728 3.827 7.87 5.736 13.483 1.505 4.369-.905 14.232 3.58 15.794 6.624 3.877 24.088-5.562 31.64-5.938zm-291.638-24.66c-23.637 7.801-22.307 15.228-29.915 32.731 24.505 3.219 25.904 2.796 29.915-32.731zM548.02 318.52l-32.868 1.408c-1.433 28.99 5.153 22.557 33.216 22.297zm-304.619 3.105c-32.026.029-26.231-2.574-37.746 26.386 28.96 0 36.155 7.781 37.746-26.386zm307.512 37.398c-8.38 0-25.17-1.157-29.972 2.95-2.667 4.345.977 14.712 4.745 17.967 10.24-1.792 9.964-2.951 23.742-5.044zm-207.664 48.681c6.828-26.384-13.056-23.56-33.944-28.768-30.927-7.666-60.166-9.759-70.842 26.376 8.834-8.726 18.805-15.024 31.188-15.95 30.972 2.41 52.855 11.428 73.598 18.342zm165.813-5.786c-10.358-35.122-48.123-29.269-76.764-21.429-7.956 2.199-36.134 8.882-25.835 23.087 5.131 7.462 7.99-3.031 28.41-5.043 16.297-4.494 21.587-11.311 46.454-10.76 10.386-.228 18.99 7.26 27.735 14.145zm-171.675 40.715c-7.728-21.917-41.727-35.463-67.1-35.296-25.804 5.178-15.45 18.457-22.19 24.85-4.022 3.761-10.522 1.207-15.556 3.464 27.256 8.017 59.555 9.912 94.97 7.27l-14.09.01c-1.115-5.122.248-9.934 3.655-14.49 7.88 4.96 13.525 6.497 20.311 14.193zm185.368-7.33c-27.975 1.58-12.837-17.087-30.021-25.825-25.633-8.043-62.378 12.465-73.128 33.58 7.045-4.874 7.47-9.88 20.098-14.194 2.518 4.166 2.892 8.761 2.6 13.49l-8.31 1.552c29.46 1.87 61.973 4.176 88.76-8.603zm44.659-20.23c17.647-1.245 26.624 10.636 26.22 26.287-.464 16.983-18.611 72.348-21.235 78.63-8.324 13.661 4.248 22.856-10.55 27.543-18.24-.42-16.55-15.514-15.391-23.606.138-11.572 3.065-22.72 6.924-40.655l6.085-33.08c.463-9.49-.906-28.321 7.947-35.12zm7.762 11.763 2.765 14.336.204 11.413c-8.785 41.615-6.908 33.35-11.63 48.045-.516 3.452-.233 7.436-3.965 8.744-1.283-4.031 2.689-6.486-3.942-12.12l-1.909 23.78c12.874-4.513 14.919-16.23 18.998-28.583 7.146-21.698 14.117-53.25-.521-65.615zm-289.923-1.35 2.392 14.542c-5.918-1.879-7.07 1.406-20.327-5.786 4.941-3.38 8.234-7.491 17.935-8.755zm185.079.637c6.917 2.186 12.986 4.938 18.206 8.255-5.843 3.96-12.575 6.143-20.115 6.71-.658-4.772-.79-9.633 1.909-14.965zM346.9 501.083c-30.546 30.014-37.576 33.04-40.74 60.197 7.36-14.424 13.494-30.415 24.581-37.76 6.283 16.916 13.718 16.19 19.459 16.235 1.346.011-1.05-4.5 5.422-6.292 6.27-2.242 14.388 10.608 22.501 14.924l19.116-14.72c2.193-2.069 8.234-.66 8.007 5.66-1.121 1.4 10.437 2.29 18.373-6.721l3.836-4.5c8.646 8.066 14.1 21.453 19.202 35.424-4.947-28.755-17.84-46.75-42.69-61.998 9.528 5.992 31.835 26.335 9.41 34.373-10.019-.872-6.252-10.006-14.475-8.53-14.756 4.45-14.6 13.33-20.972 14.03-8.758.493-4.185-10.82-24.886-14.036-4.038-.628-2.097 13.285-12.98 6.988-11.18-16.811-4.077-15.732 6.836-33.275zM195.068 680.151c-9.866-33.675-6.124-51.796-4.706-84.459.514-15.574-5.378-46.125 13.385-37.05 0 31.824 9.547 94.632-2.893 121.509zm355.845-2.893c-3.558-13.395-8.968-47.562-8.39-60.754l2.517-23.145c.781-14.494-.184-38.947 13.704-37.898 10.076.029 8.63 92.577-2.045 121.797zm-109.936-78.113c-10.756-6.925-30.294-16.05-44.84-23.162-6.857.087-7.29 8.48-19.097 8.426-10.425.211-9.811-8.761-18.689-8.582-18.045 8.785-29.709 14.954-40.286 24.635 50.155 26.736 64.603 23.173 107.126 11.654 6.51-3.53 11.302-7.358 15.786-12.97zm-83.899 49.182-4.725 1.273c-13.916 44.242-11.707 22.16-12.633 42.123 16.288-12.382 20.628-23.202 17.358-43.396z" style="stroke:none"/><path d="M320.96 602.563c9.24-1.824 22.689-3.151 32.768-4.136 6.44.436 12.593.57 23.542 3.924 9.24-2.147 16.6-3.506 24.709-3.394l37.222 3.5c-7.045-5.429-18.09-8.888-39.767-10.075l-22.164 2.97-18.558-3.182c-18.846 1.493-35.844 4.959-37.752 10.393z" style="stroke:none;stroke-width:2.1693px;stroke-linecap:butt;stroke-linejoin:miter;stroke-opacity:1"/></svg>