<svg xmlns="http://www.w3.org/2000/svg" viewBox="0 0 135.467 135.467"><g><g><path d="M264.85 285.367c-7.024.881-7.617 5.113-6.63 10.166 3.56 7.418-1.114 9.384 5.43 15.153h7.133c3.475-2.662 6.624-7.075 11.87-.885 2.2 1.594 6.723 1.527 8.712-.569l2.715-3.976.568-7.135c3.79-7.107 2.7-11.804-6.123-12.69zm21.597 2.256c4.44.05 8.263.778 7.065 4.5-.33 1.155.097 3.528-2.272 1.389-8.122 5.023-22.534 3.79-28.285-.125-1.067.305-2.163.754-2.904-.569-1.878-5.512 4.965-5.243 15.28-5.052.967 1.744 2.104 1.79 3.41 0 2.155.04 5.042-.173 7.706-.143zm-17.787 11.395c4.804 2.859 10.22 4.362 17.23 0-3.716 6.812-12.147 8.98-17.23 0z" style="stroke:none;stroke-width:.999999px;stroke-linecap:butt;stroke-linejoin:miter;stroke-opacity:1" transform="matrix(.95682 0 0 .95682 -199.202 -179.987)"/><path d="M70.041 77.024h6.431c-.034.576-1.058.549-3.24.552-2.413.003-3.196.135-3.191-.552z" style="stroke:none;stroke-width:.264583px;stroke-linecap:butt;stroke-linejoin:miter;stroke-opacity:1" transform="translate(-199.202 -179.987) scale(3.61632)"/><path d="M276.217 239.77c-3.67-.058-7.338 1.433-7.645 5.677 1.338 3.868 10.456 9.5 1.518 13.928-5.99 3.912-17.42 2.105-6.25-.09l-.715-2.142c-2.081 1.003-4.348 3.437-7.768.18l-.625 2.855-.892-1.518c-8.078 1.486-2.394-4.279-.625-4.82 3.844-1.053 7.658-2.148 12.32-2.055-.434-3.642-7.651-5.803-14.732-.178-2.114 1.905-4.326 4.142-4.643 0v-3.304l-3.66 4.375c1.887 11.517-4.143 11.028-5.447 2.947l.09-4.732-3.75-.09c-1.078 6.388-1.296 13.46 4.107 25l1.785-.178c1.473 9.77 4.072 19.27 9.733 28.035 6.308 10.47 12.617 17.657 18.925 21.104 6.39 2.423 12.946 1.845 19.573 0 11.474-8.37 16.607-19.64 19.445-23.612 4.749-7.911 3.553-11.438 6.06-23.738l2.272-.254c6.385-11.24 3.316-19.271 4.797-22.695l-3.572-1.965v6.072c-4.869 2.61-6.707 6.174-5.178 10.803l-1.697 2.678c-2.064 2.05-3.89-.15-3.036-4.106l2.41-8.75c2.022-1.875 1.361-3.75-1.16-5.625v-4.732l.983-1.162.088-3.393-7.946 1.875c3.606 2.158 8.83 10.467 0 3.84-6.504-3-13.254-2.264-12.5 1.785 6.758-.333 12.78.527 15.536 6.697l-5.358.446c-.454-2.31-1.175-1.529-1.963 0-2.769.388-4.838-.125-6.43-1.25l-1.874 2.144c11.615.495 2.212 3.756-2.946.178-8.023-6.992-8.006-10.337-2.232-14.91 2.436-2.616-2.28-5.247-6.998-5.32zm-7.783 31.966c1.584.16.564 2.661 1.15 3.72 2.088.558 4.13 1.211 5.557 3.093h4.103c1.844-1.271 3.504-2.723 6.313-3.03l-.125-2.462c.21-3.555 10.551 3.308 5.43 3.724l-2.526-.19-1.895 2.337c-2.351-.045-2.932 1.038-3.472 2.146 7.847-1.396 14.407-.486 15.91 9.47l2.084-.126c2.56-5.557 6.194-3.931 9.217-13.383 1.445 22.794-19.39 41.056-21.844 43.12-3.079 3.514-16.703 4.602-21.846 0-15.157-13.353-23.285-31.871-23.422-43.499 2.212 8.394 7.267 10.95 12.627 12.88l.38-4.294c4.195-5.827 9.38-6.488 15.087-4.42-2.488-2.031-3.724-4.725-8.838-5.367l4.545-3.408c.695-.26 1.199-.347 1.565-.31z" style="stroke:none;stroke-width:.999999px;stroke-linecap:butt;stroke-linejoin:miter;stroke-opacity:1" transform="matrix(.95682 0 0 .95682 -199.202 -179.987)"/></g><path d="m62.366 61.61.047 3.992c-.65-1.466-1.133-2.897-.047-3.992zM73.138 54.972h2.197c1.224.13.083 1.96 1.772 1.748-.551-.311-.686-.687-.661-1.087-.043-1.724-2.336-.78-3.308-.661zM76.186 57.901c-1.112-.874-1.165 1.373-4.843-.023-.883-.486-1.983-.381-3.307.33-1.592.65-3.16 1.327-4.134 2.717-.82 1.253-.303 1.836-.048 2.551 1.62 1.8 5.667 1.154 6.71-.26 1.298-1.965 3.143-3.688 5.031-.78 2.482 3.732 7.326 1.905 3.355-1.275zM64.078 57.814l-.635.994c-.234.434.176.734.543.3l.593-.918c.304-.712-.314-.738-.501-.376z" style="stroke:none;stroke-width:.264583px;stroke-linecap:butt;stroke-linejoin:miter;stroke-opacity:1" transform="translate(-199.202 -179.987) scale(3.61632)"/><path d="M61.94 57.78c-.446 1.102-.87 1.143-.652-.317 1.383-2.503 1.825-1.639 2.723-2.405.825-1.058 3.588-4.943 7.885-4.043.503.445.887.093 1.302-.05 1.856-.31 3.713-.644 5.446.334 3.126 3.315 3.02 1.396 4.093 2.907.23.472.103.837.033 1.219-.435-.925-.964-1.624-1.837-1.487l-2.656-2.355c-.545-.225-.622.2-.485.35 1.11.917 2.182 1.845 3.074 2.824.602.015.95.326.985 1.002 1.024.534 2.938.006 2.823 1.988-.071 1.55.825 1.85 1.704 2.171-.963-.025-2.213.736-2.105-2.238-.078-.659-.464-.605-.334-.017.263 1.476-.425 2.086-.32 2.742.699 1.99 1.007 1.4.838.416.84-.262 1.652 1.333.769 2.488.89 1.211 1.77 2.644.634 3.425.025-1.369-.403-2.284-1.186-2.606-.361-.84-.162-2.295-1.386-2.756l.033-3.558c-.014-.658-1.888-1.648-2.773-1.905.785.905 1.525 1.847 1.871 3.124.173.784-.292 2.032-.336 2.017-.049-.018.169-.9-.265-1.75l-1.804-2.956c-1.024-1.63-1.582-2.638-.952-.568l.434 2.088c1.406.852 1.49 1.704 1.57 2.556-1.238-2.206-1.812-1.574-2.021-2.072a13.11 13.11 0 0 1-1.704-3.29c-.728-1.724-1.806-1.984-3.157-1.103-1.287.774-2.457-.154-3.224-.267-1.505-.17-3.024-.195-4.66.952.232-.778 1.007-1.654 2.121-2.59-1.46.282-2.768 1.566-4.009 3.292-2.142.904-2.17 1.662-2.472 2.438z" style="stroke:none;stroke-width:.264583px;stroke-linecap:butt;stroke-linejoin:miter;stroke-opacity:1" transform="translate(-199.202 -179.987) scale(3.61632)"/></g></svg>