<svg xmlns="http://www.w3.org/2000/svg" viewBox="0 0 135.467 135.467"><path d="m119.659 82.697-1.631 1.378v9.77l1.631 1.052z" style="stroke:none;stroke-width:.264583px;stroke-linecap:butt;stroke-linejoin:miter;stroke-opacity:1" transform="matrix(3.36883 0 0 3.36883 -385.026 -227.315)"/><path d="M491.24 264.732c-13.358 4.074-20.779 10.832-26.174 18.502-3.53 1.643-6.24 4.375-8.22 8.084v20.143l-2.989 1.725v47.605l3.125.684c1.952 4.838 4.675 8.976 8.633 11.99-3.486-7.382-3.892-15.072-3.767-22.815-4.47-1.984-7.228-5.591-4.797-14.113 2.412-6.425 19.016-14.864 27.062-16.17 14.527-8.501 30.679-11.154 47.207 0 9.534 1.756 18.939 5.12 27.705 16.59v-45.639c-9.382-9.776-16.185-21.596-34.351-26.586v2.743H491.24zm16.276 4.014h.707c15.094.04 30.202 3.813 38.511 11.2-25.307-11.64-50.902-13.366-76.94 0 8.124-7.429 22.865-11.124 37.722-11.2zm.3 3.797c.262 0 .524.002.786.004 16.74.13 33.364 4.687 41.552 13.285-27.57-14.702-55.468-16.287-83.812 0 8.389-8.83 24.472-13.142 40.69-13.285.26-.002.523-.004.784-.004zm-2.052 2.742h2.74v5.483l7.81-.002 9.182 10.14c6.934 1.003 14.28 3.235 19.938 7.522v1.935l6.37 4.52v8.086c-26.826-13.882-55.488-16.756-87.421 0v-8.633l5.344-3.973v-1.935c6.714-5.185 13.838-6.457 20.552-7.522l9.182-10.14h6.303zm1.181 27.406c.943-.01 1.974 2.29 1.383 5.618 11.368-.281 16.676 3.968 21.28 7.947-12.344-5.914-27.058-7.369-42.753-.137 5.39-5.65 11.981-7.288 18.909-7.81-.32-3.832.338-5.48 1.09-5.61a.708.708 0 0 1 .091-.008zm25.565 15.715c9.644.34 18.3 2.718 23.836 11.53-6.892-6.403-15.148-9.492-23.836-11.53zm-49.211.176c-8.689 2.038-16.945 5.127-23.836 11.53 5.536-8.812 14.192-11.19 23.836-11.53z" style="stroke:none;stroke-width:.999999px;stroke-linecap:butt;stroke-linejoin:miter;stroke-opacity:1" transform="matrix(.89134 0 0 .89134 -385.026 -227.315)"/><path d="m130.795 70.268.564-1.717h6.102l.615 1.717" style="stroke:#000;stroke-width:.264583px;stroke-linecap:butt;stroke-linejoin:miter;stroke-opacity:1" transform="matrix(3.36883 0 0 3.36883 -385.026 -227.315)"/><path d="M131.59 70.268h5.64l-.234-.898h-5.124z" style="stroke:none;stroke-width:.264583px;stroke-linecap:butt;stroke-linejoin:miter;stroke-opacity:1" transform="matrix(3.36883 0 0 3.36883 -385.026 -227.315)"/><path d="m126.548 89.676-.943.69v.507c-3.91 2.804-1.025 14.996 9.227 15.608 6.909-.246 11.85-7.797 10.514-14.212L143.6 90.85v-.508l-1.105-.58" style="stroke:#000;stroke-width:.529167;stroke-linecap:butt;stroke-linejoin:miter;stroke-miterlimit:4;stroke-dasharray:none;stroke-opacity:1" transform="matrix(3.36883 0 0 3.36883 -385.026 -227.315)"/><path d="M508.709 324.777c-.168 0-.338.002-.51.006-5.55.24-10.954.917-14.726 6.493-5.65 1.768-10.89 3.163-15.8 6.906 2.835 4.492-.912 7.086-.9 10.533.027 9.26 9.622 15.15 15.149 22.576 5.19-10.476 29.66-11.421 34.785-1.453.847-11.369 14.137-8.476 14.049-21.414l-1.076-9.695c-4.072-2.178-4.516-4.536-13.168-6.485 1.115 5.435-2.122 7.476-3.25 6.15-2.232-2.621 1.968-2.138 1.603-6.345-3.303-.248-5.589-7.269-16.156-7.272zm-10.121 5.1c.062 0 .124 0 .185.002 3.7.107 6.907 4.607 9.91 5.271 2.81-.422 6.649-5.091 9.116-4.742 8.713 1.836-.416 11.1-.686 2.32-2.99 3.972-4.436 4.276-8.332 4.553-5.602.427-5.98-4.274-10.851-4.261 2.277 4.522-3.016 5.852-3.489.095.144-1.486.875-2.737 3.584-3.197a4.5 4.5 0 0 1 .563-.041zm-7.15 3.82 5.523 5.524c-4.44-.747-5.99-2.711-5.524-5.524zm13.04 8.666c1.135.007 2.342.087 3.626.248a49.931 49.931 0 0 1 4.166-.045c2.144.072 4.01.298 5.636.64 9.9 2.078 10.849 8.492 10.739 11.128-4.188-4.046-9.032-7.622-14.147-8.041-3.71 1.54-6.525 3.09-12.111 0-5.68.296-9.027 5.441-13.178 8.914-.957-3.89 2.486-12.692 14.787-12.842.16-.002.32-.003.483-.002zm4.743 6.67c6.918-.026 13.823 1.322 15.258 4.237-5.848-1.61-11.4-1.939-16.473-.194-4.935-2.315-9.661-1.295-14.34.485.787-2.826 7.749-4.404 14.885-4.522.223-.004.447-.005.67-.006zm-17.008 6.756c9.955.98 20.565 1.086 32.07 0-1.135 4.026-30.868 5.735-32.07 0zm15.986 4.7c3.815 0 7.694.29 11.627.822-7.733.254-15.39.358-22.865.097 3.675-.63 7.423-.92 11.238-.92z" style="stroke:none;stroke-width:.999999px;stroke-linecap:butt;stroke-linejoin:miter;stroke-opacity:1" transform="matrix(.89134 0 0 .89134 -385.026 -227.315)"/><path d="M121.669 90.265c.244-1.25 3.934-3.698 6.87-4.256 3.56-2.087 7.225-3.33 11.46-.077 2.59.463 5.078 1.352 7.126 4.05.485 2.544-.901 2.336-1.615.565-1.289-1.946-3.335-3.104-6.127-3.41-4.624-3.735-7.596-2.277-10.331-.077-2.189.6-4.257 1.35-5.435 3.23-.42 2.618-1.952 1.767-1.948-.025zM147.818 91.444c-.125.966-.6 1.349-1.128 1.64.5 2.27-.224 3.89-.846 5.564 1.847-1.767 2.165-4.35 1.974-7.204z" style="stroke:none;stroke-width:.264583px;stroke-linecap:butt;stroke-linejoin:miter;stroke-opacity:1" transform="matrix(3.36883 0 0 3.36883 -385.026 -227.315)"/><path d="m148.482 82.29 2.284 1.443v10.235l-2.284 1.101z" style="stroke:none;stroke-width:.320422px;stroke-linecap:butt;stroke-linejoin:miter;stroke-opacity:1" transform="matrix(3.36883 0 0 3.36883 -385.026 -227.315)"/></svg>