<svg xmlns="http://www.w3.org/2000/svg" xml:space="preserve" id="Layer_4_1_" x="0" y="0" style="enable-background:new 0 0 37 37" version="1.1" viewBox="0 0 37 37"><style id="style2" type="text/css">.st0{}</style><g id="g888" ><path id="polygon4" d="m6.9 6.8-.6.6.3 6.8.7-.1z" class="st0" style=""/><path id="path6" d="m30.3 14.4-.5 5.6h-.6l.5-5.6c-.5-.1-.7-.2-.7-.6 0-.5.5-3.1.4-3.6-.1-.5-.4-2.8-.9-3.8s-1.2-2.3-2.1-3c-.9-.7-2.1-1.7-3.1-2s-2.9-1-4.8-1-3.8.6-4.8 1-2.2 1.3-3.1 2c-.9.7-1.6 2-2.1 3s-.8 3.3-.9 3.8c0 .5.4 3.1.4 3.6 0 .4-.2.5-.7.6H7v.6h.3l.4 5h-.6l-.5-5.6c-.9 0-1.2.9-1.2.9s.4 5.3.4 6.2c0 .9.9 1.2.9 1.2H8l-.2-2.6h.6l.2 2.6h.5c.1.9.4 3.1.7 3.9.4 1 .9 2.4 1.5 3.3.6.9 3.8 4.2 4.7 4.7.9.5 2.9 1.8 3.1 2.1 0 0 .7-1 1.5-1.6.8-.6 3.3-3 3.8-3.6.5-.6 1.7-1.5 2.6-3.9.6-1.7 1-3.8 1.2-4.9h.5l.2-2.6h.6l-.5 2.6 1.2.1s.9-.4.9-1.2c0-.9.4-6.2.4-6.2s-.3-.9-1.2-1zM10.1 5.2c1.3-1.6 4.3-3.7 8.4-3.7s7.1 2.1 8.4 3.7c1.3 1.6 1.5 3.7 1.6 5.4.1 1.6-.5 2.2-.5 2.2-.1-.5-.3-.8-1.1-.9-.8-.1-1-.4-1-.4-1.6-3.2-7.3-3.2-7.3-3.2s-5.8-.1-7.3 3.2c0 0-.2.2-1 .4s-1 .4-1.1.9c0 0-.5-.6-.5-2.2-.1-1.7.2-3.8 1.4-5.4zm17 18.4c-.2.7-1.2 4.5-1.3 4.9-.1.4-.3.6-1.1 1.5-.7.9-3 2.8-3.4 3.2-.4.4-2.4 2.2-2.6 2.1-.2 0-1-.5-1.9-1.2-.9-.6-4.4-3.7-4.9-4.4-.4-.7-1.4-3.3-1.8-4.8-.4-1.5-.7-4.4-.7-4.4 3.8 2.2 7.1 3.1 7.7 3.1s1.1.5 1.1.5h.8c1.7 0 8.4-2.7 8.4-2.7s-.1 1.5-.3 2.2zm-11.2-5.7c0 1.4-1.1 2.5-2.5 2.5s-2.5-1.1-2.5-2.5 1.1-2.5 2.5-2.5c1.3-.1 2.5 1.1 2.5 2.5zM14.5 14c0-.4.3-.6.6-.6.4 0 .6.3.6.6s-.3.6-.6.6-.6-.3-.6-.6zm2.1 5.1c0-.4.3-.7.7-.7.4 0 .7.3.7.7 0 .4-.3.7-.7.7-.4-.1-.7-.4-.7-.7zm2.5 0c0-.4.3-.7.7-.7.4 0 .7.3.7.7 0 .4-.3.7-.7.7-.4-.1-.7-.4-.7-.7zm4.6-3.8c1.4 0 2.5 1.1 2.5 2.5s-1.1 2.5-2.5 2.5-2.5-1.1-2.5-2.5c-.1-1.3 1.1-2.5 2.5-2.5zM21.2 14c0-.4.3-.6.6-.6.4 0 .6.3.6.6s-.3.6-.6.6-.6-.3-.6-.6zm7.5 1-.1 2.2h-.7v-2.3c0-.4-1-.5-1.3-.5-.3 0-.4-.4-.4-.4v-1l-7.7-.2-7.7.2v.8s-.1.4-.4.4-1.3.1-1.3.5V17h-.7l-.1-2s-.1-.2-.2-.2c0 0 0-1 1.1-1.5s1.1-.1 1.4-.5c.3-.3.9-1.8 2.4-2.5 1.4-.7 2.7-1 5.5-1s4.1.3 5.5 1c1.4.7 2.1 2.1 2.4 2.5.3.3.4 0 1.4.5 1.1.5 1.1 1.5 1.1 1.5-.1 0-.2.2-.2.2z" class="st0" style=""/><path id="path8" d="m10.8 21.8 1.3.6s-.5.7-.6 1.1c0 .4-.2 1.5-.2 1.5s-.6-1.9-.5-3.2z" class="st0" style=""/><path id="path10" d="m12.9 22.6 1.5.5s-.5 1.3-.5 1.8v1.9s-.6-1.4-.7-2.1c-.1-.7-.5-1.2-.3-2.1z" class="st0" style=""/><path id="path12" d="m15.2 23.3 1.3.5s-.9 1.5-1.1 3.7c.1 0-.4-3-.2-4.2z" class="st0" style=""/><path id="path14" d="m17.2 24 1.7.4s.1.2-.3.9-1.1 2.7-1.2 3.4c-.1.1-.3-4.1-.2-4.7z" class="st0" style=""/><path id="path16" d="m19.5 24.4 1.4-.3s-.4 3.7-.5 4.3c0 0-.2-1.2-.4-1.8-.2-.5-.4-1.8-.5-2.2z" class="st0" style=""/><path id="path18" d="m23 23.6-1.3.5s.4.6.4 1.5c0 .8.1 1.3.1 1.3s.2-1.3.6-2.3.2-1 .2-1z" class="st0" style=""/><path id="path20" d="m24.6 23.1-1.1.4s.4.3.4 1.1c0 .7.1 1.1.1 1.1s.4-.4.4-1.1.2-1.3.2-1.5z" class="st0" style=""/><path id="path22" d="m26.2 22.4-1 .5s.4.3.4.9c0 .6.2.8.1 1 0 0 .2-.2.3-1 0-.9.4-.5.2-1.4z" class="st0" style=""/><path id="path24" d="M13 30.2 12 29s.5-.6.7-1.6c0 0 .3 1.9.3 2.8z" class="st0" style=""/><path id="path26" d="m13.5 30.7 1 .9s-.4-1.4.1-2.9c0 0-.7.8-1.1 2z" class="st0" style=""/><path id="path28" d="m16.4 33-1.2-.9s.5-2 1.1-3.4c0-.1-.1 3.4.1 4.3z" class="st0" style=""/><path id="path30" d="m18.2 34.6-1.3-1.3s.5-.4.6-.9c.1-.5.7-2.2.8-3.7 0-.1.7 2.2-.1 5.9z" class="st0" style=""/><path id="path32" d="m20.5 32.8-1.2 1.4s.7-3.9.5-4.8c0 0 .7 2.1.7 3.4z" class="st0" style=""/><path id="path34" d="m22.6 31.2-1.5 1.3s.3-.6.3-1 .5-2.3.4-3c.1 0 .7 1.6.8 2.7z" class="st0" style=""/><path id="path36" d="m24.2 29.8-1 .8s.3-.6.4-1.2.2-1 0-1.4c-.1 0 .6.6.6 1.8z" class="st0" style=""/><path id="path38" d="m25.6 28-.9 1.4s.2-.4.2-1.2.2-.9.1-1.5c0 0 .7.6.6 1.3z" class="st0" style=""/></g></svg>