<svg xmlns="http://www.w3.org/2000/svg" xml:space="preserve" style="enable-background:new 0 0 37 37" viewBox="0 0 37 37"><path d="M18.5.8C8.7.8.8 8.7.8 18.5c0 9.8 7.9 17.8 17.7 17.8 9.8 0 17.8-7.9 17.8-17.8 0-9.8-8-17.7-17.8-17.7zm5.1 31.3h.1c-.3.1-.6.2-1 .3-1.3.5-2.8.7-4.2.7-1.5 0-2.9-.3-4.3-.7-.3-.1-.6-.2-1-.3h.1c-4.7-2.1-8-6.9-8-12.5v-.4h2.3v.4c0 6.2 4.9 11.3 10.8 11.3s10.8-5.1 10.8-11.3v-.4h2.3v.4c.1 5.6-3.2 10.4-7.9 12.5zm-11-12.5v-8.4h2.7v8.4h-2.7zm9.1 0v-8.4h2.7v8.4h-2.7zm10.4-.4v-.7c0-7.4-6.1-13.4-13.6-13.4s-13.6 6-13.6 13.4v.7H3.8v-.7c0-8 6.6-14.5 14.7-14.5s14.7 6.5 14.7 14.5v.7h-1.1z" /></svg>