<svg xmlns="http://www.w3.org/2000/svg" version="1.0" viewBox="0 0 384 384"><g style=""><g ><path d="M503 2958c-25.31-268.057-86.457-513.715-153-756 29.056-176.48 98.895-398.649 230-480 105.842-54.42 385.419-74.859 438.156-150.078-89.815 305.33-96.206 394.487-28 599C845.506 2238.737 761.266 2316.965 658 2430c272.773 181.77 573.794 251.956 835 7 271.182-305.05-73.683-518.972-73.002-764.584 15.037-215.44 215.104-582.868 423.002-572.416 206.946.151 419.355 374.163 417 572.416-2.68 290.335-354.37 602.893-44 787.584 312.03 195.049 570.539 96.967 806-30-79.035-123.006-209.03-199.255-335.708-259.958 50.413-194.433 23.706-392.584-6.292-592.042 139.914 138.816 273.745 94.328 420 144 118.378 50.149 220.415 312.817 230 480-72.536 253.984-123.24 505.238-154 754-299.533 123.335-632.037 164.241-973 184-3.41-286.9-137.983-389.97-364-392.113-267.62-1.583-359 195.922-359 392.113-335.71-27.188-663.407-81.088-977-182Zm1336-329c400.319 15.83 597.163 322.024 999 276 436.75-47.906 289.362-318.737 414.344-673.038-161.494 220.94-8.633 579.501-412.51 582.038-460.518-5.301-658.316-296.243-1000.834-303.604-371.987-.539-689.965 342.56-1021.547 316.501C477.3 2786.21 607.784 2479.5 454 2256c139.101 353.54-42.52 613.41 361 645 376.707 35.49 558.128-261.69 1024-272zm-1091.01 14.224c-4.376-30.26-71.717-123.34-92.395-126.38C558.137 2592.237 611.805 2626.14 629 2648c32.523 33.99 67.236 40.95 118.99-4.776zM3093 2590l-71.146-80.075C2978.598 2558.39 2908.016 2628.497 2960 2667c45.699 37.761 93.095-30.304 133-77zm-1043.92-374.998c-59.182 80.848-59.644 80.672-54 204.998 63.334-103.51 62.12-101.798 54-204.998zm-406.928 0c-12.128 121.72-11.093 121.177 55 204.998 16.089-117.079 16.315-117.2-55-204.998zm15.998-153c-11.58 124.978-10.79 124.554 53.002 203 16.863-114.585 17.465-115.112-53.002-203zm378.93 0c-59.995 96.21-60.313 97.259-53 203 61.454-104.33 59.97-105.266 53-203zM698 1918c49.186-64.325 52.277-106.288 6-129-66.684-30.735-123.798-23.191-167 40-28 44-127 262-127 281 0 21 104 123 109 108zm2580 200-52-117c-94-213-117-238-202-225-73.64 5.34-62.98 98.002-27 152l171 292zm-1149-445.584c-.983-143.577-122.516-364.197-290-368.416-153.555 1.63-296.055 225.966-288 368.416-13.931 147.152 171.968 361.178 288 357.584 102.643 5.63 304.352-186 290-357.584ZM856 1800c-42.176 15.443-64.132 54.9-76 100 0 12 50 70 60 70 60.229-8.572 44.483-165.718 16-170zm2047 99c9.841-27.579-37.177-92.405-103-100 2.441 53.069-13.581 166.226 37 170 27.859 1.421 67.709-46.66 66-70z" style="" transform="matrix(.12282 0 0 -.12282 -33.987 436.827)"/></g><path d="M1664.462 1672.416 1839 1491.914l173 180.502-173 179.42Zm144.243-76.408-76.998 76.405 76.999 74.592zm143.462 76.405-80.002-76.405v150.996zM1565 3140c-.747-219.352 133.892-324.699 274-325 183.523-2.198 271.538 143.708 274 325-182.667 12.177-365.333 13.91-548 0zM1057 2442c-22-24-21-35 2-56 25-23 118-23 160-1 26 13 30 19 21 35-21 39-154 55-183 22zM2483 2449.119c-45.54-16.643-61.644-44.627-22-64 42-22 135-22 160 1 30.108 27.512 20.335 51.791-10.856 64.443-28.895 11.721-76.17 13.464-127.144-1.443z" style="" transform="matrix(.12282 0 0 -.12282 -33.987 436.827)"/><path d="M1082 2158.999c-17.551-46.846-47.567-234.26-43-241.252 15.916-373.232 165.941-712.084 288-1080.747 342.985 16.738 684.86 14.62 1026 0 168.976 353.301 278.062 720.57 293.119 1080.747-20.56 53.55-35.606 180.41-50.119 241.252-124.232 32.29-219.654 76.26-325.5 149-248.7-151.248 56.317-325.983 56.5-635.583-16.107-339.258-257.856-680.615-484-670.416-367.86 33.464-448.834 500.977-485.834 670.416-33.634 191.811 329.043 486.397 74.834 635.583-106.34-69.589-225.255-112.54-350-149z" style="" transform="matrix(.12282 0 0 -.12282 -33.987 436.827)"/></g></svg>