<svg xmlns="http://www.w3.org/2000/svg" viewBox="0 0 135.467 135.467"><path d="M59.63 7.153c-11.293 1.515-10.596 1.445-11.332 2.59-1.541 2.784-4.073 4.616-4.8 8.137-.585 2.985-2.513 3.246-2.586 6.226-.246 3.559-2.221 5.561-1.74 8.724.761 4.991-1.097 4.89-1.378 16.388-.034 4.48-1.805 10.118.14 13.421 1.13 0 1.862-6.991 1.367-13.058-.118-3.833 1.503-7.366 1.252-10.647-.468-3.68 2.253-7.07 2.38-10.296.304-3.93 3.46-4.663 2.769-8.297-.895-2.916 1.685-3.633 1.755-5.853.334-2.168 1.592-3.518 2.91-5.17-1.286 3.55-2.404 6.438-1.148 12.21.725 3.188-1.274 3.995-2.502 6.441 4.025.33 12.516-.714 15.227 1.656 3.346 1.367 4.41 8.986 4.106 13.946-2.612-4.824-12.009-8.535-17.644-8.831-2.375-.133-4.694-.211-4.586 2.053.006 1.384.453 1.558 4.31 1.688 3.31.172 10.047 1.929 11.385 4.98-3.672-2.609-9.431-4.39-13.841-3.498-2.584.375-1.684 1.587.103 1.117.954-.366 1.07-.18.585.939-1.562 3.598.335 6.695 3.847 6.695 2.243 0 3.809-1.85 3.809-4.381 0-1.169.21-2.007.527-2.007.738 0 7.056 6.42 6.635 6.742-.861.658-15.84 2.573-17.248 2.205-1.524-.398-1.568-.307-.737 1.517 1.305 3.13-.782 5.09-.832 8.302 0 2.453-3.307 5.413-5.449 4.875-5.045-2.335-5.532 11.72-1.908 13.568 1.257 1.217 5.863 8.915 5.062 10.615-3.083-4.58-3.927-6.948-7.884-10.392-.444 20.07 10.804 45.319 30.097 48.852 3.316.8 19.618 1.338 23.017-.078 21.012-8.684 31.541-32.937 34.134-52.471-2.278 1.02-12.4 13.494-11.753 13.784 3.24-13.126 13.574-16.1 15.33-31.195 1.663-15.693-4.527-32.421-9.122-43.395C99.452 5.107 75.598 5.05 59.63 7.153Zm-19.997 3.011c-4.538 2.147-9.22 6.354-8.454 7.595.273.44-.69 1.888-2.14 3.216-3.065 2.482-2.307 5.038-3.757 7.885-1.552 3.075.46 5.628-2.097 7.335-3.25 2.942-1.969 6.625.28 8.944-2.531-.825-3.892-2.04-3.317.918.25 1.255.173 2.642-.172 3.084-1.445 2.89-.725 6.233-2.419 9.1-1.125 2.202 1.77 3.948 2.49 6.472 1.846.828 2.856-1.449 2.728-4.579-.702-2.55 2.414-7.677 1.852-9.708-.498-2.532 2.404-3.762 2.5-6.078-.362-1.24 3.627-4.2 3.98-11.337-.569-4.327 3.115-9.973 3.292-13.815.427-1.557 1.318-3.252 2.562-4.066-.696 2.08-1.413 4.552-1.855 6.52-.586 2.99-2.562 5.93-1.88 8.877 1.036 5.222 2.107 10.615-.698 12.735-3.596 3.565-.872 6.064-2.864 9.953-1.58 2.23-.684 4.438-1.717 6.196-1.03.964-1.682 6.16-.874 7.582 5.484-4.76 3.994-13.533 6.718-16.329 5.966-6.843 1.536-17.588 4.584-23.07 1.722-2.708.45-4.95 2.089-7.462 2.278-2.761.804-5.562 4.441-7.965 6.48-5.367-1.488-3.934-5.272-2.003zm-9.869 3.869c-6.322.86-5.297 5.93-9.265 9.891-2.302 1.695-2.832 4.549-4.435 6.305-2.017 2.062-.916 9.485-2.477 8.37-2.502.646-.802 9.997-2.238 8.656-1.64-.11-.364 5.165-2.34 7.025-1.816 1.89-2.554 4.536-4.107 6.42-1.652 1.976-2.244 4.795-1.223 5.817 1.372 1.371 5.312-1.524 5.312-3.904.363-2.149 2.843-3.258 2.902-5.416.148-2.557 2.836-4.095 2.902-6.566.41-3.557 5.077-7.5 4.55-10.741-.313-3.402 3.796-4.707 3.534-7.844-.458-2.69 2.202-5.059 1.624-7.603-.117-2.963 5.344-5.253 5.523-7.545.17-1.858 2.311-2.852-.262-2.865zm82.798 19.422c1.048 1.577 1.03 1.588-1.275.784-4.906-1.62-26.913-1.523-29.35 8.4-.228-3.498 1.183-10.373 3.79-12.86 6.278-3.533 23.08-1.787 26.835 3.676zm-2.762 8.79c-7.71-3.776-16.302-3.16-21.434 1.233 4.23-6.894 18.686-5.732 21.434-1.232zM29.14 44.14c1.85-1.664 4.097-4.03 3.682-4.977-1.023-1.324-3.172 4.123-3.682 4.977zm68.582-3.096c1.947-.18 3.527 1.418 3.554 3.01a3.27 3.27 0 1 1-3.554-3.01zm4.078.082c2.893.38 6.774 1.465 8.704 3.675-1.57 10.37-20.228 5.828-23.842 4.28-.416-.336 5.888-6.755 6.635-6.755.316 0 .622 1.122.622 2.29 0 2.519 2.133 3.795 4.333 3.78 3.08-.022 4.93-2.858 3.625-5.297-.782-1.461-.945-1.97-.077-1.973zm-48.363 3.266c.144 1.776-1.285 3.327-3.198 3.47-1.914.143-3.592-1.176-3.755-2.951-.163-1.775 1.25-3.34 3.16-3.5 1.846-.103 3.698 1.405 3.793 2.98zm77.16.28c-1.849-.385-3.803 16.98-4.805 23.914 6.026-3.466 6.44-10.997 6.499-15.511.028-4.384-.825-8.398-1.694-8.403zm-104.195 6.31c0 1.471-.479 3.308-1.065 4.083-2.827 6.39 1.238 6.305 1.768.838.013-1.111.528-2.79 1.144-3.732 2.362-4.58-1.033-8.896-1.847-1.189zm-8.766-2.985c-1.485.11-1.353 4.451-2.455 6.343-1.559 2.757-.802 5.986-2.195 8.76-1.258 2.412-1.4 4.343-.368 4.98 1.133.033.636-1.939.874-3.097.823.878 1.195 2.972.6 4.144-.863 1.508.09 2.995.332 4.347 3.924 12.557 4.703 4.277 6.97-1.766-.546 4.4-1.794 12.443.247 15.79 2.355 4.32-.723 5.016 1.152 9.81 1.736 2.308.925 10.056 2.304 11.617 2.013 2.013 2.493.851 2.564-6.203.067-6.786-.842-9.987-2.283-13.965-.677-2.563-.926-12.552-.15-16.793l1.566 16.7c4.323-.364 1.101-10.138 2.863-13.673 1.23-1.752-.474-5.628-.034-6.477-1.832-.237-6.558-.245-4.632-3.737 1.535-2.722-.082-2.58-.765-1.034-1.595 2.905-5.196 3.347-6.495.074-1.182-2.416-2.99-3.766-1.549-6.655.792-1.574 2.534-9.242 1.454-9.165zm12.545 18.222c.92-.611 2.441-2.147 1.86-2.536-.68-.268-1.608 1.685-1.86 2.536zm101.915-1.358c-.536 2.101-2.549 3.886-4.134 5.033-3.312 2.36-3.64 2.881-4.68 7.398-2.07 6.638-1.906 7.168 3.083 3.279 3.07-2.635 6.144-11.016 5.731-15.71zm-71.2 3.917c.225-.008.313.618.318 1.998.507 6.163 5.737 2.935 9.037 5.308 2.18 1.274 5.271 1.491 7.34 0 3.301-2.951 8.612.84 9.037-5.308.008-2.007.19-2.418.714-1.607 1.156 1.788 1.129 6.221-.601 6.78-3.715.98-9.512 1.28-9.753 5.57.02 1.645-4.618 1.275-4.682 0-2.266-5.492-9.19-3.44-11.331-5.697-1.354-.645-1.745-5.8-.08-7.044zm7.06 18.014c3.534.355 7.35.762 10.449.137 3.204-.693 8.784 1.298 12.463 4.448 3.67 3.141 3.869 4.6.646 4.73l-35.186.05c-3.175-.32-2.993-1.665.647-4.78 3.161-2.707 7.726-4.558 10.98-4.585zm-5.642 11.033h23.215v3.045c-.392 7.24-24.022 7.094-23.215 0zm-5.67.333c2.095-.011 3.305.487 3.12 2.524-.041 1.135-.258 1.308-1.274.524l-3.432-2.972a22.528 22.528 0 0 1 1.586-.076zm33.689.03c1.966 0 2.142.148 1.329 1.128-.515.62-1.534 1.448-2.265 1.839-1.126.602-1.33.43-1.33-1.128 0-1.576.325-1.84 2.266-1.84z" style="stroke-width:.725474"/></svg>