<svg xmlns="http://www.w3.org/2000/svg" viewBox="0 0 135.467 135.467"><defs><filter id="a" width="1" height="1" x="0" y="0" style="color-interpolation-filters:sRGB"><feGaussianBlur stdDeviation=".001"/></filter></defs><g><path d="M34.643 128.042c-2.773-1.358-5.401-2.47-5.84-2.47-1.01 0-3.053-2.076-3.053-3.103 0-.45-.22-.777-.52-.777-.585 0-1.477-1.529-1.74-2.982-.096-.528-.327-1.144-.513-1.37-.187-.226-.54-1.38-.784-2.566-.301-1.46-.607-2.143-.946-2.117-.293.023-1.255-1.397-2.32-3.428-1.598-3.043-1.817-3.712-1.79-5.468.03-1.949.144-2.765.663-4.71.14-.522.085-1.231-.122-1.587-.301-.518-.376-.316-.384 1.044-.008 1.181-.173 1.749-.55 1.894-.359.137-.464.448-.313.924.19.597.117.671-.43.442a9.985 9.985 0 0 0-1.429-.443c-1.246-.27-3.027-2.526-3.531-4.47-.613-2.364-.578-2.928.303-4.796.637-1.353.738-2.162.683-5.468-.043-2.56.118-4.573.475-5.912.55-2.072 2.226-5.687 3.415-7.372.812-1.151.83-1.4.081-1.112-.499.191-.545.032-.333-1.158.496-2.791 3.338-7.2 4.64-7.2.23 0 .637-.264.904-.587.266-.323 1.129-.872 1.917-1.222s1.73-.964 2.093-1.365c.825-.911 2.7-2.084 3.774-2.36.447-.116 2.084-.317 3.636-.448s3.298-.438 3.88-.681c.582-.243 1.138-.428 1.235-.41.097.019.86-.069 1.695-.194.968-.145 2.413-.01 3.982.37 1.935.471 2.82.523 4.128.242 1.655-.355 4.513-.188 5.188.303.194.142.776.358 1.293.481.517.124 2.163 1.415 3.657 2.871 1.494 1.456 2.913 2.647 3.154 2.647.24 0 1.452.93 2.693 2.068 2.66 2.44 4.303 5.388 5.037 9.045.273 1.358 1.087 3.977 1.809 5.82 1.476 3.768 1.952 7.787 1.253 10.583a75.686 75.686 0 0 0-.577 2.47c-.226 1.105-1.95 3.954-2.505 4.137-.227.075-.484-.23-.57-.677-.104-.548-.17-.396-.203.464-.13 3.485-1.106 4.61-1.106 1.276 0-1.389-.097-1.717-.415-1.4-.317.318-.276 1.14.177 3.511.467 2.443.51 3.39.203 4.488-.398 1.422-3.334 7.11-3.828 7.417-.15.092-.369-.74-.486-1.851-.29-2.761.732-5.523 1.4-3.783.638 1.664 2.068-1.258 1.695-3.465-.224-1.325-.28-1.384-.729-.77-.883 1.208-.65-3.848.264-5.736.852-1.76 1.457-2.136 2.34-1.452.49.38.479.316-.058-.313-.37-.433-.873-.788-1.118-.788-.626 0-1.915 2.2-2.155 3.68l-.201 1.239-1.985-.208c-1.422-.148-2.373-.045-3.35.363-.751.314-1.653.57-2.004.57-.811 0-1.195 1.166-.693 2.104.595 1.112 1.748.922 1.998-.33.115-.575.468-1.12.785-1.207 1.92-.536 2.972-.58 3.913-.163 1.243.55 1.235.937-.113 5.171-.512 1.61-.932 3.244-.932 3.63 0 .386-.318 1.325-.707 2.087-.388.762-.876 2.177-1.084 3.145-.254 1.185-.59 1.828-1.028 1.967-1.369.434-2.571 1.772-3.727 4.148-.66 1.356-1.402 2.71-1.649 3.009-.644.78-3.142 1.818-4.636 1.924-.703.05-1.279.22-1.28.374 0 .374 2.376.102 3.662-.418 1.932-.78 2.94-1.787 4.135-4.122.751-1.47 1.726-2.749 2.61-3.427a88.222 88.222 0 0 0 1.704-1.331c.16-.136.44-.941.622-1.79.407-1.899 1.382-4.187 1.785-4.187.547 0 .11 3.827-.646 5.644a7.31 7.31 0 0 0-.343 1.162c-.512 2.625-4.635 8.01-6.13 8.01-.685 0-3.532 1.266-4.93 2.191-.485.321-1.311.69-1.837.819-.526.13-1.14.457-1.366.73-.226.271-.788.494-1.25.494-.46 0-.838.159-.838.353 0 .2-1.029.352-2.381.352-2.233 0-2.697-.154-7.423-2.47zm1.837-2.343c.18-.47.127-.5-.284-.159-.396.329-.792.301-1.81-.124-.717-.3-1.415-.475-1.552-.39-.726.449-2.448-1.438-3.917-4.292-1.3-2.527-1.829-3.21-2.865-3.698-1.126-.53-1.375-.908-2.209-3.351-2.373-6.953-3.76-11.589-3.665-12.248.079-.545.47-.78 1.622-.976 2.083-.354 4.03.313 4.303 1.474.231.983 1.34 1.385 1.804.654.63-.996.276-1.671-1.358-2.584-1.388-.776-2.05-.92-3.918-.852l-2.248.082-1.109-2.089c-.967-1.822-1.256-2.103-2.256-2.2-1.013-.097-1.146-.01-1.146.761 0 .69.143.834.687.692.377-.099.741-.44.808-.76.085-.407.41-.132 1.077.91.84 1.313.951 1.823.92 4.234-.021 1.696-.128 2.405-.28 1.859-.216-.775-.276-.804-.494-.236-.493 1.281-.265 3.665.43 4.518.699.857.74.83 1.172-.747.233-.847 1.364 1.171 1.416 2.524.024.645-.085 1.65-.242 2.231-.267.989-.251 1.013.241.374.51-.661.547-.647 1.1.423.315.61.74 1.887.944 2.838.31 1.449.68 1.996 2.266 3.366 1.183 1.022 2.225 2.333 2.774 3.491.483 1.02 1.25 2.196 1.703 2.612 2.144 1.969 5.605 2.915 6.086 1.663zm10.119-1.676c-1.06-1.128-3.503-1.773-5.722-1.51-1.892.224-3.85 1.156-4.118 1.96-.092.274.321.123.967-.354.981-.725 1.483-.826 3.837-.768 3.72.09 3.828.115 4.702 1.044.424.452.851.743.948.646.097-.097-.18-.556-.614-1.018zm-2.476-4.992c.579-.3.967-.682.862-.852-.104-.169.01-.388.253-.486.244-.098-1.19-.191-3.185-.206-3.496-.027-3.615-.003-3.259.662.204.38.646.851.983 1.048.918.535 3.156.45 4.346-.166zm-5.28-4.275c2.628-.594 3.273-.557 8.25.467.933.192.811.024-1.032-1.42-1.956-1.53-2.226-1.636-4.2-1.636-1.758 0-2.321.162-3.378.969-.697.533-1.393.97-1.546.97-.152 0-.39.176-.529.39-.138.213-.49.478-.78.589-1.141.434.644.251 3.216-.33zm2.283-6.646c-.759-.819-2.986-1.316-2.52-.562.108.176.524.234.924.13.49-.129.9.055 1.255.562.29.413.67.752.843.752.174 0-.052-.397-.502-.882zm2.344.176c.243-.388.84-.727 1.326-.753.86-.047.862-.053.07-.204-.558-.107-1.083.132-1.66.754-.463.5-.692.909-.51.909.184 0 .532-.317.774-.706zm1.212-5.903c-.236-.77-.452-1.07-.518-.724-.104.54.478 2.041.791 2.041.072 0-.05-.592-.273-1.317zm-5.155.034c.194-.512.288-.997.208-1.077-.08-.08-.314.34-.52.931-.46 1.316-.182 1.445.312.146zm-23.414-3.369c-.113-.281-.196-.198-.213.213-.016.372.068.58.185.463.117-.117.13-.421.028-.676zm-1.394-.86c-.45-2.353 1.499-5.124 3.028-4.306.408.218 1.02.73 1.362 1.139.61.73.62.72.632-.77.007-.934-.327-2.178-.876-3.262-1.002-1.977-.698-2.19 1.13-.796l1.255.957-.257-1.927c-.155-1.163-.592-2.372-1.102-3.05-.464-.617-.844-1.279-.844-1.47 0-.19-.165-.401-.366-.468-.698-.233-1.367-2.951-1.383-5.617-.015-2.72.42-4.69 1.229-5.56.34-.366.327.007-.056 1.588-.562 2.315-.373 5.216.466 7.182.29.68.56 1.416.598 1.637.183 1.04 3.307 2.95 4.827 2.95.99 0 .901-2.1-.242-5.644-.929-2.88-.985-4.604-.341-10.408.064-.582-.102-1.455-.37-1.94-.269-.485-.61-1.504-.759-2.264l-.27-1.38-1.375 1.204c-1.401 1.229-3.37 3.715-3.37 4.256 0 .165.318.3.706.3.388 0 .706.103.706.228s-.859 1.831-1.908 3.792c-2.54 4.746-3.112 6.844-3.121 11.47-.008 3.73.113 4.94.616 6.133.429 1.017.032 1.158-1.47.524-.82-.347-.26 4.384.657 5.55.883 1.123 1.12 1.11.898-.048zm21.023-2.49c-1.312-2.628-5.447-3.45-8.462-1.684-1.674.98-1.96 1.572-.76 1.572.425 0 1.133.34 1.574.754.67.629 1.365.784 4.177.931 1.903.1 3.483.348 3.622.569.578.917.447-.946-.15-2.142zm15.807 1.391c2.685-.144 3.503-.324 4.363-.961.582-.432 1.295-.861 1.583-.955.76-.248-2.058-2.034-3.603-2.285-.71-.115-2.086.046-3.224.376-1.728.503-2.055.743-2.516 1.846-.578 1.383-.748 3.483-.213 2.64.208-.33 1.357-.54 3.61-.66zm16.943-3.542c-.69-.23-.48-1.488.249-1.488.514 0 .706-.355.882-1.637.344-2.512.266-6.762-.129-7.006-.194-.12-.353-.621-.353-1.113s-.318-1.342-.707-1.889c-.39-.546-1.112-2.549-1.606-4.45-.493-1.9-1.311-4.215-1.817-5.145-.893-1.64-4.902-5.829-5.248-5.483-.095.095.023 1.633.26 3.42.37 2.773.359 3.293-.075 3.566-.367.232-.704.053-1.214-.642-.388-.53-1.15-1.44-1.693-2.022l-.988-1.059.854 1.764c1.111 2.295 1.428 3.351 1.006 3.351-.186 0-.99-1.31-1.786-2.91-3-6.035-7.265-9.991-12.51-11.606-2.301-.708-4.109-.75-6.755-.16-.388.087-.843.17-1.01.185-.168.015-.05.419.264.897.313.478.57.94.57 1.024 0 .086-.796-.147-1.768-.516-2.85-1.083-5.286-.797-7.751.911-2.082 1.443-2.99 2.922-3.034 4.943-.034 1.544.102 1.903 1.093 2.88 1.051 1.037 3.05 1.876 4.481 1.88.66.003.534-.799-.277-1.761-.68-.807-1.073-3.306-.49-3.111.255.085.634.435.841.778.534.882 3.162 3.47 4.142 4.079 2.27 1.411 4.482 2.456 5.653 2.672l1.303.24-.669-1.313c-.368-.722-.896-1.572-1.174-1.888-.683-.777-2.422-4.28-2.125-4.28.13 0-.05-.317-.402-.705-.35-.388-.832-.705-1.07-.705-.237 0-.628-.239-.87-.53-.646-.779.37-.708 1.272.089.61.538 4.89 2.724 8.077 4.126.582.256 2.09.734 3.351 1.061 2.978.774 7.835 3.056 9.016 4.237.544.545 1.234.884 1.669.823.607-.086.794.145 1.031 1.271.16.757.236 1.43.17 1.495-.065.066-.957-.689-1.981-1.677-1.651-1.59-2.765-2.237-6.906-4.008-.582-.249-2.17-.809-3.528-1.244-1.358-.436-3.025-1.067-3.704-1.403a293.3 293.3 0 0 0-5.086-2.43c-.178-.08.029.426.46 1.125a34.972 34.972 0 0 1 1.355 2.43c.55 1.116 1.088 1.818 2.851 3.712.449.481.722.968.609 1.082-.114.114-.997.045-1.962-.153-.965-.197-1.755-.326-1.755-.287 0 .04.408.964.906 2.052.864 1.886 2.301 3.355 4.814 4.919 1.056.656 2.934.796 3.276.243.12-.194.069-.353-.113-.353-.495 0-1.199-1.932-1.047-2.877.12-.748.198-.696.822.55.71 1.414 2.61 2.635 2.116 1.36-.577-1.491-.98-3.95-.745-4.552.227-.579.32-.534.81.392.304.576.771 1.266 1.039 1.533.267.267.705.91.972 1.427.536 1.036 4.317 4.637 4.87 4.637.19 0 .24-.278.108-.618-.317-.816-.699-5.38-.45-5.38.106 0 .679.86 1.272 1.912.593 1.05 1.204 1.988 1.357 2.082.153.095.286-1.202.296-2.88.01-1.68.203-3.371.43-3.76.34-.58.414-.207.424 2.117.014 3.18.837 8.79 1.541 10.506l.467 1.136.439-1.411c.241-.776.533-1.65.649-1.94.115-.292.24-.847.276-1.235.66-6.998.498-9.788-.778-13.402-.774-2.196.148-.923 1.035 1.428.72 1.911.787 2.672.757 8.622-.032 6.057-.1 6.708-.934 9.042-.844 2.357-.858 2.504-.231 2.34.512-.134.67.013.67.626 0 .754.037.767.644.218.869-.786 1.203-.74 2.185.306.761.81.868.836 1.177.284.232-.416.21-.65-.07-.744zm-10.019-3.61c-.194-.31-1.305-1.015-2.468-1.564-1.984-.937-2.32-.987-5.386-.804-2.44.146-3.46.357-4.016.833-1.092.936-.975 1.672.225 1.413 3.85-.83 6.24-1.009 8.061-.601 1.229.275 1.905.607 1.905.935 0 .344.33.485 1.017.432.837-.063.954-.177.662-.643zm-31.578-.157c2.124-.887 5.46-1.043 8.105-.38 2.273.571 3.097.524 3.097-.176 0-.178-.665-.645-1.477-1.038-2.247-1.085-6.279-.999-8.655.186-.993.494-1.996 1.13-2.23 1.41-.53.64-.377.64 1.16-.002zm7.321-6.126c0-.16-.39-.658-.866-1.106-.476-.447-.849-.912-.827-1.031.02-.12-.246-.853-.593-1.63-.677-1.51-.748-1.969-.833-5.379l-.056-2.205-1.323-.002c-1.658-.002-3.968-.627-3.968-1.073 0-.185-.29-.336-.645-.336-.566 0-.654.351-.716 2.874-.132 5.366 1.637 8.739 5.065 9.658 1.995.535 4.762.668 4.762.23zm9.878.143c0-.081-.717-.988-1.594-2.014-.876-1.027-2.17-3.034-2.874-4.46-1.142-2.31-1.475-2.69-3.08-3.498-.99-.499-2.22-1.202-2.731-1.563-1.382-.975-1.882-.207-1.579 2.428.472 4.102 2.525 6.752 6.283 8.108 2.058.743 5.575 1.373 5.575 1zm-11.642-12.31c0-.06-.516-.576-1.146-1.146l-1.147-1.036 1.037 1.146c.965 1.069 1.256 1.309 1.256 1.036zM58.7 68.042c-.922-3.137-2.938-6.649-4.35-7.576-1.553-1.022-4.394-1.686-5.96-1.393l-1.172.22 2.936 2.218c3.156 2.384 6.297 5.34 7.876 7.41.539.706 1.037 1.228 1.106 1.159.07-.07-.127-.987-.436-2.038z" style="stroke-width:.352778;filter:url(#a)" transform="matrix(1.7448 0 0 1.7448 -4.305 -95.426)"/></g></svg>