<svg xmlns="http://www.w3.org/2000/svg" xml:space="preserve" id="svg29" style="clip-rule:evenodd;fill-rule:evenodd;image-rendering:optimizeQuality;shape-rendering:geometricPrecision;text-rendering:geometricPrecision" version="1.1"><defs id="defs4"></defs><g id="Layer_x0020_1"><g id="g2319" style="" transform="matrix(1.59768 0 0 1.59768 -133.49 -97.576)"><path id="path295-7" d="m366.739 218.576-8.306-8.672h-5.863v1.94l.78 1.35 1.785 69.875c-.086 2.165-.852 3.397-2.646 4.83l6.694-.286 9.388-12.24z" style="clip-rule:evenodd;fill-rule:evenodd;image-rendering:optimizeQuality;shape-rendering:geometricPrecision;text-rendering:geometricPrecision"/><path id="path451-9" d="M328.924 225.174c12.043-3.318 10.21-11.116 9.068-25.738 5.337 2.764 9.542 6.337 11.66 11.4l2.591 61.41c.482 16.993-7.27 27.009-25.997 27.724 4.465-24.39 8.724-48.813 2.678-74.796z" style="clip-rule:evenodd;fill-rule:evenodd;stroke:none;stroke-opacity:1;image-rendering:optimizeQuality;shape-rendering:geometricPrecision;text-rendering:geometricPrecision"/><path id="path1062-2" d="m317.809 149.37 3.8 2.16-.086 1.21c10.5 17.596 19.038 36.5 11.833 65.9l-4.405 2.59-11.315-16.842c13.952-8.613 3.163-34.545.173-55.017z" style="clip-rule:evenodd;fill-rule:evenodd;stroke:none;stroke-opacity:1;image-rendering:optimizeQuality;shape-rendering:geometricPrecision;text-rendering:geometricPrecision"/><path id="path4208" d="M167.125 327.375 166 326.5l-.25-6.25c-3.013 2.714-5.77 5.88-10.25 6l.125-10.25c-.066-1.394-1.525-3.115-4.25-2.25l-21.875 5.375 3.75-7.875-13.25-2.125-3.25-8.875 6.5-.25 9.875-7.25H125.5c-6.437 6.296-13.243 3.024-20 1 3.048 3.765 7.506 9.938 7.625 11.75l.625 7.625 11.875 2.125-4.125 12.875c5.055-2.13 10.21-3.658 15.5-4.375l-.375-2.625 14.25-3v9.75l-1.25.875v1.625h9.25z" style=";stroke:none;stroke-linecap:butt;stroke-linejoin:miter;stroke-opacity:1"/><path id="path13985" d="m321.242 328.327 4.52-3.543c2.003-1.617 3.424-1.755 3.664 2.077l1.221 9.405c8.423-2.14 10.18-8.214 11.726-14.413 8.436.37 18.043 7.666 25.284.977-4.057-3.464-4.252-7.727-5.13-11.848 12.66.1 16.331-1.193 19.544-12.703-12.34 2.444-23.018-7.413-10.871-7.94l3.053-5.496c-2.728.796-5.456 1.61-8.184.61-5.293 6.797-8.285 13.167 8.428 15.88 1.528 8.933-9.443 6.056-17.833 5.618-1.841 3.575-.477 8.01.855 9.283 2.954 2.084.31 4.022-2.32 3.42-7.365-1.355-13.983-3.04-17.467-6.107.38 7.467 1.636 15.944-4.52 15.879l-1.71-15.635c-2.137 3.532-8.408 4.323-8.428 8.917.265 2.037-.836 3.818-1.832 5.619z" style=";stroke:none;stroke-linecap:butt;stroke-linejoin:miter;stroke-opacity:1"/><path id="path2952" d="M275.56 191.28c1.171 8.147 7.306 13.958 13.924 19.542-11.119 2.03-15.743-2.11-20.52-6.107.286 2.972.802 5.912 0 9.039 13.362-2.186 26.515-3.859 38.11-1.71 6.526 5.328 8.594 12.026 8.793 19.3-10.914-8.616-31.35-7.834-54.72-4.155 1.183-5.763.604-11.255-2.444-16.367-.038 10.638-4.608 18.35-12.459 23.942.21-10.553 2.382-21.524-4.64-30.537 2.998 8.053-4.085 22.009-11.483 20.03-1.404-7.175.514-12.689-9.039-23.939-2.908 8.124-20.972 12.17-26.871 4.887-2-1.69 13.052-4.753 14.17-12.95-2.08 1.725-5.286 2-8.55 2.2 1.501.357 3 .716 2.198 1.467-21.921 3.989-42.972 9.86-42.332 62.582 10.223 4.747 21.587 7.11 33.598 8.12 7.641.419 18.052.27 17.275 2.417-2.145.719-10.369 1.073-15.978.865 16.465 4.242 6.788 3.61-6.643 2.953 22.03 1.28 22.884 5.666 6.988 4.907 4.967 2.248 10.689 4.574 8.206 6.045-3.78.674-10.186-2.24-15.635-1.813 17.121 4.635 13.516 9.465-1.035 3.887 13.954 6.747-.063 5.013-4.104 2.763 4.867 3.661 3.535 4.18-.431 3.368l-17.706-3.541c3.573 35.297 10.984 49.866 31.446 66.968 34.404 28.603 66.257 20.64 97.226 0 19.205-15.824 27.231-39.634 30.537-66.814-7.432 2.305-14.827 4.734-23.209 4.031-6.895-1.428.222-3.06 3.666-4.64l-14.902 1.832-.244-3.055 11.97-3.42-14.17 1.344-.243-3.176 6.228-.611c-5.794-1.382-1.703-1.94 3.055-2.442-3.61-.837-13.806-.116-1.832-4.642l-8.672 1.466v-3.054l4.273-.612c1.523-.091 2.433-1.464.123-1.464-4.195.617-8.502 1.319-7.94-1.711 15.686-1.418 31.627-2.101 45.317-9.284 1.872-11.544.006-22.88-2.199-34.199-9.757-25.495-31.918-24.237-49.101-33.713zm-87.61 81.58c-1.263-.074-2.581-.139-3.983-.19 1.433.063 2.609.122 3.982.19zm4.81-62.465c8.928-.023 18.24 2.217 27.345 3.238 2.845 4.155 4.616 8.711 5.62 13.556-16.169.071-32.546-8.858-53.745 3.604-1.707 1.02-2.319-.218-1.955-1.709 1.11-5.868 4.775-10.318 7.207-15.451 4.953-2.395 10.171-3.225 15.528-3.238zm98.619 21.751c9.288.12 18.233 5.468 22.623 15.323-1.839 4.744-7.888 2.83-9.736 5.488-3.843 3.454-8.185-1.115-2.29-2.902 1.72-.526 3.31-1.547 4.253-3.192-4.505-5.032-9.248-6.395-13.99-7.773 11.783 16.6-18.71 18.491-9.503 1.209-3.7 2.634-7.445 5.22-10.363 8.637 2.291 2.292 4.882 3.39 7.514 4.32 7.03 1.662 2.175 5.319-1.815 3.107-2.762-1.68-5.548-3.23-8.55-3.627-4.82-.501-4.443-.898-3.887-2.332 5.41-12.21 15.238-18.029 24.844-18.254.3-.007.6-.008.9-.004zm-95.67.067c.3-.004.6-.003.9.004 9.606.225 19.431 6.046 24.842 18.256.556 1.434.936 1.83-3.885 2.332-3.002.397-5.788 1.947-8.55 3.627-3.99 2.211-8.845-1.447-1.815-3.11 2.632-.93 5.222-2.025 7.514-4.318-2.918-3.416-6.664-6.002-10.363-8.637 9.206 17.283-21.286 15.39-9.502-1.209-4.743 1.378-9.488 2.741-13.993 7.774.943 1.644 2.535 2.666 4.254 3.191 5.896 1.787 1.552 6.354-2.29 2.9-1.849-2.657-7.896-.743-9.735-5.488 4.39-9.854 13.335-15.202 22.623-15.322zm62.545 50.19c1.396.026 2.88.483 4.236 1.585 1.216.891 3.277 2.35 5.252 0 .485-1.142 3.998-3.55 2.627 2.32-1.343 4.193-5.097 3.906-8.795 3.725-5.419.195-10.1 1.732-14.254 4.229-2.301.948-4.696 1.286-7.341 0-3.646-2.266-9.93-4.5-12.567-4.19-10.666.993-8.79-2.136-11.228-3.756-3.832-2.98 1.316-5.207 2.375-1.857 1.859 1.08 3.316.629 4.601-.47 3.273-2.444 7.795-1.581 10.016 0 11.934 12.434 13.016 6.27 20.582 0 .936-.838 2.342-1.467 3.904-1.573.195-.013.393-.017.592-.014zm.549 21.679c1.765-.027 3.487.19 5.152.732 5.501 1.96 8.732 6.28 19.553 2.706 6.145-1.833 7.234 4.038.951 4.058-2.184.114-7.503 12.144-11.703 15.158-5.655 5.12-11.648 4.667-17.62 4.578H228.19c-8.775.016-15.313-1.919-16.064-8.896-.106-2.733-7.77-11.407-8.998-10.826-3.109.735-7.269-4.02 0-3.969 14.267 2.454 10.543-.971 21.314-2.809 3.278-.893 7.68-.802 9.834 0 5.492 2.7 14.445 1.431 19.116 0 1.837-.434 3.646-.705 5.412-.732zm-15.752 35.39c9.682-.006 19.379 3.682 23.388 11.085 2.031 4.144-1 3.004-2.177 1.527-9.532-10.698-32.325-11.245-42.569 0-2.427 2.725-3.31 1.26-1.953-1.527 3.96-7.376 13.628-11.078 23.31-11.084z" style=";stroke:none;stroke-opacity:1"/><path id="path295" d="m119.58 218.64 8.306-8.672h5.863v1.94l-.78 1.35-1.785 69.875c.086 2.165.852 3.397 2.646 4.83l-6.694-.286-9.388-12.24z" style=""/><path id="path393" d="m120.191 213.449 4.703-5.619 6.779-90.815-4.764-4.641z" style=""/><path id="path395" d="M128.086 206.683h5.96l4.1-62.307-2.89-2.816 4.478-64.853-7.145-8.122h-2.26l-2.588 37.823 7.169 8.464z" style=""/><path id="path451" d="M157.884 224.993c-12.043-3.317-10.211-11.115-9.069-25.738-5.336 2.765-9.541 6.338-11.66 11.4l-2.59 61.41c-.483 16.994 7.27 27.01 25.996 27.724-4.465-24.39-8.723-48.812-2.677-74.796z" style=";stroke:none;stroke-opacity:1"/><path id="path1062" d="m169.976 149.679-3.8 2.16.086 1.208c-10.5 17.597-19.038 36.5-11.833 65.9l4.405 2.591 11.314-16.842c-13.95-8.613-3.162-34.545-.172-55.017z" style=";stroke:none;stroke-opacity:1"/><path id="path303" d="m283.984 134.736-12.61 8.293c-20.477-6.897-38.366-5.096-55.276 0l-12.438-8.119c-10.895 2.53-20.8 7.536-30.402 13.3-.666 17.761-11.676 33.29-1.555 53.378l35.584-15.375c.128-18.392 21.251-13.165 30.23-10.363 8.278-16.078 36.071-2.752 36.102 10.709 19.181.876 27.8 4.693 40.248 15.2 10.667-11.042 4.932-37.84-.863-52.857-8.373-5.805-18.75-9.94-29.02-14.166zm-107.488 22.705c1.687-.14 3.186.915 2.72 3.897-1.292 5.252-2.042 10.584-1.726 16.066.212 2.751-6.537 6.399-7.342.344-.606-6.152 1.129-11.522 2.504-17.014.284-1.813 2.158-3.152 3.844-3.293zm133.262.282c.103-.001.209.003.314.011 1.687.141 3.56 1.482 3.844 3.295 1.376 5.492 3.112 10.862 2.506 17.014-.805 6.055-7.554 2.405-7.342-.346.316-5.482-.436-10.812-1.728-16.064-.437-2.795.853-3.9 2.406-3.91z" style=";stroke:none;stroke-opacity:1"/><path id="path1469" d="M207.036 133.016c24.633-7.108 49.266-7.866 73.898 0l-9.771 5.497c-18.083-5.613-36.476-5.788-55.21 0z" style=";stroke:none;stroke-opacity:1"/><path id="path1471" d="m143.154 197.998 4.886-1.955 2.81-16.245-7.33.61c1.387-5.794 5.579-6.412 10.383-15.756-4.285-1.98-8.828-3.058-13.436-3.909v5.497h3.42c1.697 3.139-1.665 6.48-3.786 9.771v10.26c5.34-5.807 7.117-1.602 3.053 4.031z" style=";stroke:none;stroke-opacity:1"/><path id="path1496" d="m141.56 151.493.086 6.045c5.269-2.102 10.285-4.557 12.351-11.141 1.962-5.965 5.927-9.224 11.142-10.796l-3.887-10.538c-.853-2.359-2.678-5.373 3.196-3.195 6.558 2.995 13.159 4.823 20.038-.864-3.783-1.855-4.406-3.341 1.555-4.06 5.96-8.515 11.304-11.774 24.01-8.809-4.716-6.679-7.032-12.729-4.923-17.62 6.115 2.204 12.637 12.561 18.31 5.96 4.913-4.509 11.221 2.425 13.56 5.7 7.035-7.465 12.149-2.525 17.102 3.455 7.013-15.155 13.875-8.066 20.729.087 4.942-6.357 9.806-4.341 10.882 8.55 2.615-10.256 6.011-18.639 16.324-10.45 4.961 4.756 12.361 9.518 17.274 15.719 5.847-4.212 11.484-4.367 16.842.863-3.332 4.752-6.912 9.313-8.205 15.633-.879 4.63-.752 8.676 4.491 9.76l10.537 1.728c5.41.904 5.359.828 1.469 4.836l-6.737 7.6c5.13 2.03 9.99 4.803 15.72 5.183 6.878.88 3.33 3.483.517 4.837l-15.373 6.91c1.936 4.84 3.854 9.69 8.81 12.782 3.636 2.153 1.36 3.52-.087 3.023-2.64-.383-5.828-.312-8.292-2.418v6.477c6.201 2.832 13.429 1.182 21.42-3.8-6.61-1.543-10.622-6.495-15.374-11.314-1.545-1.524-1.689-2.469 1.728-4.492 6.022-4.373 15.23-4.533 16.755-14.855l-16.064-1.555c-5.433-.17-2.188-2.631-1.037-4.664 2.742-3.386 5.114-6.854 9.242-9.932l-18.829-2.85c-8.324-1.432-3.515-8.602-1.814-11.833l9.07-13.128c-7.659-3.96-15.224-8.921-23.666-4.405-9.038-6.805-21.734-25.614-34.548-11.747-3.098-1.952-6.214-4.468-9.155-1.554-6.96-6.333-16.233-10.878-23.32-1.037-4.594-3.67-9.387-6.64-16.065-2.936-4.784-2.14-9.758-8.164-14.25-4.319-9.232 6.995-13.954-7.052-20.902-10.71-2.51 8.166-2.241 15.776.95 22.802-7.622.345-16.09-.094-17.447 6.046-1.672 5.32-9.008 4.346-14.596 1.986 5.397 4.565 12.562 10.233.863 8.292-7.754-2.207-13.775-5.202-19.778-8.205l5.873 17.792c1.353 3.635.61 5.126-2.591 6.219-3.83.726-4.354 6.286-6.305 9.76-1.742 2.915-4.991 3.569-7.6 5.182z" style=";stroke:none;stroke-opacity:1"/></g></g></svg>