<svg xmlns="http://www.w3.org/2000/svg" xml:space="preserve" id="Layer_4_1_" x="0" y="0" style="enable-background:new 0 0 37 37" version="1.1" viewBox="0 0 37 37"><style id="style2" type="text/css">.st0{}</style><g id="g861" ><path id="path4" d="m14.2 8-.7-6.4S10.6 2.8 9 4.5s-5 8.2-5 8.2L5.2 25 9 29.9l-2.8-4.8c-.2-.3-.3-.6-.3-.9-.1-.5-.2-1.5-.3-2.9 0-.8.2-1.5.6-2.2.6-.9 1.5-2.2 1.5-3.3 0-1.6 1.6-4.4 3-5.8s3.5-2 3.5-2z" class="st0" style=""/><path id="path6" d="M4.5 23.7 2.4 13.2S.8 14.5.8 17s.8 4 1.8 5 1.9 1.7 1.9 1.7z" class="st0" style=""/><path id="path8" d="M21.7 1.2s0-.5-3.2-.5-3.2.5-3.2.5l-.1 6.6s1.5-.5 3.3-.5 3.3.5 3.3.5l-.1-6.6z" class="st0" style=""/><path id="path10" d="m22.8 8 .7-6.4s2.9 1.2 4.5 2.9 4.9 8.2 4.9 8.2L31.8 25 28 29.9l2.8-4.8c.2-.3.3-.6.3-.9.1-.5.2-1.5.3-2.9 0-.8-.2-1.5-.6-2.2-.6-.9-1.5-2.2-1.5-3.3 0-1.6-1.6-4.4-3-5.8-1.5-1.4-3.5-2-3.5-2z" class="st0" style=""/><path id="path12" d="m32.5 23.7 2.1-10.5s1.6 1.3 1.6 3.8-.8 4-1.8 5c-1.1 1-1.9 1.7-1.9 1.7z" class="st0" style=""/><path id="path14" d="M11.7 19.7c0-.4.2-.8.6-1.1 0 0-1.5 0-2.2.7 0 0 .5 1.1 1.3 1.1h.6c-.2-.2-.3-.4-.3-.7z" class="st0" style=""/><path id="path16" d="M25 18.6c.3.3.6.6.6 1.1 0 .3-.1.5-.3.8h.6c.8 0 1.3-1.1 1.3-1.1-.7-.8-2.2-.8-2.2-.8z" class="st0" style=""/><path id="path18" d="M14.1 18.1c-.6-.9-1.1-2.2-1.1-2.8 0-1.1.7-2.6.7-2.6-1.5 1.5-1.5 2.7-1.5 3.5 0 .4.5 1 .9 1.6.4.1.7.2 1 .3z" class="st0" style=""/><path id="path20" d="M29.2 19.1c-.6-1.1-1.3-2.5-1.3-3.4 0 0-.2-1-1-2.1-.3.6-.9 1.5-1.1 1.5-.4 0-1-.6-2.1-1.7s-2.5-1.1-2.5-1.1c.5 0 1.3 1.4 2.3 2.4 1 1 1.7 1 1.7 1-1.1 1.1-1.4 1.2-1.4 1.2.3 0 .7-.1.7-.1v.1c.7-.2 1.6-.3 2.4.5 0 0-1.6-.4-2.1.3-.2.2-.5.5-.8.7h.1s.9-.3 1.8-.3 2.8 1.2 2.8 1.2-1.1 1.8-2.4 1.8h-2s-1.4-.1-1.8-.4c0 0 .8.2.9.1.1-.2-.4-.3-.4-.9 0-.2.1-.4.2-.6v-.1c.1-.2.2-.3.3-.4-.8.4-1.6.8-1.9.8 0 0 .6-.5 1.3-1.1h-.2c-1 0-1.2-.6-1.5-.3-.3.3.3 1 .3 1s-.4.4-1.4-.6c-1-1-3.7-3.2-4.2-3.7-.7-.6-.9-1.9-.9-1.9v2.5c0 1.5 2.3 2 2.8 2.6.5.5.5 1.3.5 1.3s-1.6-.6-1.9-.9c-.3-.3-1.7-.8-1.7-.2s1.2 1.1 1.2 1.1.2.1-.6.1c-.3 0-1.2-.5-1.2-.5s-.1 0-.2-.1c.1.1.1.2.2.3v.1c.1.2.2.4.2.6 0 .6-.5.8-.4.9.1.1.9-.1.9-.1-.4.4-1.8.4-1.8.4h-2c-1.3 0-2.4-1.8-2.4-1.8s1.9-1.2 2.8-1.2c.5 0 1 .1 1.4.2l-.3-.3c-.1-.1-.3-.3-.5-.4-.7-.2-1.9 0-1.9 0 .3-.3.8-.4 1.3-.4-.4-.3-.9-.6-1.3-1-.5-.5-.4-1.5-.3-2.1-.6.9-.8 1.7-.8 1.7 0 .9-.7 2.3-1.3 3.4-.6 1-.8 2.2-.7 3.3.1 1 .2 2.1.2 2.7 0 1.2 3.8 6 5.6 7.9 1.8 1.8 5.6 3.2 5.6 3.2s3.8-1.4 5.6-3.2c1.8-1.8 5.6-6.7 5.6-7.9 0-.6.1-1.7.2-2.7.2-1.2-.1-2.4-.6-3.4zm-12.6 7.5c.8 0 1 .7 1.5.7h.8c.5 0 .7-.7 1.5-.7s.7 0 .7.2-.4.2-.8.2-.7 1-1.8 1c-1 0-1.3-1-1.8-1-.4 0-.8-.1-.8-.2s0-.2.7-.2zm.2 3.8c.3 0 .4-.3.9-.3s.9.3.9.3.4-.3.9-.3.6.3.9.3h.9c.1.1-1.8.5-2.5.9-.1.1-.3.1-.4 0-.7-.4-2.5-.9-2.4-.9h.8zm4.1 1.5c0 .5-1.8 1.2-1.8 1.2h-1.2s-1.8-.7-1.8-1.2-.7-.3-1.7-1.3c0 0 1.2-.1 1.7.4.4.4 1.5.5 2.2.8.2.1.3.1.5 0 .7-.4 1.7-.4 2.2-.8.5-.5 1.7-.4 1.7-.4-1.1 1-1.8.7-1.8 1.3z" class="st0" style=""/></g></svg>